<?xml version="1.0" encoding="UTF-8" standalone="no"?>
<svg
   xmlns:svg="http://www.w3.org/2000/svg"
   xmlns="http://www.w3.org/2000/svg"
   width="640.0"
   height="420.0"

>
    <g transform="scale(4.772727257045492, -4.772727257045492)   translate(17.403149397393104,-41.38095250976474)" stroke-width="0.20952381021224326"  fill="none">
       <!-- hidden lines -->
       <g  stroke="rgb(170,190,200)" fill="none" stroke-dasharray="0.20952381021224326,0.20952381021224326" >

       </g>

       <!-- solid lines -->
       <g  stroke="rgb(19,78,74)" fill="none">
			<path d="M6.218496890752332,-33.0 L-6.181496909252319,-33.0 " />
			<path d="M-6.181496909252319,-33.0 L-6.218496890752332,-33.0 " />
			<path d="M-6.218496890752331,33.0 L-6.355886310174409,32.99662727737448 L-6.492944746451207,32.986517234682154 L-6.629342013804835,32.969694227901385 L-6.764749519271245,32.94619878512904 L-6.898841054309473,32.91608750894472 L-7.031293580666582,32.87943294005019 L-7.161788008605106,32.83632338251246 L-7.290009965618179,32.7868626910316 L-7.41565055378044,32.73117002074564 L-7.5384070939101875,32.66937954017539 L-7.65798385475005,32.60164010800076 L-7.774092765409474,32.52811491444713 L-7.8864541093527425,32.44898108814581 L-7.994797198260606,32.364429269415666 L-8.09886102414215,32.27466315099389 L-8.198394888125913,32.17989898732233 L-8.293159004415418,32.08036507357165 L-8.382925077954171,31.97630119565821 L-8.467476854408435,31.867958052578814 L-8.546610641142873,31.755596652454884 L-8.62013579793394,31.639487683741017 L-8.687875196238881,31.51991086311279 L-8.749665645913911,31.39715426160479 L-8.80535828835356,31.27151361062225 L-8.854818955104086,31.143291589498215 L-8.89792849108705,31.012797096312493 L-8.934583041654319,30.880344503729138 L-8.964694302783013,30.74625290164516 L-8.988189733807642,30.610845328475015 L-9.00501273217691,30.47444799292277 L-9.015122769814223,30.337389488116774 L-9.01849549075338,30.200000000000024 " />
			<path d="M-6.218496890752332,33.0 L-6.181496909252319,33.0 " />
			<path d="M-8.732766772487995,31.399999999999988 L-8.696843064401039,31.47297897960383 L-8.659415849226642,31.543779693673592 L-8.620773453874746,31.612116265139917 L-8.581276098092612,31.67765518770684 L-8.501413343789123,31.7990083739185 L-8.424127093471881,31.904677089448278 L-8.355008124624035,31.99106674625798 L-8.300082456996552,32.054986152048436 L-8.264708641256856,32.09412410565688 L-8.255568765594436,32.10397096381691 L-8.253265112025746,32.1064237631402 L-8.252495648751056,32.10722287041779 " />
			<path d="M-8.252495648751058,32.1072228704178 L-8.25556260860183,32.10386441739634 L-8.264683194167246,32.093925197660056 L-8.299982443419266,32.05464395858762 L-8.35478492006496,31.9906480447051 L-8.42375182166781,31.90424494573624 L-8.500877495332897,31.798621581835064 L-8.580598931451918,31.677350340307655 L-8.620016864894964,31.611896547438338 L-8.658589819164687,31.543652181925914 L-8.695973405288695,31.47291969928296 L-8.73186875146583,31.4 " />
			<path d="M-8.732766772487999,31.4 L-8.731868751465832,31.4 " />
			<path d="M-8.730166773787998,31.399999999999995 L-8.694243065754096,31.47297897949985 L-8.656815850600662,31.543779693538063 L-8.618173455261232,31.61211626499206 L-8.578676099507542,31.677655187521886 L-8.498813345234526,31.79900837370959 L-8.421527094880512,31.90467708930684 L-8.352408125993206,31.991066746174965 L-8.297482458330142,32.05498615201053 L-8.262108642565712,32.094124105647275 L-8.252968766896677,32.10397096381451 L-8.250665113326304,32.10642376313961 L-8.249895650051055,32.10722287041779 " />
			<path d="M-8.249895650051057,32.1072228704178 L-8.25296260990183,32.10386441739634 L-8.262083195467248,32.09392519766005 L-8.297382444719283,32.0546439585876 L-8.352184921364982,31.990648044705072 L-8.421151822967824,31.904244945736224 L-8.498277496632912,31.79862158183504 L-8.577998932751928,31.677350340307637 L-8.617416866194972,31.611896547438324 L-8.655989820464692,31.5436521819259 L-8.693373406588696,31.472919699282954 L-8.72926875276583,31.4 " />
			<path d="M-8.730166773787998,31.4 L-8.729268752765831,31.4 " />
			<path d="M-8.727566775087993,31.399999999999988 L-8.691643067080463,31.472978979448175 L-8.654215851937439,31.54377969347072 L-8.615573456604185,31.61211626491862 L-8.576076100864604,31.677655187430048 L-8.496213346606707,31.79900837360588 L-8.418927096234414,31.904677089236657 L-8.349808127327575,31.99106674613371 L-8.294882459646887,32.054986151991635 L-8.25950864387012,32.0941241056425 L-8.250368768197793,32.10397096381332 L-8.248065114626584,32.10642376313931 L-8.247295651351054,32.10722287041779 " />
			<path d="M-8.247295651351056,32.1072228704178 L-8.250362611201828,32.10386441739634 L-8.259483196767244,32.093925197660056 L-8.294782446019267,32.05464395858762 L-8.349584922664965,31.990648044705093 L-8.418551824267817,31.90424494573623 L-8.495677497932896,31.79862158183506 L-8.575398934051913,31.677350340307658 L-8.61481686749496,31.61189654743834 L-8.653389821764682,31.543652181925914 L-8.690773407888692,31.47291969928296 L-8.726668754065829,31.4 " />
			<path d="M-8.727566775087997,31.4 L-8.72666875406583,31.4 " />
			<path d="M-8.719766778987998,31.399999999999988 L-8.683843070980599,31.472978979447905 L-8.646415855837638,31.543779693470352 L-8.607773460504434,31.612116264918185 L-8.568276104764953,31.677655187429483 L-8.488413350507159,31.79900837360523 L-8.411127100134808,31.904677089236138 L-8.342008131227786,31.99106674613346 L-8.287082463546955,32.05498615199156 L-8.25170864777014,32.09412410564247 L-8.242568772097796,32.10397096381331 L-8.240265118526583,32.106423763139304 L-8.239495655251051,32.10722287041779 " />
			<path d="M-8.239495655251053,32.1072228704178 L-8.242562615101827,32.10386441739634 L-8.251683200667248,32.09392519766004 L-8.28698244991929,32.05464395858759 L-8.341784926564998,31.99064804470505 L-8.410751828167847,31.904244945736185 L-8.487877501832937,31.798621581834993 L-8.567598937951944,31.677350340307605 L-8.607016871394986,31.611896547438295 L-8.645589825664699,31.543652181925882 L-8.682973411788696,31.472919699282947 L-8.718868757965826,31.399999999999995 " />
			<path d="M-8.719766778987994,31.4 L-8.718868757965827,31.4 " />
			<path d="M-8.724966776387996,31.399999999999995 L-8.689043068348019,31.47297897951176 L-8.651615853192174,31.543779693553603 L-8.6129734578513,31.61211626500904 L-8.573476102094329,31.677655187543145 L-8.4936133478178,31.79900837373362 L-8.416327097467962,31.904677089323176 L-8.347208128585205,31.991066746184565 L-8.292282460926254,32.05498615201492 L-8.256908645164684,32.09412410564839 L-8.247768769496416,32.10397096381479 L-8.245465115926239,32.106423763139674 L-8.244695652651053,32.10722287041779 " />
			<path d="M-8.244695652651055,32.1072228704178 L-8.247762612501829,32.10386441739634 L-8.256883198067248,32.09392519766005 L-8.292182447319288,32.05464395858759 L-8.346984923964985,31.99064804470507 L-8.415951825567817,31.90424494573623 L-8.493077499232875,31.798621581835093 L-8.572798935351896,31.677350340307687 L-8.612216868794947,31.611896547438363 L-8.650789823064674,31.54365218192593 L-8.688173409188687,31.47291969928297 L-8.724068755365828,31.4 " />
			<path d="M-8.724966776387996,31.4 L-8.72406875536583,31.4 " />
			<path d="M-8.722366777687997,31.399999999999995 L-8.686443069680598,31.47297897944791 L-8.649015854537637,31.543779693470356 L-8.61037345920444,31.61211626491818 L-8.570876103464967,31.677655187429462 L-8.491013349207183,31.799008373605194 L-8.413727098834865,31.904677089236067 L-8.344608129927858,31.991066746133374 L-8.289682462247013,32.05498615199149 L-8.254308646470154,32.09412410564246 L-8.245168770797802,32.10397096381331 L-8.242865117226586,32.106423763139304 L-8.242095653951052,32.10722287041779 " />
			<path d="M-8.242095653951054,32.1072228704178 L-8.245162613801824,32.103864417396345 L-8.254283199367235,32.09392519766006 L-8.289582448619248,32.05464395858763 L-8.34438492526495,31.990648044705107 L-8.413351826867812,31.904244945736234 L-8.490477500532926,31.798621581835015 L-8.570198936651945,31.677350340307605 L-8.60961687009498,31.611896547438302 L-8.648189824364696,31.54365218192589 L-8.6855734104887,31.47291969928294 L-8.721468756665827,31.399999999999995 " />
			<path d="M-8.722366777687995,31.4 L-8.721468756665828,31.4 " />
			<path d="M-8.722366777688011,31.4 L-8.722302637302295,31.4 L-8.72223849630011,31.4 L-8.722174354682764,31.4 L-8.72211021245157,31.4 L-8.722046069607833,31.4 L-8.721981926152864,31.4 L-8.72191778208797,31.4 L-8.721853637414462,31.4 L-8.72178949213365,31.4 L-8.721725346246842,31.4 L-8.721661199755346,31.4 L-8.72159705266047,31.4 L-8.721532904963528,31.4 L-8.721468756665825,31.4 " />
			<path d="M-8.724966776388012,31.4 L-8.724902636002296,31.4 L-8.72483849500011,31.4 L-8.724774353382765,31.4 L-8.72471021115157,31.4 L-8.724646068307836,31.4 L-8.724581924852865,31.4 L-8.724517780787972,31.4 L-8.724453636114465,31.4 L-8.724389490833651,31.4 L-8.724325344946843,31.4 L-8.724261198455347,31.4 L-8.724197051360473,31.4 L-8.72413290366353,31.4 L-8.724068755365828,31.4 " />
			<path d="M-8.71976677898801,31.4 L-8.719702638602294,31.4 L-8.719638497600108,31.4 L-8.719574355982763,31.4 L-8.719510213751569,31.4 L-8.719446070907832,31.4 L-8.719381927452863,31.4 L-8.71931778338797,31.4 L-8.719253638714461,31.4 L-8.71918949343365,31.4 L-8.719125347546841,31.4 L-8.719061201055345,31.4 L-8.71899705396047,31.4 L-8.718932906263527,31.4 L-8.718868757965824,31.4 " />
			<path d="M-8.727566775088013,31.4 L-8.727502634702297,31.4 L-8.727438493700111,31.4 L-8.727374352082766,31.4 L-8.727310209851572,31.4 L-8.727246067007837,31.4 L-8.727181923552866,31.4 L-8.727117779487973,31.4 L-8.727053634814466,31.4 L-8.726989489533652,31.4 L-8.726925343646844,31.4 L-8.726861197155348,31.4 L-8.726797050060474,31.4 L-8.726732902363532,31.4 L-8.726668754065829,31.4 " />
			<path d="M-8.730166773788014,31.4 L-8.730102633402298,31.4 L-8.730038492400112,31.4 L-8.729974350782767,31.4 L-8.729910208551573,31.4 L-8.729846065707836,31.4 L-8.729781922252867,31.4 L-8.729717778187974,31.4 L-8.729653633514465,31.4 L-8.729589488233655,31.4 L-8.729525342346845,31.4 L-8.729461195855349,31.4 L-8.729397048760474,31.4 L-8.72933290106353,31.4 L-8.729268752765828,31.4 " />
			<path d="M-8.732766772488015,31.4 L-8.7327026321023,31.4 L-8.732638491100113,31.4 L-8.732574349482768,31.4 L-8.732510207251574,31.4 L-8.732446064407839,31.4 L-8.732381920952868,31.4 L-8.732317776887976,31.4 L-8.732253632214467,31.4 L-8.732189486933656,31.4 L-8.732125341046846,31.4 L-8.73206119455535,31.4 L-8.731997047460476,31.4 L-8.731932899763533,31.4 L-8.73186875146583,31.4 " />
			<path d="M-6.181496909252319,33.0 L-6.318886328674396,32.99662727737448 L-6.4559447649511945,32.986517234682154 L-6.592342032304822,32.969694227901385 L-6.727749537771232,32.94619878512904 L-6.861841072809461,32.91608750894472 L-6.99429359916657,32.87943294005019 L-7.124788027105093,32.83632338251246 L-7.253009984118166,32.7868626910316 L-7.378650572280427,32.73117002074564 L-7.501407112410176,32.66937954017539 L-7.620983873250037,32.60164010800076 L-7.737092783909461,32.52811491444713 L-7.84945412785273,32.44898108814581 L-7.957797216760594,32.364429269415666 L-8.061861042642139,32.27466315099389 L-8.161394906625901,32.17989898732233 L-8.256159022915407,32.08036507357165 L-8.34592509645416,31.976301195658206 L-8.430476872908425,31.86795805257881 L-8.509610659642862,31.755596652454884 L-8.583135816433927,31.63948768374102 L-8.650875214738868,31.519910863112795 L-8.712665664413898,31.39715426160479 L-8.768358306853546,31.271513610622254 L-8.817818973604073,31.14329158949822 L-8.860928509587037,31.012797096312497 L-8.897583060154306,30.88034450372914 L-8.927694321283001,30.74625290164516 L-8.95118975230763,30.610845328475012 L-8.968012750676898,30.47444799292277 L-8.978122788314211,30.33738948811677 L-8.981495509253369,30.200000000000024 " />
			<path d="M-8.978647662988399,28.86215231110849 L-8.979133358123335,29.34784768889153 " />
			<path d="M-6.87619165344839,30.1 L-6.873642022389148,30.00806584263452 L-6.866069468654307,29.91589146733099 L-6.853392299360553,29.823630007461357 L-6.835517867521476,29.731452953291612 L-6.812344413143899,29.639550708929487 L-6.783762653330406,29.54813311068464 L-6.749656961716823,29.457429947125593 L-6.709905977573343,29.367691521117774 L-6.664382484898006,29.279189294126855 L-6.612952401831267,29.192216653071767 L-6.555472720720347,29.107089840011653 L-6.491812735085212,29.02417931569591 L-6.421931868119718,28.943984691051483 L-6.345826146026134,28.867029333597454 L-6.263579278540064,28.793898198061797 L-6.175389673690892,28.725227291513225 " />
			<path d="M-6.876191653448391,30.1 L-6.876596561702579,30.634253709359655 " />
			<path d="M-6.176596911702316,30.770831300812517 L-6.266141324373813,30.768651256481544 L-6.355492912192321,30.762119445870837 L-6.444443502639217,30.75126316827366 L-6.532795113334236,30.736127902078 L-6.62035971016431,30.716775582142102 L-6.706959014679159,30.693283149060374 L-6.79242435601418,30.665741342601933 L-6.876596562601168,30.634253711603957 " />
			<path d="M-3.4765982617013034,30.1 L-3.478644976210583,30.016605493187548 L-3.484780191453272,29.933411792060305 L-3.4949891344407433,29.85061921878335 L-3.509247223052779,29.768427129645755 L-3.5275201252288775,29.68703343503046 L-3.5497638416364374,29.606634122865735 L-3.5759248116167823,29.52742278670572 L-3.605940042153904,29.44959015957639 L-3.6397372595553827,29.37332365470938 L-3.6772350834802596,29.29880691426956 L-3.7183432228948092,29.22621936716292 L-3.7629626934843743,29.155735796989624 L-3.810986055997763,29.087525921182465 L-3.8622976749502866,29.021753982344137 L-3.9167739970625157,28.958578352767383 L-3.9742838487642995,28.898151153090254 L-4.034688752047688,28.840617886004715 L-4.097843257908213,28.78611708590063 L-4.163595296571639,28.73477998528873 L-4.231786543662867,28.686730198805737 L-4.302252801435293,28.642083425562642 L-4.3748243941426725,28.600947170552708 L-4.449326576601448,28.563420485790157 L-4.525579954959793,28.529593731802738 L-4.603400918660175,28.499548360052575 L-4.682602082555335,28.47335671680914 L-4.7629927381131,28.4510818689466 L-4.844379312623578,28.432777452085087 L-4.926565835303004,28.418487541441436 L-5.009354409171919,28.408246545700433 L-5.092545687571425,28.402079124162142 L-5.175939354170127,28.400000127364756 " />
			<path d="M-3.4765982617013034,30.770831300812535 L-3.4765982617013034,30.1 " />
			<path d="M-3.476598261701305,30.770831300812517 L-6.176597511702019,30.770831300812517 " />
			<path d="M-3.4760862383062214,30.1 L-3.476598261701304,30.77083130081249 " />
			<path d="M-3.476086238306221,30.1 L-3.477972560526682,30.018818828371355 L-3.483830459266249,29.936825363767305 L-3.4937849973620194,29.854263936193348 L-3.507943933916528,29.771390345302535 L-3.5263806897985766,29.688534698139872 L-3.5491328251975784,29.606044783267212 L-3.576203506671083,29.524267252170738 L-3.607561293012359,29.443545948501235 L-3.643127816239926,29.36424524351031 L-3.682780732585142,29.286726676834746 L-3.7263709519598054,29.211314253672427 L-3.773713036524669,29.13831828788872 L-3.824583022278382,29.06803553850953 L-3.8787430563201837,29.000715837513376 L-3.9359777383694072,28.93653361014704 L-3.996059815062739,28.875645373811526 L-4.058747419785525,28.81819258775435 L-4.12378408359557,28.764300451483617 L-4.190930341611653,28.71405415495533 L-4.259994998788386,28.667488641997874 L-4.330780704377425,28.624637521971593 L-4.403091251443055,28.585526618455695 L-4.476740734600409,28.550169818898723 L-4.551567406284953,28.518565877183434 L-4.627413512006002,28.490711522555397 L-4.704126137296995,28.466600740158796 L-4.781565968660986,28.446223451163615 L-4.859604646909413,28.429568220903896 L-4.938116773017475,28.416625282617964 L-5.016979767816748,28.407386653136495 L-5.096073731687803,28.401846248570614 L-5.175281304252821,28.400000000000002 " />
			<path d="M-5.175281304252826,28.400000000000002 L-5.240768582890344,28.401261818602475 L-5.306197999984909,28.405048345878804 L-5.371501828442404,28.41136185988401 L-5.436611525291805,28.420205458771118 L-5.50145751631114,28.431582967827488 L-5.565968980653447,28.445498846511207 L-5.630073635472734,28.46195809548744 L-5.6936975205499385,28.480966163664792 L-5.756764782918885,28.502528855231684 L-5.819197461492244,28.526652236692712 L-5.880915271687497,28.55334254390501 L-5.9418318972910455,28.582604302945022 L-6.001843804247464,28.61443315484696 L-6.060845274033084,28.648821121725558 L-6.11872975850866,28.68575720531672 L-6.175389673690871,28.72522729151324 " />
			<path d="M6.218496890752332,33.0 L-6.181496909252319,33.0 " />
			<path d="M6.218496890752332,33.0 L6.3558863101744105,32.99662727737448 L6.492944746451209,32.986517234682154 L6.629342013804835,32.969694227901385 L6.764749519271246,32.94619878512904 L6.898841054309474,32.91608750894472 L7.031293580666583,32.87943294005019 L7.161788008605107,32.83632338251246 L7.2900099656181805,32.7868626910316 L7.4156505537804405,32.73117002074564 L7.538407093910189,32.66937954017539 L7.657983854750051,32.60164010800076 L7.774092765409476,32.52811491444712 L7.886454109352744,32.44898108814581 L7.994797198260608,32.364429269415666 L8.098861024142153,32.27466315099389 L8.198394888125915,32.17989898732233 L8.29315900441542,32.08036507357165 L8.382925077954173,31.976301195658206 L8.467476854408437,31.867958052578814 L8.546610641142875,31.755596652454887 L8.62013579793394,31.63948768374102 L8.687875196238881,31.51991086311279 L8.749665645913913,31.39715426160479 L8.80535828835356,31.27151361062225 L8.854818955104088,31.143291589498215 L8.897928491087052,31.012797096312493 L8.934583041654319,30.880344503729138 L8.964694302783014,30.746252901645157 L8.988189733807644,30.610845328475012 L9.005012732176912,30.47444799292277 L9.015122769814225,30.33738948811677 L9.018495490753383,30.200000000000006 " />
			<path d="M9.02134333701835,28.86215231110849 L9.021323890423918,28.888241115928334 " />
			<path d="M9.021323890423918,28.888241115928338 L9.020885394041048,29.327435216747066 " />
			<path d="M9.020885394041048,29.327435216747066 L9.020857641883413,29.34784768889153 " />
			<path d="M9.022195488903382,21.85358983848622 L9.022196888812278,21.85522155525109 " />
			<path d="M9.02219688881228,21.85522155525109 L9.015243511901131,22.199650570419493 L9.022196888892074,22.544778443328614 " />
			<path d="M9.022196888892074,22.544778443328617 L9.022195488903382,22.546410161513776 " />
			<path d="M9.022195488903382,19.653589838486226 L9.022196888812278,19.655221555251096 " />
			<path d="M9.02219688881228,19.655221555251096 L9.015243511901131,19.999650570419558 L9.022196888892074,20.344778443328615 " />
			<path d="M9.022196888892074,20.344778443328615 L9.022195488903382,20.346410161513774 " />
			<path d="M9.022195488903382,17.453589838486224 L9.022196888812278,17.455221555251093 " />
			<path d="M9.02219688881228,17.455221555251093 L9.015243511901131,17.799650570419608 L9.022196888892074,18.14477844332861 " />
			<path d="M9.022196888892074,18.14477844332861 L9.022195488903382,18.146410161513778 " />
			<path d="M8.523792610047025,-10.06599419806739 L8.632754427577105,-10.086034859311889 L8.730929585738162,-10.110322814131827 L8.775535398291261,-10.124201326771702 L8.816947828420455,-10.1393143177284 L8.854986851569603,-10.155706091408605 L8.889459727366303,-10.173401573479147 L8.920199429632271,-10.192416590985244 L8.947064575885081,-10.212757145427688 L8.969939381062106,-10.234418778577181 L8.988733635466652,-10.257386031025838 L9.003382706936295,-10.281631993475854 L9.013847567233416,-10.307117950765326 L9.020114842657941,-10.33379311863124 L9.022196888882265,-10.361594473209609 " />
			<path d="M9.022196888882263,-10.361594473209609 L9.022195488903382,-10.36233108242224 " />
			<path d="M8.523792610047028,-10.065994198067393 L8.523792610047028,-26.5 " />
			<path d="M8.183787702333714,22.599999999999998 L8.221152333132302,22.598252903220313 L8.257154297127752,22.59296279921404 L8.291555510925017,22.584078533628354 L8.324129280194674,22.571586206620456 L8.354668825031819,22.5555158211547 L8.382987517098988,22.5359483801458 L8.408924858275334,22.513018328956207 L8.43235000950188,22.48691158335496 L8.453156586443557,22.45786937088707 L8.471271323920684,22.426170448352543 L8.486642631576402,22.392132985305658 L8.499235365838656,22.35611473849747 L8.509032699451684,22.3184930570451 L8.516030167697677,22.279651231620043 L8.520226168898553,22.239988548254285 L8.521620791844823,22.199917312193875 L8.520214382461225,22.159843919659895 L8.516005759230255,22.120177475729363 L8.50899488608586,22.08133448278897 L8.499184246020443,22.04371708700558 L8.4865797495721,22.00770935829071 L8.471194676075301,21.973678972046084 L8.453064055956952,21.941986141553848 L8.432241235293189,21.912952746290564 L8.408806044368044,21.88686364403907 L8.382874827522588,21.86396336120746 L8.354572243379446,21.844425727601877 L8.3240478681043,21.828376979340337 L8.291480260876114,21.815897486731817 L8.257079843314132,21.80702224781737 L8.221091509441425,21.80174129603821 L8.183787679838824,21.79999999186211 " />
			<path d="M8.18378767983882,21.7999999918621 L8.143425565312555,21.80188626873074 L8.10214531863762,21.807465455324845 L8.060249408038967,21.816612255680983 L8.018073139860226,21.82919411098072 L7.975987995870004,21.845071787635057 L7.934379570212064,21.86411266035235 L7.893635890543321,21.88621109906547 L7.854216315005065,21.911265880616885 L7.816655256309185,21.9391762483471 L7.78156640786021,21.96983841022147 L7.749652187808365,22.003133675649245 L7.721708492598894,22.038904974636505 L7.698620469187611,22.076900700858843 L7.681261337355134,22.116816915869272 L7.670471692693615,22.158091009241335 L7.666816694755693,22.200092995007193 L7.6705056154498665,22.242102792523916 L7.681332305556771,22.283386356146867 L7.698721014184296,22.32329173670487 L7.721851315478772,22.3613004091898 L7.749826288329302,22.39706627570116 L7.781744461121996,22.430330935857942 L7.816831778377397,22.46096572003412 L7.854393501682548,22.48885574291066 L7.893812208131631,22.513892409180578 L7.934548480900108,22.535971669148164 L7.976139870260803,22.554991532256313 L8.018196251924852,22.570847460408515 L8.060336723549847,22.58341031785411 L8.102196204427282,22.592543570009667 L8.143445494999924,22.59811556179552 L8.18378770233371,22.599999999999998 " />
			<path d="M8.183787702333714,20.400000000000002 L8.221152333132245,20.39825290322032 L8.257154297127615,20.392962799214068 L8.29155551092488,20.384078533628394 L8.324129280194557,20.37158620662051 L8.354668825031702,20.355515821154768 L8.382987517098877,20.33594838014588 L8.408924858275228,20.31301832895631 L8.432350009501784,20.286911583355078 L8.453156586443477,20.257869370887192 L8.47127132392062,20.22617044835267 L8.48664263157635,20.19213298530578 L8.499235365838619,20.15611473849759 L8.509032699451659,20.11849305704521 L8.51603016769766,20.079651231620147 L8.520226168898546,20.039988548254378 L8.521620791844823,19.99991731219396 L8.52021438246123,19.95984391965997 L8.516005759230266,19.920177475729428 L8.508994886085873,19.88133448278903 L8.499184246020457,19.84371708700563 L8.486579749572117,19.807709358290754 L8.471194676075333,19.773678972046145 L8.453064055957004,19.741986141553927 L8.43224123529327,19.712952746290668 L8.408806044368136,19.686863644039164 L8.382874827522675,19.66396336120753 L8.354572243379527,19.644425727601927 L8.324047868104373,19.628376979340374 L8.29148026087618,19.61589748673184 L8.257079843314193,19.60702224781738 L8.221091509441477,19.601741296038213 L8.18378767983883,19.599999991862106 " />
			<path d="M8.18378767983883,19.599999991862102 L8.143425565307853,19.60188626873117 L8.10214531862803,19.607465455326544 L8.060249408024426,19.616612255684743 L8.01807313984079,19.629194110987285 L7.975987995845873,19.645071787645122 L7.9343795701835615,19.664112660366577 L7.893635890510936,19.686211099084492 L7.854216314969504,19.711265880641307 L7.8166552562714084,19.739176248377483 L7.781566407821463,19.769838410258345 L7.749652187770242,19.80313367569307 L7.721708492563302,19.838904974687722 L7.698620469157003,19.87690070091748 L7.681261337333925,19.916816915930074 L7.670471692682635,19.95809100930422 L7.666816694755718,20.00009299507107 L7.670505615460269,20.04210279258321 L7.681332305575637,20.083386356200815 L7.698721014209404,20.123291736752886 L7.721851315508047,20.161300409231863 L7.749826288360734,20.19706627573725 L7.781744461153943,20.230330935888315 L7.816831778408564,20.260965720059172 L7.854393501711906,20.28885574293081 L7.893812208158389,20.31389240919629 L7.934548480923687,20.335971669159925 L7.976139870280784,20.35499153226464 L8.018196251940944,20.370847460413952 L8.060336723561885,20.383410317857226 L8.10219620443522,20.392543570011078 L8.143445495003819,20.39811556179588 L8.18378770233371,20.400000000000002 " />
			<path d="M8.183787702333714,18.200000000000003 L8.221152330127904,18.19825290344733 L8.257154290612398,18.192962800606157 L8.291555503660701,18.184078535944668 L8.324129273585788,18.171586209610165 L8.354668819088728,18.155515824753227 L8.382987511824052,18.13594838427904 L8.408924853661201,18.113018333542875 L8.432350005533179,18.086911588307736 L8.453156583097375,18.057869376114983 L8.471271321167203,18.026170453764866 L8.486642629381723,17.99213299081182 L8.499235364165493,17.95611474400922 L8.509032698259455,17.918493062482067 L8.516030166944924,17.87965123690843 L8.520226168543498,17.83998855332717 L8.521620791845512,17.79991731699213 L8.520214382775869,17.759843924136362 L8.516005759817089,17.720177479842803 L8.508994886902896,17.6813344865088 L8.49918424702545,17.643717090311842 L8.486579750722619,17.60770936117392 L8.47119467732796,17.573678974505697 L8.453064057267374,17.541986143598997 L8.43224123661696,17.512952747940755 L8.408806045660016,17.486863645321925 L8.382874828739244,17.463963362159816 L8.354572244479275,17.444425728267227 L8.324047869048025,17.428376979766913 L8.291480261627449,17.41589748697118 L8.257079843840636,17.407022247923045 L8.221091509715482,17.401741296064337 L8.183787679838714,17.399999991862106 " />
			<path d="M8.183787679838712,17.399999991862103 L8.143425576164198,17.40188626773424 L8.102145340751035,17.407465451403322 L8.0602494415706,17.4166122470087 L8.018073184676298,17.42919409584211 L7.9759880515054355,17.445071764431365 L7.934379635924091,17.464112627554538 L7.893635965195567,17.486211055213246 L7.854216396969262,17.51126582432655 L7.816655343375831,17.539176178319156 L7.78156649714889,17.56983832524923 L7.7496522755119095,17.60313357485992 L7.721708568061211,17.638904865942962 L7.69862053010158,17.676900584175026 L7.681261377570871,17.71681680057108 L7.670471712193043,17.758090897566117 L7.666816694714668,17.800092888847917 L7.670505598159217,17.842102693957365 L7.68133227419885,17.883386266466367 L7.6987209724468855,17.923291656885024 L7.721851266923947,17.961300339417985 L7.749826236251532,17.997066215908795 L7.781744408204704,18.03033088554588 L7.81683172677319,18.06096567856118 L7.85439345310191,18.08885570957102 L7.893812163889296,18.113892383209688 L7.9345484419642975,18.13597164972819 L7.976139837303675,18.154991518520568 L8.018196225383585,18.170847451449134 L8.06033670369334,18.183410312721914 L8.102196191331647,18.19254356768866 L8.143445488572297,18.198115561205558 L8.18378770233371,18.200000000000003 " />
			<path d="M-8.135387726533697,18.200000000000003 L-8.094967953919127,18.198115561581353 L-8.053642476828033,18.192543569167093 L-8.01170873602496,18.183410315991015 L-7.969496452247431,18.170847457156075 L-7.92737120387422,18.15499152726995 L-7.885714334254995,18.1359716620983 L-7.844916347362427,18.11389239975259 L-7.805440110434951,18.088855730807655 L-7.7678254940914355,18.060965704978543 L-7.732690409353389,18.03033091759356 L-7.700730119028182,17.997066253995214 L-7.6727192509202595,17.961300383861158 L-7.649559973909468,17.923291707728747 L-7.6321498950386015,17.883386323591523 L-7.621310077719416,17.842102756743213 L-7.617616719362383,17.800092956470625 L-7.621276127419714,17.758090968698404 L-7.6320788663071,17.716816874007193 L-7.649459341665932,17.676900658490972 L-7.672576294103721,17.638904932423255 L-7.700555847331759,17.603133634157704 L-7.732512179251361,17.56983836997233 L-7.767648794467291,17.539176209810936 L-7.805262740596602,17.511265844249063 L-7.844739841381735,17.486211065333464 L-7.885545238292512,17.464112629738466 L-7.927219162516581,17.44507176064262 L-7.969373211915182,17.42919408815039 L-8.011621345902519,17.41661223761868 L-8.053591575310133,17.407465442650036 L-8.094948061633538,17.401886262073923 L-8.135387777023285,17.39999999186213 " />
			<path d="M-8.135387777023286,17.399999991862135 L-8.172774449849458,17.401742090703454 L-8.20884508509587,17.40702544743799 L-8.243326342758158,17.415904723357606 L-8.27597241159144,17.42838986641755 L-8.306571977498528,17.444445819200407 L-8.334945618336645,17.46399211072082 L-8.360942929580906,17.48690236224107 L-8.384438449838811,17.5130025430739 L-8.405315036342287,17.542047848766483 L-8.42349221615303,17.57375317686131 L-8.438916060912083,17.607796333713743 L-8.451551058207842,17.643816781928408 L-8.461383572637457,17.681446576257613 L-8.46840740220552,17.720301359340386 L-8.472619849143062,17.759978705326546 L-8.474020818267265,17.800061842508992 L-8.472611448547237,17.840141211984157 L-8.46839143948417,17.87981030048952 L-8.461360839397644,17.918656532775362 L-8.451521484380539,17.956280392424233 L-8.438878176964833,17.992298387029404 L-8.423448242902117,18.026332953013725 L-8.405267429879784,18.05802626805877 L-8.384388028783286,18.087060159683563 L-8.360891050042046,18.113149024450216 L-8.334899642830349,18.1360437915691 L-8.306538194523636,18.155574574966206 L-8.275954484320973,18.171618220945774 L-8.243324184390831,18.184095963192384 L-8.208853764310547,18.192972814915546 L-8.172783091340595,18.19825708240546 L-8.1353877265337,18.200000000000003 " />
			<path d="M-8.135387726533697,20.400000000000002 L-8.09496795391523,20.398115561580997 L-8.053642476820096,20.392543569165692 L-8.011708736012922,20.38341031598791 L-7.9694964522313345,20.370847457150653 L-7.927371203854239,20.354991527261635 L-7.885714334231402,20.33597166208655 L-7.84491634733562,20.313892399736872 L-7.805440110405516,20.28885573078748 L-7.767825494060177,20.260965704953453 L-7.732690409321346,20.230330917563133 L-7.700730118996653,20.19706625395906 L-7.672719250890858,20.161300383818965 L-7.649559973884197,20.123291707680483 L-7.6321498950196105,20.083386323537283 L-7.621310077708943,20.042102756683576 L-7.617616719362357,20.000092956406387 L-7.621276127430771,19.95809096863514 L-7.632078866328469,19.916816873945997 L-7.6494593416967716,19.876900658431975 L-7.67257629413964,19.838904932371637 L-7.70055584737031,19.803133634113447 L-7.732512179290572,19.769838369935062 L-7.767648794505547,19.73917620978021 L-7.805262740632624,19.71126584422436 L-7.844739841414549,19.686211065314218 L-7.885545238321409,19.664112629724066 L-7.927219162541059,19.645071760632426 L-7.969373211934904,19.629194088143734 L-8.011621345917272,19.61661223761487 L-8.05359157531986,19.607465442648316 L-8.094948061638311,19.60188626207349 L-8.135387777023281,19.599999991862134 " />
			<path d="M-8.135387777023281,19.599999991862134 L-8.172774449849443,19.60174209070345 L-8.20884508509585,19.607025447437984 L-8.24332634275814,19.6159047233576 L-8.275972411591425,19.628389866417542 L-8.306571977498509,19.644445819200392 L-8.334945618336613,19.66399211072079 L-8.36094292958087,19.686902362241035 L-8.384438449838788,19.71300254307387 L-8.405315036342285,19.742047848766482 L-8.423492216153045,19.773753176861344 L-8.438916060912108,19.807796333713807 L-8.451551058207865,19.843816781928485 L-8.461383572637477,19.881446576257705 L-8.468407402205536,19.920301359340492 L-8.472619849143069,19.959978705326666 L-8.474020818267265,20.000061842509123 L-8.472611448547228,20.04014121198429 L-8.468391439484153,20.079810300489644 L-8.461360839397617,20.118656532775475 L-8.451521484380507,20.15628039242434 L-8.438878176964788,20.192298387029513 L-8.423448242902051,20.226332953013856 L-8.40526742987969,20.258026268058916 L-8.384388028783164,20.287060159683715 L-8.360891050041912,20.31314902445035 L-8.334899642830228,20.3360437915692 L-8.306538194523528,20.355574574966273 L-8.27595448432088,20.371618220945816 L-8.24332418439076,20.38409596319241 L-8.208853764310494,20.39297281491556 L-8.172783091340559,20.39825708240546 L-8.1353877265337,20.4 " />
			<path d="M-8.135387726533697,22.599999999999998 L-8.094967960478082,22.59811556218224 L-8.053642490190246,22.59254357153107 L-8.011708756284225,22.583410321218228 L-7.969496479325193,22.570847466281318 L-7.927371237495355,22.55499154125998 L-7.8857143739728315,22.535971681877783 L-7.844916392490753,22.513892426204247 L-7.805440159985789,22.488855764764452 L-7.767825546723634,22.4609657472192 L-7.732690463322438,22.430330968836955 L-7.7007301721389405,22.397066314894403 L-7.672719299280951,22.361300453135474 L-7.649560012949321,22.32329178238181 L-7.632149921058996,22.283386397916573 L-7.621310090365121,22.242102828743956 L-7.6176167193888675,22.20009302488691 L-7.621276116318661,22.158091032198705 L-7.632078846126694,22.116816931793835 L-7.649459314778101,22.076900709932257 L-7.672576262834875,22.03890497736117 L-7.70055581374728,22.00313367271265 L-7.7325121451067975,21.96983840242281 L-7.767648761170948,21.939176236554275 L-7.8052627092499876,21.911265865746095 L-7.844739812829967,21.88621108208045 L-7.885545213158576,21.864112642263834 L-7.927219141235455,21.84507176950405 L-7.969373194771405,21.8291940939318 L-8.0116213330745,21.81661224093063 L-8.05359156684962,21.807465444147685 L-8.094948057481291,21.801886262454502 L-8.135387777023054,21.79999999186213 " />
			<path d="M-8.135387777023055,21.799999991862126 L-8.172774449849216,21.801742090703428 L-8.208845085095644,21.80702544743794 L-8.243326342757946,21.815904723357534 L-8.275972411591239,21.828389866417456 L-8.306571977498342,21.844445819200292 L-8.334945618336473,21.86399211072068 L-8.360942929580746,21.886902362240907 L-8.384438449838676,21.91300254307373 L-8.405315036342166,21.942047848766293 L-8.423492216152917,21.97375317686109 L-8.438916060911994,22.007796333713515 L-8.451551058207773,22.043816781928175 L-8.461383572637407,22.08144657625738 L-8.468407402205488,22.120301359340154 L-8.472619849143046,22.159978705326317 L-8.474020818267265,22.20006184250877 L-8.472611448547253,22.240141211983932 L-8.468391439484206,22.279810300489277 L-8.461360839397699,22.31865653277511 L-8.451521484380617,22.356280392423976 L-8.438878176964932,22.392298387029157 L-8.423448242902232,22.426332953013503 L-8.405267429879915,22.458026268058568 L-8.384388028783434,22.487060159683384 L-8.360891050042191,22.51314902445007 L-8.334899642830484,22.536043791568996 L-8.30653819452376,22.555574574966133 L-8.275954484321081,22.571618220945723 L-8.243324184390914,22.584095963192354 L-8.208853764310602,22.592972814915534 L-8.172783091340628,22.598257082405457 L-8.1353877265337,22.599999999999998 " />
			<path d="M8.523792610047028,-26.5 L8.523015375788766,-29.26219678714596 L8.520911767406611,-31.213773620527014 " />
			<path d="M8.52091176740661,-31.21377362052704 L8.581330434822364,-31.168304940421066 L8.638093992122513,-31.120282985305398 L8.69109182750372,-31.069690831037295 L8.740226759380395,-31.01652398406597 L8.78541674030469,-30.960791337671647 L8.826599213655202,-30.902512012616928 L8.863725275858167,-30.841726349931786 L8.896768503702384,-30.778487637356303 L8.925726604592484,-30.71285967361925 L8.950621091348207,-30.644916833014506 L8.971497157929115,-30.574744107765557 L8.988423756084712,-30.50243712817801 L9.00149388351257,-30.428102068799088 L9.010826049756595,-30.351843931733313 L9.01656212329622,-30.273766011820562 L9.018865059996932,-30.193973739633442 " />
			<path d="M9.018865059996932,-30.193973739633442 L9.01892718506769,-30.17472989927598 " />
			<path d="M6.218496890752332,-33.0 L6.355132953815606,-32.99666418570431 L6.4914434507842556,-32.98666469114368 L6.627103591297967,-32.97002534235876 L6.761790134616683,-32.94678578633351 L6.89518215981423,-32.91700139652737 L7.026961830444479,-32.88074314093555 L7.156815151858023,-32.83809741299188 L7.28443271936492,-32.789165825717 L7.409510455460837,-32.7340649696026 L7.531750334359958,-32.672926134808336 L7.65086109210833,-32.60589499833359 L7.766558920585617,-32.533131276909295 L7.878568143741669,-32.45480834643698 L7.986621874456588,-32.371112828881735 L8.090462650459218,-32.28224414760355 L8.189843047788795,-32.18841405218629 L8.284526270338091,-32.08984611389686 L8.37428671407329,-31.98677519297645 L8.458910504586251,-31.879446879033235 L8.538196006698293,-31.768116905870073 L8.611954304901285,-31.65305054214126 L8.680009653491249,-31.53452195929042 L8.74219989532195,-31.4128135782755 L8.79837684818071,-31.288215396637426 L8.848406657865791,-31.16102429751586 L8.892170117124078,-31.031543342258463 L8.929562949689128,-30.900081048309215 L8.960496058742779,-30.766950654096334 L8.984895739208323,-30.63246937267139 L9.002703853369395,-30.496957635878015 L9.013877969396143,-30.360738330851085 L9.018391462448577,-30.224136030665647 " />
			<path d="M9.01892718506769,-30.174729899275825 L9.014913637403728,-25.399567811090126 L9.01414217559403,-19.2096081982229 L9.016860883610839,-13.595396476541536 L9.019294210605619,-11.592800138699182 L9.022195488903384,-10.362331082422159 " />
			<path d="M-8.977795511103366,18.146410161513792 L-8.977891983437088,18.186370330515633 L-8.977943300552583,18.196577944549524 L-8.977995511003366,18.2 " />
			<path d="M9.021742233045202,18.10961485027028 L9.021742233176333,17.490385042468812 " />
			<path d="M-8.977795511103366,17.45358983848621 L-8.977891983437088,17.41362966948437 L-8.977943300552583,17.403422055450477 L-8.977995511003366,17.400000000000002 " />
			<path d="M-8.977995511003366,17.400000000000002 L-8.978034717839893,17.40192610933112 L-8.978073547093155,17.40768588783871 L-8.978148584299776,17.430448186995488 L-8.978278353574419,17.517157287525382 L-8.978395510803367,17.8 L-8.978278353574419,18.08284271247462 L-8.978148584299776,18.169551813004514 L-8.978073547093155,18.19231411216129 L-8.978034717839893,18.19807389066888 L-8.977995511003366,18.2 " />
			<path d="M-8.977795511103366,18.146410161513778 L-8.977795511103366,17.453589838486224 " />
			<path d="M-8.977795511103366,20.346410161513653 L-8.977891983437088,20.386370330515597 L-8.977943300552583,20.396577944549517 L-8.977995511003366,20.4 " />
			<path d="M9.021742233045202,20.309614850270275 L9.021742233176333,19.69038504246882 " />
			<path d="M-8.977795511103366,19.653589838486347 L-8.977891983437088,19.613629669484403 L-8.977943300552583,19.603422055450483 L-8.977995511003366,19.6 " />
			<path d="M-8.977995511003366,19.6 L-8.978034717839893,19.60192610933112 L-8.978073547093155,19.60768588783871 L-8.978148584299776,19.630448186995487 L-8.978278353574419,19.71715728752538 L-8.978395510803367,20.0 L-8.978278353574419,20.28284271247462 L-8.978148584299776,20.369551813004513 L-8.978073547093155,20.39231411216129 L-8.978034717839893,20.39807389066888 L-8.977995511003366,20.4 " />
			<path d="M-8.977795511103366,20.346410161513774 L-8.977795511103366,19.653589838486226 " />
			<path d="M-8.977795511103366,22.546410161513652 L-8.977891983437088,22.586370330515596 L-8.977943300552583,22.596577944549516 L-8.977995511003366,22.599999999999998 " />
			<path d="M9.021742233045202,22.509614850270278 L9.021742233176333,21.8903850424688 " />
			<path d="M-8.977795511103366,21.853589838486347 L-8.977891983437088,21.813629669484403 L-8.977943300552583,21.803422055450483 L-8.977995511003366,21.8 " />
			<path d="M-8.977995511003366,21.8 L-8.978034717839893,21.80192610933112 L-8.978073547093155,21.80768588783871 L-8.978148584299776,21.830448186995486 L-8.978278353574419,21.91715728752538 L-8.978395510803367,22.2 L-8.978278353574419,22.482842712474618 L-8.978148584299776,22.569551813004512 L-8.978073547093155,22.59231411216129 L-8.978034717839893,22.59807389066888 L-8.977995511003366,22.599999999999998 " />
			<path d="M-8.977795511103366,22.546410161513776 L-8.977795511103366,21.85358983848622 " />
			<path d="M-8.991995504003372,12.5 L-8.992044512549032,12.497592363336098 L-8.992093049115606,12.490392640201616 L-8.992186845623884,12.461939766255643 L-8.992349057217188,12.353553390593273 L-8.992495503753371,12.0 L-8.992349057217188,11.646446609406727 L-8.992186845623884,11.538060233744357 L-8.992093049115606,11.509607359798386 L-8.992044512549032,11.502407636663902 L-8.991995504003372,11.5 " />
			<path d="M-8.991995504003372,11.5 L-8.99194649545771,11.502407636663902 L-8.991897958891137,11.509607359798384 L-8.99180416238286,11.538060233744357 L-8.991641950789555,11.646446609406727 L-8.991495504253372,12.0 L-8.991641950789555,12.353553390593273 L-8.99180416238286,12.461939766255643 L-8.991897958891137,12.490392640201614 L-8.99194649545771,12.497592363336098 L-8.991995504003372,12.5 " />
			<path d="M-9.001495499253375,-17.93782217350901 L-9.001495499253375,13.0 " />
			<path d="M-9.001495499253375,-17.937822173508977 L-8.999807233413225,-17.238519215976535 L-8.998909183892073,-17.05988597038333 L-8.998453322679074,-17.014987537329777 L-8.998224534468608,-17.00374788766544 L-8.997995501003373,-17.0 " />
			<path d="M-8.997995501003373,-17.0 L-8.997743235171285,-17.004547056385643 L-8.997491297072616,-17.0181823181935 L-8.996989712455086,-17.072634816575462 L-8.996004796840145,-17.289031890136435 L-8.994178486101776,-18.132259150969787 L-8.99159628550067,-21.162747808177773 L-8.991084247845839,-25.111094967614278 L-8.992808018657376,-28.699999999999953 " />
			<path d="M-8.983695508153367,-28.7 L-8.992808018657376,-28.7 " />
			<path d="M-8.983695508153367,-28.700000000000003 L-8.983479610494275,-28.69470000730276 L-8.983264232951555,-28.67881279735767 L-8.982837111165695,-28.615455233774213 L-8.982011701892864,-28.36506994304966 L-8.98058423987178,-27.41126983722081 L-8.979295510353365,-24.30000000000004 " />
			<path d="M-8.979295510353365,24.300000000000004 L-8.979295510353365,-24.3 " />
			<path d="M-8.979295510353365,24.3 L-8.97983346661597,26.408226801851825 " />
			<path d="M-8.981587282405629,28.16204346841844 L-8.981182789820892,26.92744919688378 L-8.980645093666606,26.537795964137366 L-8.980327529070701,26.434828051398153 L-8.980162430383357,26.40873083393114 L-8.980079084282664,26.40218419933489 L-8.979995510003366,26.4 " />
			<path d="M-8.979995510003366,26.4 L-8.979914383960075,26.40205802404513 L-8.97983346661597,26.408226801851807 " />
			<path d="M-8.981587282405629,28.162043468418435 L-8.982607618827206,28.5633901569667 L-8.983147291632154,28.6657139559672 L-8.983420864345058,28.691420123733078 L-8.983558119256758,28.69785450784957 L-8.983695508153367,28.700000000000003 " />
			<path d="M-9.016295491853379,28.700000000000003 L-8.983695508153367,28.700000000000003 " />
			<path d="M-9.01629549185338,28.700000000000003 L-9.016511389512473,28.69470000730276 L-9.016726767055193,28.67881279735767 L-9.017153888841053,28.615455233774213 L-9.017979298113884,28.36506994304966 L-9.019406760134968,27.41126983722081 L-9.020695489653383,24.30000000000001 " />
			<path d="M-9.020695489653383,-24.299999999999997 L-9.020695489653383,24.300000000000004 " />
			<path d="M-9.020695489653383,-24.3 L-9.019406760134968,-27.41126983722081 L-9.017979298113884,-28.36506994304966 L-9.017153888841053,-28.615455233774213 L-9.016726767055193,-28.678812797357665 L-9.016511389512473,-28.69470000730276 L-9.01629549185338,-28.700000000000003 " />
			<path d="M-9.00318298334937,-28.7 L-9.01629549185338,-28.7 " />
			<path d="M-9.00492370076955,-25.00000000000007 L-9.00318298334937,-28.699999999999974 " />
			<path d="M-9.01449549275338,-25.0 L-9.00492370076955,-25.0 " />
			<path d="M-9.01449549275338,13.0 L-9.01449549275338,-25.0 " />
			<path d="M-9.001495499253375,13.0 L-9.01449549275338,13.0 " />
			<path d="M-8.980195509903366,18.2 L-8.980234716739893,18.19807389066888 L-8.980273545993155,18.19231411216129 L-8.980348583199776,18.169551813004517 L-8.98047835247442,18.08284271247462 L-8.980595509703367,17.8 L-8.98047835247442,17.517157287525382 L-8.980348583199776,17.430448186995488 L-8.980273545993155,17.40768588783871 L-8.980234716739893,17.40192610933112 L-8.980195509903366,17.400000000000002 " />
			<path d="M-8.980195509903366,17.400000000000002 L-8.980156303066838,17.40192610933112 L-8.980117473813577,17.40768588783871 L-8.980042436606956,17.430448186995484 L-8.979912667332313,17.517157287525382 L-8.979795510103365,17.8 L-8.979912667332313,18.08284271247462 L-8.980042436606956,18.169551813004514 L-8.980117473813577,18.19231411216129 L-8.980156303066838,18.19807389066888 L-8.980195509903366,18.2 " />
			<path d="M-8.980195509903366,20.4 L-8.980234716739893,20.39807389066888 L-8.980273545993155,20.39231411216129 L-8.980348583199776,20.369551813004513 L-8.98047835247442,20.28284271247462 L-8.980595509703367,20.0 L-8.98047835247442,19.71715728752538 L-8.980348583199776,19.630448186995487 L-8.980273545993155,19.60768588783871 L-8.980234716739893,19.60192610933112 L-8.980195509903366,19.6 " />
			<path d="M-8.980195509903366,19.6 L-8.980156303066838,19.60192610933112 L-8.980117473813577,19.60768588783871 L-8.980042436606956,19.630448186995487 L-8.979912667332313,19.71715728752538 L-8.979795510103365,20.0 L-8.979912667332313,20.28284271247462 L-8.980042436606956,20.369551813004513 L-8.980117473813577,20.39231411216129 L-8.980156303066838,20.39807389066888 L-8.980195509903366,20.4 " />
			<path d="M-8.980195509903366,22.599999999999998 L-8.980234716739893,22.59807389066888 L-8.980273545993155,22.59231411216129 L-8.980348583199776,22.569551813004516 L-8.98047835247442,22.482842712474618 L-8.980595509703367,22.2 L-8.98047835247442,21.91715728752538 L-8.980348583199776,21.830448186995486 L-8.980273545993155,21.80768588783871 L-8.980234716739893,21.80192610933112 L-8.980195509903366,21.8 " />
			<path d="M-8.980195509903366,21.8 L-8.980156303066838,21.80192610933112 L-8.980117473813577,21.80768588783871 L-8.980042436606956,21.830448186995483 L-8.979912667332313,21.91715728752538 L-8.979795510103365,22.2 L-8.979912667332313,22.482842712474618 L-8.980042436606956,22.569551813004512 L-8.980117473813577,22.59231411216129 L-8.980156303066838,22.59807389066888 L-8.980195509903366,22.599999999999998 " />
			<path d="M-8.993595503203371,-11.350000000000001 L-8.993551395512277,-11.352166872997513 L-8.993507712602359,-11.358646623818547 L-8.993423295744911,-11.384254210369921 L-8.993277305310936,-11.481801948466055 L-8.993145503428371,-11.8 L-8.993277305310936,-12.118198051533946 L-8.993423295744911,-12.21574578963008 L-8.993507712602359,-12.241353376181454 L-8.993551395512277,-12.247833127002488 L-8.993595503203371,-12.25 " />
			<path d="M-8.993595503203371,-12.25 L-8.993639610894466,-12.247833127002488 L-8.993683293804384,-12.241353376181454 L-8.993767710661832,-12.21574578963008 L-8.993913701095806,-12.118198051533946 L-8.994045502978372,-11.8 L-8.993913701095806,-11.481801948466055 L-8.993767710661832,-11.384254210369921 L-8.993683293804384,-11.358646623818547 L-8.993639610894466,-11.352166872997513 L-8.993595503203371,-11.350000000000001 " />
			<path d="M-8.993595503203371,-8.950000000000001 L-8.993551395512277,-8.952166872997513 L-8.993507712602359,-8.958646623818547 L-8.993423295744911,-8.98425421036992 L-8.993277305310936,-9.081801948466055 L-8.993145503428371,-9.4 L-8.993277305310936,-9.718198051533946 L-8.993423295744911,-9.81574578963008 L-8.993507712602359,-9.841353376181454 L-8.993551395512277,-9.847833127002488 L-8.993595503203371,-9.85 " />
			<path d="M-8.993595503203371,-9.85 L-8.993639610894466,-9.847833127002488 L-8.993683293804384,-9.841353376181454 L-8.993767710661832,-9.81574578963008 L-8.993913701095806,-9.718198051533946 L-8.994045502978372,-9.4 L-8.993913701095806,-9.081801948466055 L-8.993767710661832,-8.98425421036992 L-8.993683293804384,-8.958646623818547 L-8.993639610894466,-8.952166872997513 L-8.993595503203371,-8.950000000000001 " />
			<path d="M-8.993595503203371,-6.55 L-8.993551395512277,-6.552166872997511 L-8.993507712602359,-6.558646623818547 L-8.993423295744911,-6.584254210369921 L-8.993277305310936,-6.681801948466053 L-8.993145503428371,-7.0 L-8.993277305310936,-7.318198051533946 L-8.993423295744911,-7.415745789630079 L-8.993507712602359,-7.441353376181453 L-8.993551395512277,-7.447833127002489 L-8.993595503203371,-7.45 " />
			<path d="M-8.993595503203371,-7.45 L-8.993639610894466,-7.447833127002489 L-8.993683293804384,-7.441353376181453 L-8.993767710661832,-7.415745789630079 L-8.993913701095806,-7.318198051533947 L-8.994045502978372,-7.0 L-8.993913701095806,-6.681801948466053 L-8.993767710661832,-6.584254210369921 L-8.993683293804384,-6.558646623818547 L-8.993639610894466,-6.552166872997511 L-8.993595503203371,-6.55 " />
			<path d="M-8.993595503203371,-4.15 L-8.993551395512277,-4.152166872997512 L-8.993507712602359,-4.158646623818547 L-8.993423295744911,-4.184254210369922 L-8.993277305310936,-4.281801948466054 L-8.993145503428371,-4.6000000000000005 L-8.993277305310936,-4.918198051533946 L-8.993423295744911,-5.015745789630079 L-8.993507712602359,-5.041353376181454 L-8.993551395512277,-5.047833127002489 L-8.993595503203371,-5.050000000000001 " />
			<path d="M-8.993595503203371,-5.050000000000001 L-8.993639610894466,-5.047833127002489 L-8.993683293804384,-5.041353376181454 L-8.993767710661832,-5.015745789630079 L-8.993913701095806,-4.918198051533947 L-8.994045502978372,-4.6000000000000005 L-8.993913701095806,-4.281801948466054 L-8.993767710661832,-4.184254210369922 L-8.993683293804384,-4.158646623818547 L-8.993639610894466,-4.152166872997512 L-8.993595503203371,-4.15 " />
			<path d="M-8.993595503203371,-1.7499999999999993 L-8.993551395512277,-1.7521668729975106 L-8.993507712602359,-1.7586466238185456 L-8.993423295744911,-1.7842542103699202 L-8.993277305310936,-1.8818019484660529 L-8.993145503428371,-2.1999999999999993 L-8.993277305310936,-2.5181980515339455 L-8.993423295744911,-2.615745789630078 L-8.993507712602359,-2.6413533761814527 L-8.993551395512277,-2.647833127002488 L-8.993595503203371,-2.6499999999999995 " />
			<path d="M-8.993595503203371,-2.6499999999999995 L-8.993639610894466,-2.647833127002488 L-8.993683293804384,-2.641353376181453 L-8.993767710661832,-2.6157457896300786 L-8.993913701095806,-2.518198051533946 L-8.994045502978372,-2.1999999999999997 L-8.993913701095806,-1.8818019484660529 L-8.993767710661832,-1.7842542103699204 L-8.993683293804384,-1.7586466238185456 L-8.993639610894466,-1.7521668729975106 L-8.993595503203371,-1.7499999999999993 " />
			<path d="M-8.995995502003373,-11.350000000000001 L-8.995951394312279,-11.352166872997513 L-8.99590771140236,-11.358646623818547 L-8.995823294544913,-11.384254210369921 L-8.995677304110938,-11.481801948466055 L-8.995545502228373,-11.8 L-8.995677304110938,-12.118198051533946 L-8.995823294544913,-12.21574578963008 L-8.99590771140236,-12.241353376181454 L-8.995951394312279,-12.247833127002488 L-8.995995502003373,-12.25 " />
			<path d="M-8.995995502003373,-12.25 L-8.996039609694467,-12.247833127002488 L-8.996083292604386,-12.241353376181454 L-8.996167709461833,-12.21574578963008 L-8.996313699895808,-12.118198051533946 L-8.996445501778373,-11.8 L-8.996313699895808,-11.481801948466055 L-8.996167709461833,-11.384254210369921 L-8.996083292604386,-11.358646623818547 L-8.996039609694467,-11.352166872997513 L-8.995995502003373,-11.350000000000001 " />
			<path d="M-8.995995502003373,-8.950000000000001 L-8.995951394312279,-8.952166872997513 L-8.99590771140236,-8.958646623818547 L-8.995823294544913,-8.98425421036992 L-8.995677304110938,-9.081801948466055 L-8.995545502228373,-9.4 L-8.995677304110938,-9.718198051533946 L-8.995823294544913,-9.81574578963008 L-8.99590771140236,-9.841353376181454 L-8.995951394312279,-9.847833127002488 L-8.995995502003373,-9.85 " />
			<path d="M-8.995995502003373,-9.85 L-8.996039609694467,-9.847833127002488 L-8.996083292604386,-9.841353376181454 L-8.996167709461833,-9.81574578963008 L-8.996313699895808,-9.718198051533946 L-8.996445501778373,-9.4 L-8.996313699895808,-9.081801948466055 L-8.996167709461833,-8.98425421036992 L-8.996083292604386,-8.958646623818547 L-8.996039609694467,-8.952166872997513 L-8.995995502003373,-8.950000000000001 " />
			<path d="M-8.995995502003373,-6.55 L-8.995951394312279,-6.552166872997511 L-8.99590771140236,-6.558646623818547 L-8.995823294544913,-6.584254210369921 L-8.995677304110938,-6.681801948466053 L-8.995545502228373,-7.0 L-8.995677304110938,-7.318198051533946 L-8.995823294544913,-7.415745789630079 L-8.99590771140236,-7.441353376181453 L-8.995951394312279,-7.447833127002489 L-8.995995502003373,-7.45 " />
			<path d="M-8.995995502003373,-7.45 L-8.996039609694467,-7.447833127002489 L-8.996083292604386,-7.441353376181453 L-8.996167709461833,-7.415745789630079 L-8.996313699895808,-7.318198051533947 L-8.996445501778373,-7.0 L-8.996313699895808,-6.681801948466053 L-8.996167709461833,-6.584254210369921 L-8.996083292604386,-6.558646623818547 L-8.996039609694467,-6.552166872997511 L-8.995995502003373,-6.55 " />
			<path d="M-8.995995502003373,-4.15 L-8.995951394312279,-4.152166872997512 L-8.99590771140236,-4.158646623818547 L-8.995823294544913,-4.184254210369922 L-8.995677304110938,-4.281801948466054 L-8.995545502228373,-4.6000000000000005 L-8.995677304110938,-4.918198051533946 L-8.995823294544913,-5.015745789630079 L-8.99590771140236,-5.041353376181454 L-8.995951394312279,-5.047833127002489 L-8.995995502003373,-5.050000000000001 " />
			<path d="M-8.995995502003373,-5.050000000000001 L-8.996039609694467,-5.047833127002489 L-8.996083292604386,-5.041353376181454 L-8.996167709461833,-5.015745789630079 L-8.996313699895808,-4.918198051533947 L-8.996445501778373,-4.6000000000000005 L-8.996313699895808,-4.281801948466054 L-8.996167709461833,-4.184254210369922 L-8.996083292604386,-4.158646623818547 L-8.996039609694467,-4.152166872997512 L-8.995995502003373,-4.15 " />
			<path d="M-8.998395500803374,-11.350000000000001 L-8.99835139311228,-11.352166872997513 L-8.998307710202361,-11.358646623818547 L-8.998223293344914,-11.384254210369921 L-8.99807730291094,-11.481801948466055 L-8.997945501028374,-11.8 L-8.99807730291094,-12.118198051533946 L-8.998223293344914,-12.21574578963008 L-8.998307710202361,-12.241353376181454 L-8.99835139311228,-12.247833127002488 L-8.998395500803374,-12.25 " />
			<path d="M-8.998395500803374,-12.25 L-8.998439608494468,-12.247833127002488 L-8.998483291404387,-12.241353376181454 L-8.998567708261834,-12.21574578963008 L-8.99871369869581,-12.118198051533946 L-8.998845500578375,-11.8 L-8.99871369869581,-11.481801948466055 L-8.998567708261834,-11.384254210369921 L-8.998483291404387,-11.358646623818547 L-8.998439608494468,-11.352166872997513 L-8.998395500803374,-11.350000000000001 " />
			<path d="M-8.998395500803374,-8.950000000000001 L-8.99835139311228,-8.952166872997513 L-8.998307710202361,-8.958646623818547 L-8.998223293344914,-8.98425421036992 L-8.99807730291094,-9.081801948466055 L-8.997945501028374,-9.4 L-8.99807730291094,-9.718198051533946 L-8.998223293344914,-9.81574578963008 L-8.998307710202361,-9.841353376181454 L-8.99835139311228,-9.847833127002488 L-8.998395500803374,-9.85 " />
			<path d="M-8.998395500803374,-9.85 L-8.998439608494468,-9.847833127002488 L-8.998483291404387,-9.841353376181454 L-8.998567708261834,-9.81574578963008 L-8.99871369869581,-9.718198051533946 L-8.998845500578375,-9.4 L-8.99871369869581,-9.081801948466055 L-8.998567708261834,-8.98425421036992 L-8.998483291404387,-8.958646623818547 L-8.998439608494468,-8.952166872997513 L-8.998395500803374,-8.950000000000001 " />
			<path d="M-8.998395500803374,-6.55 L-8.99835139311228,-6.552166872997511 L-8.998307710202361,-6.558646623818547 L-8.998223293344914,-6.584254210369921 L-8.99807730291094,-6.681801948466053 L-8.997945501028374,-7.0 L-8.99807730291094,-7.318198051533946 L-8.998223293344914,-7.415745789630079 L-8.998307710202361,-7.441353376181453 L-8.99835139311228,-7.447833127002489 L-8.998395500803374,-7.45 " />
			<path d="M-8.998395500803374,-7.45 L-8.998439608494468,-7.447833127002489 L-8.998483291404387,-7.441353376181453 L-8.998567708261834,-7.415745789630079 L-8.99871369869581,-7.318198051533947 L-8.998845500578375,-7.0 L-8.99871369869581,-6.681801948466053 L-8.998567708261834,-6.584254210369921 L-8.998483291404387,-6.558646623818547 L-8.998439608494468,-6.552166872997511 L-8.998395500803374,-6.55 " />
			<path d="M-8.998395500803374,-4.15 L-8.99835139311228,-4.152166872997512 L-8.998307710202361,-4.158646623818547 L-8.998223293344914,-4.184254210369922 L-8.99807730291094,-4.281801948466054 L-8.997945501028374,-4.6000000000000005 L-8.99807730291094,-4.918198051533946 L-8.998223293344914,-5.015745789630079 L-8.998307710202361,-5.041353376181454 L-8.99835139311228,-5.047833127002489 L-8.998395500803374,-5.050000000000001 " />
			<path d="M-8.998395500803374,-5.050000000000001 L-8.998439608494468,-5.047833127002489 L-8.998483291404387,-5.041353376181454 L-8.998567708261834,-5.015745789630079 L-8.99871369869581,-4.918198051533947 L-8.998845500578375,-4.6000000000000005 L-8.99871369869581,-4.281801948466054 L-8.998567708261834,-4.184254210369922 L-8.998483291404387,-4.158646623818547 L-8.998439608494468,-4.152166872997512 L-8.998395500803374,-4.15 " />
			<path d="M-8.995995502003373,-1.7499999999999993 L-8.995951394312279,-1.7521668729975106 L-8.99590771140236,-1.7586466238185456 L-8.995823294544913,-1.7842542103699202 L-8.995677304110938,-1.8818019484660529 L-8.995545502228373,-2.1999999999999993 L-8.995677304110938,-2.5181980515339455 L-8.995823294544913,-2.615745789630078 L-8.99590771140236,-2.6413533761814527 L-8.995951394312279,-2.647833127002488 L-8.995995502003373,-2.6499999999999995 " />
			<path d="M-8.995995502003373,-2.6499999999999995 L-8.996039609694467,-2.647833127002488 L-8.996083292604386,-2.641353376181453 L-8.996167709461833,-2.6157457896300786 L-8.996313699895808,-2.518198051533946 L-8.996445501778373,-2.1999999999999997 L-8.996313699895808,-1.8818019484660529 L-8.996167709461833,-1.7842542103699204 L-8.996083292604386,-1.7586466238185456 L-8.996039609694467,-1.7521668729975106 L-8.995995502003373,-1.7499999999999993 " />
			<path d="M-8.998395500803374,-1.7499999999999993 L-8.99835139311228,-1.7521668729975106 L-8.998307710202361,-1.7586466238185456 L-8.998223293344914,-1.7842542103699202 L-8.99807730291094,-1.8818019484660529 L-8.997945501028374,-2.1999999999999993 L-8.99807730291094,-2.5181980515339455 L-8.998223293344914,-2.615745789630078 L-8.998307710202361,-2.6413533761814527 L-8.99835139311228,-2.647833127002488 L-8.998395500803374,-2.6499999999999995 " />
			<path d="M-8.998395500803374,-2.6499999999999995 L-8.998439608494468,-2.647833127002488 L-8.998483291404387,-2.641353376181453 L-8.998567708261834,-2.6157457896300786 L-8.99871369869581,-2.518198051533946 L-8.998845500578375,-2.1999999999999997 L-8.99871369869581,-1.8818019484660529 L-8.998567708261834,-1.7842542103699204 L-8.998483291404387,-1.7586466238185456 L-8.998439608494468,-1.7521668729975106 L-8.998395500803374,-1.7499999999999993 " />
			<path d="M-9.01449549275338,13.0 L-9.001495499253375,13.0 " />
			<path d="M-8.991067301237196,-25.0 L-9.00492370076955,-25.0 " />
			<path d="M-8.983495508253368,-29.5 L-8.993665376149513,-29.5 " />
			<path d="M-8.983495508253368,-29.5 L-8.983372802172106,-29.49849409348102 L-8.9832501700044,-29.493977281025863 L-8.983005422796763,-29.475923633360985 L-8.982520057131012,-29.403926402016154 L-8.98158209204825,-29.119397662556434 L-8.9799599761152,-28.035533905932738 L-8.978495510753365,-24.500000000000046 " />
			<path d="M-8.978495510753365,24.5 L-8.978495510753365,-24.5 " />
			<path d="M-8.978495510753365,24.5 L-8.979020891795798,26.73109559083644 " />
			<path d="M-8.978693740633076,28.97461869487782 L-8.981264413778078,28.97461869487782 " />
			<path d="M-8.981264413778078,28.97461869487781 L-8.982349448940177,29.366882650855118 L-8.982918626081629,29.46660916794726 L-8.983206584393752,29.4916453119055 L-8.983350985939003,29.497910891538957 L-8.983495508253368,29.5 " />
			<path d="M-9.01649549175338,29.5 L-8.983495508253368,29.5 " />
			<path d="M-9.01649549175338,29.5 L-9.016618197834642,29.49849409348102 L-9.016740830002348,29.493977281025863 L-9.016985577209985,29.475923633360985 L-9.017470942875736,29.403926402016154 L-9.018408907958499,29.119397662556434 L-9.020031023891548,28.035533905932738 L-9.021495489253383,24.50000000000001 " />
			<path d="M-9.021495489253383,-24.5 L-9.021495489253383,24.5 " />
			<path d="M-9.021495489253383,-24.5 L-9.020031023891548,-28.035533905932738 L-9.018408907958499,-29.119397662556434 L-9.017470942875736,-29.403926402016154 L-9.016985577209985,-29.475923633360985 L-9.016740830002348,-29.493977281025863 L-9.016618197834642,-29.49849409348102 L-9.01649549175338,-29.5 " />
			<path d="M-8.993665376149513,-29.5 L-9.002325625857234,-29.5 " />
			<path d="M-9.002325625857234,-29.5 L-9.01649549175338,-29.5 " />
			<path d="M-9.002325625857234,-29.5 L-9.00124511474042,-30.199999999999964 " />
			<path d="M-9.00124511474042,-30.2 L-8.999334471066252,-30.298023844393917 L-8.994439010980297,-30.389438123788533 L-8.987190121557928,-30.47428659351455 L-8.97816546743546,-30.55261939435217 L-8.956855994144917,-30.689951472506564 L-8.934201723996688,-30.801849525278573 L-8.91323178995607,-30.888653566043025 L-8.896358300069044,-30.95054668101164 L-8.885346987880833,-30.987640077370706 L-8.882404445930497,-30.996909904304932 L-8.881277132362293,-31.0 " />
			<path d="M-8.88127713236229,-31.0 L-8.881988501946637,-30.996909915703814 L-8.884515387418483,-30.98764011129338 L-8.894697073361229,-30.950546762308246 L-8.930894139186265,-30.80185005214672 L-8.952735399299469,-30.689952253635777 L-8.973240713211272,-30.552619813377923 L-8.98186710511093,-30.474286669345634 L-8.988720609178966,-30.389437902662586 L-8.993223872609342,-30.298023539449257 L-8.994745887266326,-30.200000000000006 " />
			<path d="M-8.993665376149513,-29.5 L-8.994745887266326,-30.19999999999995 " />
			<path d="M-8.978556761265747,28.700000000000003 L-8.98369550815337,28.700000000000003 " />
			<path d="M-8.978403737601104,28.16204346841846 L-8.98158728240563,28.16204346841846 " />
			<path d="M-8.978873966398744,26.408226801851814 L-8.979833466615972,26.408226801851814 " />
			<path d="M-8.980782577616583,-28.700000000000003 L-8.98369550815337,-28.700000000000003 " />
			<path d="M-8.994495502753372,-17.93782217350893 L-9.001495499253375,-17.93782217350893 " />
			<path d="M-6.181496909252319,-33.0 L-6.318886328674396,-32.99662727737448 L-6.4559447649511945,-32.986517234682154 L-6.592342032304822,-32.969694227901385 L-6.727749537771232,-32.94619878512904 L-6.861841072809461,-32.91608750894472 L-6.99429359916657,-32.87943294005019 L-7.124788027105093,-32.83632338251246 L-7.253009984118166,-32.7868626910316 L-7.378650572280427,-32.73117002074564 L-7.501407112410176,-32.66937954017539 L-7.620983873250037,-32.60164010800076 L-7.737092783909461,-32.52811491444713 L-7.84945412785273,-32.44898108814581 L-7.957797216760594,-32.364429269415666 L-8.061861042642139,-32.27466315099389 L-8.161394906625901,-32.17989898732233 L-8.256159022915407,-32.08036507357165 L-8.34592509645416,-31.976301195658206 L-8.430476872908425,-31.86795805257881 L-8.509610659642862,-31.755596652454884 L-8.583135816433927,-31.63948768374102 L-8.650875214738868,-31.519910863112795 L-8.712665664413898,-31.39715426160479 L-8.768358306853546,-31.271513610622254 L-8.817818973604073,-31.14329158949822 L-8.860928509587037,-31.012797096312497 L-8.897583060154306,-30.88034450372914 L-8.927694321283001,-30.74625290164516 L-8.95118975230763,-30.610845328475012 L-8.968012750676898,-30.47444799292277 L-8.978122788314211,-30.33738948811677 L-8.981495509253369,-30.200000000000024 " />
			<path d="M-8.978647662988399,28.862152311108495 L-8.979020891795798,26.73109559083648 " />
			<path d="M-8.981264413778078,28.974618694877822 L-8.980702832096753,29.435163738359584 L-8.980358647549544,29.558246126479276 L-8.980178275058597,29.58952725713761 L-8.980087042434295,29.59737966861673 L-8.979995510003366,29.6 " />
			<path d="M-8.979995510003366,29.6 L-8.979881792884399,29.595953759957446 L-8.979768650923884,29.583835504902883 L-8.979546375672497,29.535668633238707 L-8.979133358123335,29.347847688891548 " />
			<path d="M6.181496909252318,33.0 L6.1814978939557435,32.99999999999983 " />
			<path d="M-6.218496890752332,-33.0 L-6.35588631017441,-32.99662727737448 L-6.492944746451208,-32.986517234682154 L-6.629342013804836,-32.969694227901385 L-6.764749519271246,-32.94619878512904 L-6.898841054309474,-32.91608750894472 L-7.031293580666583,-32.87943294005019 L-7.1617880086051064,-32.83632338251246 L-7.29000996561818,-32.7868626910316 L-7.4156505537804405,-32.73117002074564 L-7.538407093910189,-32.66937954017539 L-7.65798385475005,-32.60164010800076 L-7.774092765409475,-32.52811491444713 L-7.886454109352743,-32.44898108814581 L-7.994797198260607,-32.364429269415666 L-8.098861024142153,-32.27466315099389 L-8.198394888125915,-32.17989898732233 L-8.29315900441542,-32.08036507357165 L-8.382925077954173,-31.976301195658206 L-8.467476854408439,-31.86795805257881 L-8.546610641142875,-31.755596652454884 L-8.62013579793394,-31.63948768374102 L-8.687875196238881,-31.519910863112795 L-8.749665645913911,-31.39715426160479 L-8.80535828835356,-31.271513610622254 L-8.854818955104086,-31.14329158949822 L-8.89792849108705,-31.012797096312497 L-8.934583041654319,-30.88034450372914 L-8.964694302783014,-30.74625290164516 L-8.988189733807644,-30.610845328475012 L-9.005012732176912,-30.47444799292277 L-9.015122769814225,-30.33738948811677 L-9.018495490753383,-30.200000000000024 " />
			<path d="M-9.022195488903382,26.5 L-9.022195681760365,26.5 L-9.022195860331651,26.5 L-9.022196024617239,26.5 L-9.022196174617124,26.5 L-9.02219631033131,26.5 L-9.022196431759792,26.5 L-9.022196538902573,26.5 L-9.022196631759652,26.5 L-9.022196710331025,26.5 L-9.022196774616697,26.5 L-9.022196824616662,26.5 L-9.022196860330924,26.5 L-9.022196881759482,26.5 L-9.022196888902334,26.5 " />
			<path d="M-9.022196888902334,26.5 L-9.02219688175948,26.5 L-9.022196860330924,26.5 L-9.022196824616662,26.5 L-9.022196774616695,26.5 L-9.022196710331025,26.5 L-9.022196631759652,26.5 L-9.022196538902575,26.5 L-9.022196431759795,26.5 L-9.022196310331312,26.5 L-9.022196174617127,26.5 L-9.022196024617239,26.5 L-9.022195860331653,26.5 L-9.022195681760367,26.5 L-9.022195488903382,26.5 " />
			<path d="M-9.022195488903382,26.5 L-9.021111784535625,29.116295090390224 L-9.019911418745167,29.91835427029176 L-9.019217324583924,30.128905537491953 L-9.01885815399127,30.18218348868713 L-9.018677041057616,30.19554318795914 L-9.01849549075338,30.2 " />
			<path d="M-9.01849549075338,30.2 L-8.981495509253367,30.2 " />
			<path d="M-6.181496909252319,33.0 L-6.318886328674396,32.99662727737448 L-6.4559447649511945,32.986517234682154 L-6.592342032304822,32.969694227901385 L-6.727749537771232,32.94619878512904 L-6.861841072809461,32.91608750894472 L-6.99429359916657,32.87943294005019 L-7.124788027105093,32.83632338251246 L-7.253009984118166,32.7868626910316 L-7.378650572280427,32.73117002074564 L-7.501407112410176,32.66937954017539 L-7.620983873250037,32.60164010800076 L-7.737092783909461,32.52811491444713 L-7.84945412785273,32.44898108814581 L-7.957797216760594,32.364429269415666 L-8.061861042642139,32.27466315099389 L-8.161394906625901,32.17989898732233 L-8.256159022915407,32.08036507357165 L-8.34592509645416,31.976301195658206 L-8.430476872908425,31.86795805257881 L-8.509610659642862,31.755596652454884 L-8.583135816433927,31.63948768374102 L-8.650875214738868,31.519910863112795 L-8.712665664413898,31.39715426160479 L-8.768358306853546,31.271513610622254 L-8.817818973604073,31.14329158949822 L-8.860928509587037,31.012797096312497 L-8.897583060154306,30.88034450372914 L-8.927694321283001,30.74625290164516 L-8.95118975230763,30.610845328475012 L-8.968012750676898,30.47444799292277 L-8.978122788314211,30.33738948811677 L-8.981495509253369,30.200000000000024 " />
			<path d="M-8.981495509253367,30.2 L-8.981335431837687,30.196535566630523 L-8.98117565419365,30.186148754251047 L-8.9808581939399,30.144698723495424 L-8.980239929626633,29.980447991918474 L-8.979133358123335,29.34784768889154 " />
			<path d="M-8.978647662988399,28.86215231110849 L-8.977795511103366,26.500000000000032 " />
			<path d="M-6.174996912502316,26.5 L-6.488514894644925,26.5 L-6.798125417861712,26.5 L-7.099934950183017,26.5 L-7.390148061625929,26.5 L-7.665115153928485,26.5 L-7.921378356365355,26.5 L-8.155715010478524,26.5 L-8.365178196877226,26.5 L-8.547133794459123,26.5 L-8.69929360601153,26.5 L-8.81974413361899,26.5 L-8.906970642009819,26.5 L-8.959876207231005,26.5 L-8.977795511103366,26.5 " />
			<path d="M-6.17538967369089,28.72522729151322 L-6.174996912502316,26.50000000000006 " />
			<path d="M-6.181496909252318,33.0 L-6.181323482246911,32.997685976077825 L-6.181150178722807,32.99074555191337 L-6.180804435516277,32.963008559902526 L-6.180119843503536,32.852455275499494 L-6.178805294304453,32.41651939299118 L-6.176596911702316,30.770831300812542 " />
			<path d="M-3.476086238306221,30.1 L-3.4765982617013034,30.1 " />
			<path d="M6.224996887502334,26.5 L-6.174996912502316,26.5 " />
			<path d="M6.2184968907523315,33.0 L6.218656408657972,32.998042321525325 L6.2188158304759895,32.99217046533362 L6.2191340018459185,32.96870072336928 L6.219764977211393,32.875104322621 L6.220984331818984,32.50521696132336 L6.223093082531949,31.09619407771256 L6.224996887502334,26.50000000000006 " />
			<path d="M9.01849549075338,30.2 L9.018655568169061,30.196535566630523 L9.018815345813097,30.186148754251047 L9.019132806066848,30.144698723495424 L9.019751070380115,29.980447991918474 L9.020857641883413,29.34784768889154 " />
			<path d="M9.02134333701835,28.86215231110849 L9.022195488903382,26.500000000000032 " />
			<path d="M6.224996887502334,26.5 L6.538280937347793,26.5 L6.84759510102429,26.5 L7.149054519342371,26.5 L7.438872985496693,26.5 L7.713410498272533,26.5 L7.96921897896997,26.5 L8.203085577859893,26.5 L8.412073026260503,26.5 L8.593556527428744,26.5 L8.745256722932172,26.5 L8.865268320457188,26.5 L8.952084023499983,26.5 L9.004613462393209,26.5 L9.022196888902332,26.5 " />
			<path d="M9.022196888902332,26.5 L9.02219688175948,26.5 L9.022196860330924,26.5 L9.022196824616662,26.5 L9.022196774616695,26.5 L9.022196710331025,26.5 L9.02219663175965,26.5 L9.022196538902575,26.5 L9.022196431759793,26.5 L9.022196310331312,26.5 L9.022196174617127,26.5 L9.022196024617237,26.5 L9.022195860331651,26.5 L9.022195681760367,26.5 L9.022195488903382,26.5 " />
			<path d="M6.224996887502335,26.5 L6.224996887502335,-26.5 " />
			<path d="M9.022195488903382,26.5 L9.022195488903382,22.546410161513286 " />
			<path d="M9.022195488903382,21.853589838486712 L9.022195488903382,20.34641016151329 " />
			<path d="M9.022195488903382,19.65358983848671 L9.022195488903382,18.146410161513842 " />
			<path d="M9.022195488903382,17.45358983848616 L9.022195488903382,-10.360858673252459 " />
			<path d="M6.224996887502335,-26.5 L6.417620164550524,-26.5 L6.609317416205074,-26.5 L6.799180273069688,-26.5 L6.986309058142318,-26.5 L7.169817049990815,-26.5 L7.348834684537801,-26.5 L7.5225136755443405,-26.5 L7.690031034267255,-26.5 L7.8505929692426655,-26.5 L8.00343864771641,-26.5 L8.14784380089755,-26.5 L8.283124155951263,-26.5 L8.408638678468394,-26.5 L8.523792610047026,-26.5 " />
			<path d="M6.224996887502334,-26.5 L6.223093082531949,-31.096194077712557 L6.220984331818984,-32.50521696132336 L6.219764977211393,-32.875104322621 L6.2191340018459185,-32.96870072336928 L6.2188158304759895,-32.99217046533362 L6.218656408657972,-32.998042321525325 L6.2184968907523315,-33.0 " />
			<path d="M-9.020690941850823,24.5 L-9.021495489253383,24.5 " />
			<path d="M-9.020690941850823,-24.5 L-9.021495489253383,-24.5 " />
			<path d="M-8.978495510753365,24.3 L-8.979295510353367,24.3 " />
			<path d="M-8.978495510753365,-24.3 L-8.979295510353367,-24.3 " />
			<path d="M6.181496909252318,33.0 L6.1814978939557435,32.99999999999983 " />
			<path d="M6.224996887502336,-26.5 L-6.174996912502316,-26.5 " />
			<path d="M-6.1749969125023165,26.5 L-6.1749969125023165,-26.5 " />
			<path d="M-8.977795511103366,26.5 L-8.977795511103366,22.546410161513286 " />
			<path d="M-8.977795511103366,21.853589838486712 L-8.977795511103366,20.34641016151329 " />
			<path d="M-8.977795511103366,19.65358983848671 L-8.977795511103366,18.146410161513842 " />
			<path d="M-8.977795511103366,17.45358983848616 L-8.977795511103366,-26.5 " />
			<path d="M-6.1749969125023165,-26.5 L-6.488514894644926,-26.5 L-6.798125417861712,-26.5 L-7.099934950183018,-26.5 L-7.390148061625929,-26.5 L-7.665115153928485,-26.5 L-7.921378356365357,-26.5 L-8.155715010478525,-26.5 L-8.365178196877226,-26.5 L-8.547133794459125,-26.5 L-8.69929360601153,-26.5 L-8.81974413361899,-26.5 L-8.90697064200982,-26.5 L-8.959876207231007,-26.5 L-8.977795511103366,-26.5 " />
			<path d="M-6.174996912502316,-26.5 L-6.176900717472701,-31.096194077712557 L-6.179009468185665,-32.50521696132336 L-6.180228822793256,-32.875104322621 L-6.180859798158731,-32.96870072336928 L-6.18117796952866,-32.99217046533362 L-6.181337391346678,-32.998042321525325 L-6.181496909252318,-33.0 " />
			<path d="M-8.977795511103366,-26.5 L-8.978879215471123,-29.116295090390224 L-8.980079581261581,-29.91835427029176 L-8.980773675422824,-30.128905537491953 L-8.981132846015479,-30.18218348868713 L-8.981313958949132,-30.19554318795914 L-8.981495509253367,-30.2 " />
			<path d="M-8.981495509253367,-30.2 L-8.994745887266326,-30.2 " />
			<path d="M-9.00124511474042,-30.2 L-9.01849549075338,-30.2 " />
			<path d="M-9.01849549075338,-30.2 L-9.018677041057616,-30.19554318795914 L-9.01885815399127,-30.18218348868713 L-9.019217324583924,-30.128905537491953 L-9.019911418745167,-29.91835427029176 L-9.021111784535625,-29.116295090390224 L-9.022195488903382,-26.500000000000007 " />
			<path d="M-9.022195488903382,-26.5 L-9.022195488903382,26.5 " />
			<path d="M-9.022196888902332,-26.5 L-9.02219688175948,-26.5 L-9.022196860330924,-26.5 L-9.022196824616662,-26.5 L-9.022196774616695,-26.5 L-9.022196710331025,-26.5 L-9.02219663175965,-26.5 L-9.022196538902575,-26.5 L-9.022196431759793,-26.5 L-9.022196310331312,-26.5 L-9.022196174617127,-26.5 L-9.022196024617237,-26.5 L-9.022195860331651,-26.5 L-9.022195681760367,-26.5 L-9.022195488903382,-26.5 " />
			<path d="M-9.022196888902332,26.5 L-9.02151270882854,28.644552230095815 L-9.021160050866234,29.069923353379316 L-9.02077074458348,29.420628234988957 L-9.020385545988695,29.6840191629095 L-9.019721729176048,29.99535527236591 L-9.01884720921069,30.196168708130553 L-9.017575045069048,30.274919604144298 L-9.01195764252324,30.391489508185177 L-9.005325922327543,30.471617374443905 L-8.996111266844752,30.553342132476583 " />
			<path d="M-8.991378886947391,30.58873866067413 L-8.981914781642773,30.65120303161672 L-8.954129984915014,30.79695681222882 L-8.918646527976254,30.94109946722696 L-8.875568066993226,31.083177645177322 L-8.825016605146356,31.22278030675525 L-8.769428892513355,31.35445518269084 L-8.707193683046825,31.483123586968595 L-8.638473241623526,31.608449447666512 L-8.563446690245891,31.730105792560497 L-8.488765083841407,31.838869721831276 L-8.409042777602112,31.94399509744753 L-8.324456779741247,32.0452484487722 L-8.23519489817023,32.14240492751015 L-8.169246886604814,32.208626760773015 L-8.101125554574104,32.27261083352599 L-8.030906858620716,32.334285936795055 L-7.958669546665496,32.39358400915276 L-7.83910309349246,32.48334198362188 L-7.714903611283095,32.566595112368574 L-7.586434995910891,32.64310140534429 L-7.45406865072147,32.71264037559415 L-7.318183478378294,32.77501302896476 L-7.179165874889887,32.83004185656546 L-7.037409725388321,32.87757082944 L-6.89331640127619,32.9174653949655 " />
			<path d="M-6.529091827146026,32.982720016282165 L-6.451648955528174,32.990276684870935 L-6.374027708197236,32.995678353825966 L-6.29628964910549,32.99892045641299 L-6.218496890752347,33.0 " />
			<path d="M9.021323892537378,28.888241098115383 L9.022196888902332,26.500000000000004 " />
			<path d="M9.020885396798223,29.327435237804938 L9.018850071803852,30.195820729363465 L9.016633742248034,30.30367289760469 L9.012906484332325,30.377103516205626 L9.005533835075099,30.46947191389301 L8.99466808805947,30.564479512030292 L8.982151866035956,30.649748825688842 L8.954443891233803,30.795516571211873 L8.91903625064841,30.93967812681744 L8.876032437875853,31.081779376126985 L8.825554253144855,31.22140909030298 L8.770035811780415,31.353113183991375 L8.707868288704288,31.481814313545463 L8.63921377313114,31.607176315937625 L8.564251215627579,31.728872122046266 L8.489626829416505,31.837675319682585 L8.409959829599204,31.942842616313488 L8.32542710166703,32.04414044790706 L8.236216335302402,32.14134386719754 L8.170303165473726,32.20760038044196 L8.102215498336301,32.27162027673876 L8.032029253235399,32.33333230747448 L7.959823144380953,32.39266837243056 L7.866347695416931,32.4637588481273 L7.769964033135474,32.53087098136428 L7.670847278042426,32.593884053034586 L7.56917541199948,32.65268553012118 L7.465129275387095,32.70717106211983 L7.358892564849758,32.75724447819633 L7.25065183153774,32.8028177849696 L7.14059647976628,32.843811164821226 L7.028918766020075,32.88015297464023 L6.915813798237774,32.91177974492099 L6.801479535318093,32.93863617914052 L6.68611678679599,32.96067515335019 L6.569929212644248,32.977857715925516 L6.453123323162674,32.99015308742655 L6.335908478923985,32.99753866052956 L6.218496890752345,33.0 " />
			<path d="M9.022196888902334,26.5 L9.022196888902334,22.544778463455966 " />
			<path d="M9.022196888902334,21.85522151707638 L9.022196888902334,20.344778463455963 " />
			<path d="M9.022196888902334,19.655221517076384 L9.022196888902334,18.144778463455953 " />
			<path d="M9.022196888902334,17.45522151707638 L9.022196888902334,-10.361594473209614 " />
			<path d="M9.018865051905566,-30.193973720772792 L9.015270873393813,-30.335161990222073 L9.010284897160089,-30.4145943704067 L9.00264084529994,-30.497728260642155 L8.992442689747143,-30.581176295149124 L8.979711114590609,-30.664496218523094 L8.951224185803074,-30.81011995957294 L8.91504781903431,-30.954088085527232 L8.871287189877847,-31.09595370797126 L8.820066157654864,-31.235307460323554 L8.770673965246026,-31.351700091739996 L8.71607701391449,-31.465745537023587 L8.656386708548094,-31.577210660545095 L8.591724811945824,-31.685867845468167 L8.534653463101568,-31.773350357174532 L8.474358825846366,-31.858643506660552 L8.410924812954887,-31.941628553143072 L8.344439704907805,-32.02218998134805 L8.29459620781297,-32.07878941279426 L8.243235421510818,-32.134031574777865 L8.190397571945887,-32.18787448587526 L8.136123499741666,-32.24027750119584 L8.080454660200585,-32.29120131238201 L8.023433123304013,-32.34060794760917 L7.965101573712267,-32.38846077158575 L7.9055033107646,-32.43472448555316 L7.844682248479214,-32.47936512728584 L7.78268291555325,-32.522350071091225 L7.719550455362793,-32.56364802780977 L7.655330625962865,-32.60322904481492 L7.590069800087438,-32.64106450601312 L7.523814965149423,-32.67712713184387 L7.4566137232406735,-32.71139097927962 L7.3885142911319885,-32.743831441825854 L7.319565500273105,-32.774425249521066 L7.249816796792701,-32.80315046893674 L7.179318241498404,-32.829986503177395 L7.1081205098767795,-32.85491409188053 L7.036274892093336,-32.87791531121667 L6.963833292992526,-32.89897357388933 L6.890848232097742,-32.91807362913504 L6.817372843611319,-32.93520156272334 L6.743460876414537,-32.950344796956784 L6.669166694067616,-32.96349209067091 L6.594545274809722,-32.97463353923429 L6.5196522115589595,-32.983760574548484 L6.444543711912378,-32.99086596504807 L6.369276598145966,-32.99594381570062 L6.293908307214658,-32.998989568006735 L6.218496890752363,-33.0 " />
			<path d="M8.183787679838716,17.400000000000002 L8.183705302751903,17.400000000000002 " />
			<path d="M-8.135305165317249,17.400000000000002 L-8.13538777702329,17.400000000000002 " />
			<path d="M8.18378767983883,19.6 L8.183705302751207,19.6 " />
			<path d="M-8.135305165334067,19.6 L-8.135387777023283,19.6 " />
			<path d="M8.183787679838815,21.8 L8.183705302756536,21.8 " />
			<path d="M-8.135305165318222,21.8 L-8.135387777023055,21.8 " />
			<path d="M-9.022196888902334,-26.5 L-9.022196888902334,26.5 " />
			<path d="M-9.022196888902332,-26.5 L-9.021512708828533,-28.644552230095805 L-9.02116005086623,-29.0699233533793 L-9.02077074458348,-29.420628234988946 L-9.020385545988692,-29.684019162909497 L-9.019721729176048,-29.99535527236591 L-9.01884720921069,-30.196168708130553 L-9.017575045069075,-30.2749196041436 L-9.011957642523376,-30.39148950818317 L-9.005325922327799,-30.471617374441358 L-8.996111266845109,-30.553342132473762 " />
			<path d="M-8.991378886945723,-30.58873866068605 L-8.981914781642773,-30.65120303161672 L-8.954129984915014,-30.796956812228824 L-8.918646527976255,-30.941099467226945 L-8.875568066993228,-31.08317764517732 L-8.825016605146356,-31.22278030675525 L-8.769428892513357,-31.354455182690835 L-8.707193683046832,-31.483123586968585 L-8.63847324162353,-31.608449447666505 L-8.563446690245891,-31.73010579256049 L-8.48876508384141,-31.83886972183127 L-8.409042777602115,-31.943995097447534 L-8.324456779741245,-32.0452484487722 L-8.23519489817023,-32.14240492751015 L-8.169246886604814,-32.208626760773015 L-8.101125554574105,-32.27261083352599 L-8.03090685862072,-32.334285936795055 L-7.958669546665499,-32.39358400915276 L-7.83910309342823,-32.48334198366746 L-7.714903611149939,-32.56659511245277 L-7.586434995704698,-32.64310140545974 L-7.454068650438725,-32.71264037573319 L-7.318183478016096,-32.775013029119435 L-7.1791658744459665,-32.83004185672761 L-7.0374097248610505,-32.87757082960127 L-6.893316400664601,-32.91746539511737 " />
			<path d="M-6.529091825986858,-32.98272001641155 L-6.451648954656451,-32.99027668494378 L-6.37402770761498,-32.99567835385836 L-6.296289648814042,-32.99892045642108 L-6.2184968907523475,-33.0 " />

       </g>
    </g>
    
</svg>
