<?xml version="1.0" encoding="UTF-8" standalone="no"?>
<svg
   xmlns:svg="http://www.w3.org/2000/svg"
   xmlns="http://www.w3.org/2000/svg"
   width="640.0"
   height="420.0"

>
    <g transform="scale(6.293329822776352, -6.293329822776352)   translate(15.386132733771262,-31.382432760034707)" stroke-width="0.15889839372169473"  fill="none">
       <!-- hidden lines -->
       <g  stroke="rgb(170,190,200)" fill="none" stroke-dasharray="0.15889839372169473,0.15889839372169473" >

       </g>

       <!-- solid lines -->
       <g  stroke="rgb(19,78,74)" fill="none">
			<path d="M8.698417778926899,-2.917600578376372 L8.65733506102688,-2.9183681578230574 L8.614359015900492,-2.9151663635003247 L8.56994141423477,-2.907456939212272 L8.524638724354537,-2.8947353242215543 L8.479093203636891,-2.876538604032182 L8.434106055999242,-2.8524927921599623 L8.39066998699126,-2.822398618961137 L8.349842871505599,-2.786233373871899 " />
			<path d="M8.349842871505595,-2.7862333738718985 L8.326026711037871,-2.7604890881915014 L8.303966252148669,-2.7325362036147927 L8.283931594742977,-2.7025212508699097 L8.266176320019037,-2.670629406966601 L8.250931862529,-2.6370846942206203 L8.238397470030778,-2.602137379275382 L8.22873815294386,-2.566060859687137 L8.222082835944224,-2.529150662827839 L8.21852105100465,-2.4917195709080797 L8.218100309929378,-2.4540911758098614 L8.220825869439544,-2.416583162377671 L8.226661348930904,-2.3795180348238936 L8.235528410462042,-2.343210521297307 L8.247308991196395,-2.3079599637450934 L8.26184736701592,-2.2740470837100633 L8.278951271982956,-2.241732134813565 L8.298398015955696,-2.211244274026654 L8.319939812559316,-2.182778149437061 L8.343310377413296,-2.1564905657394977 L8.368232103142107,-2.1324982074223904 L8.394424027666982,-2.1108772591902354 L8.421604571240179,-2.09166710694928 L8.44950963319009,-2.0748648984500524 L8.477890114250162,-2.0604365967024822 L8.506503427095817,-2.048325996738061 L8.535121790414008,-2.0384529791137758 L8.591701938868127,-2.0249708676721956 L8.646454988807823,-2.0190265294240355 L8.6984177789269,-2.019579556209787 " />
			<path d="M8.698417778926903,-2.9176005783763745 L8.698417778926903,-2.0195795562097913 " />
			<path d="M8.698417778926903,-0.3176018783740962 L8.657335061073697,-0.3183694578220478 L8.614359015952912,-0.3151676635044937 L8.569941414293707,-0.30745823922323584 L8.524638724438747,-0.2947366242478063 L8.479093203724593,-0.2765399040705956 L8.43410605605636,-0.25249409219249747 L8.390669987018493,-0.22239991898019112 L8.349842871505599,-0.1862346738696235 " />
			<path d="M8.349842871505595,-0.18623467386962295 L8.326026711037848,-0.16049038818919972 L8.30396625214863,-0.1325375036124627 L8.283931594742922,-0.10252255086754435 L8.266176320018971,-0.07063070696419285 L8.250931862528935,-0.03708599421818023 L8.238397470030725,-0.0021386792729394394 L8.228738152943821,0.03393784031531831 L8.222082835944194,0.07084803717465192 L8.218521051004636,0.10827912909443795 L8.218100309929385,0.14590752419265549 L8.22082586943957,0.18341553762484253 L8.226661348930948,0.22048066517861287 L8.235528410462104,0.2567881787051901 L8.247308991196475,0.2920387362573943 L8.261847367016015,0.3259516162924121 L8.278951271983065,0.3582665651888945 L8.298398015955812,0.388754425975786 L8.319939812559431,0.41722055056535456 L8.343310377413408,0.44350813426289515 L8.368232103142214,0.46750049257998055 L8.394424027667084,0.48912144081211645 L8.421604571240273,0.508331593053057 L8.449509633190178,0.5251338015522728 L8.477890114250245,0.5395621032998322 L8.50650342709589,0.5516727032642414 L8.535121790414069,0.5615457208885184 L8.591701938868168,0.575027832330087 L8.646454988807843,0.5809721705782409 L8.6984177789269,0.5804191437924883 " />
			<path d="M8.698417778926903,-0.3176018783740986 L8.698417778926903,0.5804191437924828 " />
			<path d="M8.698417778926899,2.282396821628178 L8.657335061096969,2.2816292421795965 L8.61435901597896,2.2848310364945763 L8.569941414322974,2.292540460772463 L8.524638724480553,2.3052620757403064 L8.47909320376813,2.3234587959114803 L8.434106056084694,2.3475046077925072 L8.390669987031977,2.37759878101152 L8.349842871505597,2.4137640261326507 " />
			<path d="M8.349842871505595,2.4137640261326516 L8.326026711037883,2.4395083118130327 L8.303966252148694,2.4674611963897215 L8.283931594743013,2.4974761491345827 L8.266176320019078,2.5293679930378707 L8.250931862529034,2.5629127057838454 L8.2383974700308,2.5978600207290983 L8.228738152943874,2.633936540317357 L8.222082835944232,2.670846737176656 L8.218521051004652,2.7082778290964153 L8.218100309929376,2.7459062241946386 L8.220825869439539,2.783414237626834 L8.226661348930895,2.8204793651806166 L8.235528410462031,2.856786878707209 L8.247308991196384,2.8920374362594283 L8.261847367015909,2.925950316294463 L8.278951271982946,2.958265265190965 L8.298398015955685,2.98875312597788 L8.319939812559305,3.0172192505674755 L8.343310377413285,3.0435068342650413 L8.368232103142098,3.067499192582151 L8.394424027666977,3.089120140814308 L8.421604571240168,3.1083302930552628 L8.449509633190079,3.1251325015544906 L8.477890114250147,3.1395608033020608 L8.506503427095803,3.1516714032664814 L8.535121790413996,3.161544420890769 L8.591701938868118,3.1750265323323523 L8.646454988807818,3.1809708705805133 L8.6984177789269,3.180417843794762 " />
			<path d="M8.698417778926903,2.2823968216281756 L8.698417778926903,3.1804178437947606 " />
			<path d="M8.698417778926906,10.082392921635005 L8.657335061097083,10.081625342186419 L8.614359015979092,10.084827136501387 L8.569941414323138,10.092536560779255 L8.524638724480802,10.10525817574705 L8.479093203768386,10.123454895918188 L8.434106056084884,10.14750070779922 L8.3906699870321,10.177594881018251 L8.349842871505597,10.213760126139475 " />
			<path d="M8.349842871505597,10.213760126139473 L8.32602671103786,10.239504411819885 L8.303966252148651,10.267457296396604 L8.28393159474296,10.2974722491415 L8.266176320019017,10.32936409304482 L8.25093186252898,10.362908805790813 L8.238397470030764,10.397856120736039 L8.228738152943853,10.433932640324278 L8.222082835944217,10.470842837183588 L8.218521051004647,10.50827392910335 L8.21810030992938,10.545902324201569 L8.220825869439551,10.58341033763377 L8.226661348930918,10.620475465187557 L8.235528410462067,10.65678297871415 L8.24730899119643,10.692033536266372 L8.261847367015966,10.725946416301408 L8.278951271983013,10.758261365197907 L8.298398015955764,10.788749225984814 L8.319939812559381,10.817215350574394 L8.34331037741336,10.843502934271946 L8.368232103142171,10.867495292589043 L8.394424027667045,10.889116240821188 L8.421604571240238,10.908326393062135 L8.44950963319015,10.925128601561356 L8.477890114250222,10.939556903308922 L8.506503427095868,10.951667503273333 L8.53512179041405,10.961540520897612 L8.591701938868157,10.975022632339185 L8.646454988807836,10.98096697058734 L8.698417778926899,10.980413943801588 " />
			<path d="M8.698417778926903,10.082392921635002 L8.698417778926903,10.980413943801587 " />
			<path d="M8.698417778926903,4.882395521630454 L8.657335061068347,4.8816279421826465 L8.61435901594692,4.884829736500793 L8.569941414286962,4.892539160782829 L8.524638724429098,4.905260775760012 L8.479093203714546,4.923457495938614 L8.434106056049806,4.947503307816045 L8.390669987015352,4.977597481026819 L8.349842871505597,5.013762726134926 " />
			<path d="M8.349842871505595,5.013762726134925 L8.32602671103784,5.03950701181536 L8.303966252148616,5.067459896392107 L8.283931594742906,5.097474849137035 L8.266176320018952,5.129366693040395 L8.250931862528919,5.162911405786409 L8.238397470030707,5.197858720731673 L8.228738152943803,5.233935240319944 L8.222082835944185,5.270845437179271 L8.218521051004634,5.308276529099063 L8.218100309929387,5.34590492419729 L8.22082586943958,5.383412937629474 L8.226661348930966,5.420478065183244 L8.235528410462129,5.45678557870982 L8.247308991196503,5.492036136262019 L8.261847367016049,5.525949016297034 L8.278951271983102,5.558263965193509 L8.29839801595585,5.588751825980393 L8.319939812559468,5.61721795056995 L8.343310377413443,5.64350553426748 L8.368232103142244,5.667497892584557 L8.394424027667107,5.689118840816685 L8.421604571240286,5.708328993057616 L8.449509633190177,5.725131201556822 L8.477890114250227,5.739559503304375 L8.50650342709587,5.751670103268784 L8.535121790414053,5.761543120893062 L8.591701938868157,5.775025232334634 L8.646454988807838,5.780969570582789 L8.6984177789269,5.780416543797038 " />
			<path d="M8.698417778926903,4.88239552163045 L8.698417778926903,5.780416543797031 " />
			<path d="M8.698417778926904,7.4823942216327275 L8.657335061097072,7.481626642184145 L8.614359015979073,7.484828436499114 L8.569941414323116,7.492537860776982 L8.524638724480775,7.50525947574478 L8.479093203768354,7.523456195915926 L8.434106056084863,7.547502007796954 L8.390669987032092,7.577596181015979 L8.349842871505597,7.6137614261372 " />
			<path d="M8.349842871505595,7.613761426137201 L8.326026711037878,7.6395057118175895 L8.303966252148685,7.667458596394286 L8.283931594742995,7.697473549139161 L8.266176320019055,7.729365393042464 L8.250931862529015,7.762910105788443 L8.238397470030785,7.797857420733694 L8.228738152943862,7.833933940321954 L8.222082835944224,7.87084413718126 L8.218521051004648,7.908275229101027 L8.218100309929378,7.945903624199246 L8.220825869439544,7.983411637631428 L8.2266613489309,8.020476765185194 L8.235528410462035,8.056784278711769 L8.247308991196382,8.092034836263977 L8.261847367015907,8.125947716299013 L8.278951271982946,8.158262665195519 L8.29839801595569,8.188750525982437 L8.319939812559314,8.217216650572038 L8.3433103774133,8.243504234269606 L8.368232103142113,8.267496592586715 L8.394424027666991,8.289117540818875 L8.421604571240197,8.308327693059832 L8.44950963319012,8.325129901559064 L8.4778901142502,8.339558203306634 L8.50650342709586,8.351668803271052 L8.535121790414044,8.361541820895333 L8.591701938868146,8.375023932336907 L8.646454988807834,8.380968270585065 L8.6984177789269,8.380415243799312 " />
			<path d="M8.698417778926903,7.4823942216327275 L8.698417778926903,8.380415243799309 " />
			<path d="M8.350111411441164,7.613493111745088 L8.326987799686423,7.638481396369496 L8.305819565027504,7.665146385722892 L8.28672787528672,7.693335448339116 L8.269822012060175,7.72288722889566 L8.25519874518553,7.753632571817992 L8.242941778827579,7.785395489532831 L8.233121272352268,7.817994169828063 L8.225793438731664,7.851242016553119 L8.221000222778661,7.884948717702805 L8.218769061053198,7.91892133477084 L8.219112724814277,7.952965407137579 L8.222029246916776,7.986886065170395 L8.227501933071464,8.020489145665241 L8.235499457403783,8.053582303244612 L8.245976041764402,8.085976111350174 L8.258871717765183,8.117485146527967 L8.274112670040624,8.147929049799682 L8.291611658769979,8.177133559044663 L8.311268519041471,8.20493150648326 L8.332970734200261,8.231163775551895 L8.356594079898285,8.255680211692635 L8.38200333515939,8.278340481843891 L8.40905305638961,8.29901487771248 L8.437588409902126,8.317585058229088 L8.467446058191484,8.333944726937279 L8.498455094884008,8.348000240438672 L8.530438023012724,8.359671144411504 L8.563211771017107,8.368890634134376 L8.596588740652008,8.37560593687916 L8.630377880807536,8.37977861398421 L8.664385781093237,8.381384780878788 L8.698417778926917,8.380415243799314 " />
			<path d="M8.350111411439745,5.013494411744233 L8.326987799685156,5.038482696368697 L8.30581956502639,5.065147685722134 L8.286727875285758,5.093336748338385 L8.269822012059361,5.122888528894942 L8.25519874518486,5.153633871817272 L8.24294177882705,5.185396789532097 L8.233121272351871,5.217995469827305 L8.225793438731394,5.251243316552325 L8.221000222778514,5.2849500177019655 L8.218769061053159,5.318922634769944 L8.21911272481434,5.35296670713662 L8.22202924691693,5.386887365169364 L8.2275019330717,5.420490445664134 L8.235499457404089,5.453583603243423 L8.24597604176477,5.485977411348899 L8.258871717765597,5.517486446526606 L8.274112670041077,5.547930349798232 L8.291611658770458,5.577134859043123 L8.311268519041967,5.604932806481632 L8.332970734200764,5.6311650755501805 L8.356594079898782,5.655681511690838 L8.382003335159872,5.678341781842015 L8.40905305639007,5.699016177710531 L8.437588409902558,5.71758635822707 L8.467446058191879,5.733946026935199 L8.498455094884358,5.748001540436539 L8.530438023013025,5.759672444409324 L8.56321177101735,5.768891934132157 L8.596588740652194,5.775607236876914 L8.63037788080766,5.779779913981944 L8.6643857810933,5.781386080876512 L8.698417778926917,5.780416543797037 " />
			<path d="M8.350111411440086,10.21349181174844 L8.326987799685462,10.238480096372891 L8.305819565026658,10.265145085726319 L8.286727875285989,10.293334148342563 L8.269822012059556,10.322885928899117 L8.25519874518502,10.353631271821447 L8.242941778827177,10.385394189536276 L8.233121272351967,10.41799286983149 L8.22579343873146,10.451240716556518 L8.22100022277855,10.48494741770617 L8.21876906105317,10.51892003477416 L8.219112724814325,10.552964107140852 L8.222029246916893,10.586884765173615 L8.227501933071643,10.620487845668402 L8.235499457404016,10.65358100324771 L8.245976041764681,10.685974811353208 L8.258871717765498,10.717483846530936 L8.274112670040969,10.747927749802583 L8.291611658770343,10.777132259047495 L8.311268519041848,10.804930206486025 L8.332970734200643,10.831162475554596 L8.356594079898663,10.855678911695271 L8.382003335159755,10.878339181846467 L8.40905305638996,10.899013577715001 L8.437588409902453,10.917583758231556 L8.467446058191785,10.9339434269397 L8.498455094884275,10.947998940441055 L8.530438023012952,10.95966984441385 L8.563211771017292,10.968889334136692 L8.59658874065215,10.975604636881457 L8.63037788080763,10.97977731398649 L8.664385781093284,10.98138348088106 L8.698417778926917,10.980413943801587 " />
			<path d="M8.350111411440086,2.4134957117416143 L8.326987799685462,2.438483996366065 L8.305819565026658,2.4651489857194924 L8.286727875285989,2.4933380483357364 L8.269822012059556,2.52288982889229 L8.255198745185021,2.553635171814621 L8.242941778827177,2.5853980895294497 L8.233121272351967,2.6179967698246633 L8.22579343873146,2.651244616549692 L8.22100022277855,2.684951317699343 L8.21876906105317,2.7189239347673344 L8.219112724814325,2.752968007134026 L8.222029246916893,2.7868886651667877 L8.227501933071643,2.8204917456615766 L8.235499457404016,2.8535849032408853 L8.245976041764681,2.885978711346382 L8.258871717765498,2.917487746524109 L8.274112670040969,2.947931649795757 L8.291611658770343,2.9771361590406693 L8.311268519041848,3.0049341064791997 L8.332970734200643,3.031166375547769 L8.356594079898663,3.055682811688446 L8.382003335159755,3.078343081839642 L8.40905305638996,3.0990174777081756 L8.437588409902453,3.117587658224731 L8.467446058191783,3.1339473269328755 L8.498455094884273,3.1480028404342284 L8.530438023012952,3.1596737444070246 L8.563211771017292,3.1688932341298672 L8.59658874065215,3.1756085368746305 L8.63037788080763,3.1797812139796644 L8.664385781093284,3.1813873808742352 L8.698417778926917,3.180417843794761 " />
			<path d="M8.350111411439952,-0.18650298826052644 L8.326987799685343,-0.1615147036360707 L8.305819565026553,-0.13484971428263956 L8.286727875285898,-0.10666065166639274 L8.26982201205948,-0.07710887110983794 L8.255198745184957,-0.0463635281875073 L8.242941778827127,-0.01460061047267966 L8.23312127235193,0.01799806982253155 L8.225793438731435,0.051245916547556974 L8.221000222778535,0.08495261769720372 L8.218769061053166,0.11892523476518996 L8.21911272481433,0.15296930713187532 L8.222029246916907,0.1868899651646304 L8.227501933071665,0.2204930456594118 L8.235499457404044,0.25358620323871284 L8.245976041764715,0.2859800113442015 L8.258871717765537,0.31748904652192084 L8.274112670041012,0.34793294979356015 L8.291611658770389,0.3771374590384642 L8.311268519041894,0.4049354064769861 L8.33297073420069,0.4311676755455477 L8.35659407989871,0.4556841116862165 L8.382003335159801,0.47834438183740535 L8.409053056390002,0.49901877770593217 L8.437588409902494,0.5175889582224812 L8.46744605819182,0.5339486269306196 L8.498455094884307,0.5480041404319678 L8.53043802301298,0.5596750444047592 L8.563211771017315,0.5688945341275985 L8.596588740652168,0.575609836872359 L8.630377880807643,0.5797825139773914 L8.66438578109329,0.5813886808719612 L8.698417778926917,0.5804191437924869 " />
			<path d="M8.350111411439919,-2.786501688262767 L8.326987799685313,-2.7615134036383098 L8.305819565026527,-2.734848414284878 L8.286727875285875,-2.7066593516686304 L8.26982201205946,-2.6771075711120753 L8.255198745184941,-2.6463622281897443 L8.242941778827115,-2.6145993104749174 L8.23312127235192,-2.5820006301797065 L8.225793438731428,-2.5487527834546824 L8.221000222778532,-2.5150460823050365 L8.218769061053164,-2.481073465237052 L8.219112724814332,-2.447029392870368 L8.222029246916911,-2.4131087348376146 L8.227501933071672,-2.379505654342835 L8.235499457404051,-2.3464124967635356 L8.245976041764724,-2.314018688658049 L8.258871717765548,-2.282509653480332 L8.274112670041022,-2.2520657502086947 L8.2916116587704,-2.222861240963793 L8.311268519041906,-2.195063293525273 L8.332970734200702,-2.168831024456714 L8.356594079898722,-2.144314588316047 L8.382003335159814,-2.12165431816486 L8.409053056390013,-2.100979922296335 L8.437588409902505,-2.0824097417797875 L8.467446058191829,-2.0660500730716507 L8.498455094884315,-2.051994559570304 L8.530438023012987,-2.0403236555975135 L8.56321177101732,-2.031104165874675 L8.596588740652171,-2.024388863129915 L8.630377880807645,-2.0202161860248835 L8.66438578109329,-2.018610019130314 L8.698417778926917,-2.0195795562097882 " />
			<path d="M8.971133362123332,21.37670812399081 L8.970647666988397,20.891498683704278 " />
			<path d="M6.173496913252316,25.026493660262638 L6.310886332674384,25.023121076712762 L6.447944768951174,25.013011176133745 L6.584342036304793,24.9961883141616 L6.719749541771196,24.972693018544334 L6.853841076809418,24.942581891507025 L6.986293603166519,24.90592747339214 L7.116788031105037,24.862818067903454 L7.245009988118103,24.813357529374738 L7.370650576280358,24.75766501257553 L7.493407116410101,24.695874685656893 L7.612983877249958,24.628135406928568 L7.729092787909378,24.554610366246266 L7.841454131852644,24.47547669187303 L7.949797220760504,24.390925023761714 L8.053861046642046,24.301159054286646 L8.153394910625797,24.20639503753088 " />
			<path d="M8.153394910625806,24.206395037530868 L8.248159026915323,24.106861268311075 L8.337925100454083,24.002797532195462 L8.422476876908357,23.894454527839233 L8.501610663642804,23.782093263029612 L8.575135820433879,23.66598442589521 L8.642875218738826,23.546407732794613 L8.704665668413865,23.423651254455184 L8.760358310853519,23.29801072198544 L8.809818977604053,23.169788814432916 L8.85292851358702,23.039294429603814 L8.889583064154293,22.906841939901145 L8.919694325282991,22.77275043497407 L8.943189756307623,22.637342953002992 L8.960012754676892,22.500945702472272 L8.970122792314207,22.363887276305427 L8.973495513253365,22.226497860256 " />
			<path d="M6.869896565052577,23.835003409048568 L6.869897415099663,23.836155223949056 " />
			<path d="M6.869897415099664,23.836155223949056 L6.867415110510606,23.897985546392313 L6.859919833365554,23.95921334717354 L6.847329710253877,24.019727415562368 L6.8295519485015985,24.07938814486851 L6.806484663379824,24.138027433715276 L6.778018453705923,24.19544858413912 L6.7440375672879584,24.251426068736478 L6.704420497662852,24.305705039079246 L6.659039853578782,24.35800044762014 L6.6077613426722985,24.407995655309243 L6.5504417107906585,24.45534039714306 L6.486950291373821,24.499631832733968 L6.417246012956586,24.54037818273677 L6.341324087061167,24.577060460640304 L6.259267075550175,24.60911690191031 L6.171271687073419,24.635957695642315 " />
			<path d="M6.869896565052577,23.835003409048568 L6.8693623116103435,23.430629407768198 " />
			<path d="M6.169226084086917,23.43076528515582 L6.869362312506689,23.43062940777043 " />
			<path d="M3.469227434085905,23.430762585159872 L6.169226684086619,23.430765285156422 " />
			<path d="M3.4698982650513015,23.942115149947846 L3.469227434085904,23.43076258515988 " />
			<path d="M3.4698982650513015,23.942115149947842 L3.473906560367577,24.01675030242308 L3.4789027257414182,24.053147796833606 L3.485951481386503,24.08886210302745 L3.495091708439726,24.12384747475366 L3.5063535876807714,24.158047771020193 L3.5197576055225066,24.19140592335411 L3.535315717871257,24.22387089024929 L3.5530313125354205,24.255397507363824 L3.5728991716340843,24.285946337717387 L3.5949054340056374,24.315483521888645 L3.619025116814766,24.34397791390078 L3.6452165569335824,24.371396962618135 L3.6734348688867358,24.39772216638403 L3.703626807061756,24.42294087962271 L3.735730073199331,24.44704520752906 L3.805375122188729,24.491900747588975 L3.8817143489041634,24.532322426723702 L3.964123370476988,24.5684651982463 L4.051946349430962,24.60052071821279 L4.144472170538954,24.628693670705502 L4.241060103651268,24.653225389633835 L4.341159150818925,24.674368783912655 L4.444217902702269,24.69235324366266 L4.549741878885846,24.707392678377435 L4.6572842994598345,24.7196771585718 L4.7664234221210595,24.729367509162127 L4.876786556042502,24.73659622439054 L4.988020246695361,24.741463759451264 L5.099782102197573,24.744038329674233 L5.211741838317735,24.744356508977393 L5.323591969264025,24.742422589169205 L5.435000566489106,24.738208379760767 L5.545621389608988,24.73165468399044 L5.6550974511203,24.722670902387694 L5.763057871232203,24.711134475008933 L5.869114732698319,24.696890323673244 L5.972845741524784,24.679752735401696 L6.073742291591534,24.659517366438234 L6.171271687073397,24.63595769564231 " />
			<path d="M-9.02885763788342,21.376690124017813 L-9.028885420467038,21.356283084385193 " />
			<path d="M-9.028885420467038,21.356283084385197 L-9.029323866864639,20.917575551335936 " />
			<path d="M-9.029323866864639,20.91757555133594 L-9.029343333018355,20.891480683731277 " />
			<path d="M8.162103029228403,24.197686850648175 L8.16249432630492,24.197295631270542 " />
			<path d="M8.16249432630492,24.197295631270542 L8.231991130865516,24.125268302907976 L8.29513133605616,24.05510541706777 L8.35037479827406,23.989592145512237 L8.396604462360704,23.931469135163205 L8.459129063136718,23.847450088724205 L8.474810257279119,23.82528681908627 L8.478724522345539,23.819673511001575 L8.480021079385466,23.817796371134204 " />
			<path d="M8.480021079385464,23.817796371134204 L8.478697441344428,23.819678792587094 L8.47474978997498,23.825307342188196 L8.458985019206061,23.847531251701895 L8.39624208055708,23.93177412243227 L8.34989488689173,23.990032407691515 L8.29455076737528,24.055663460684112 L8.231313855430288,24.125938057708524 L8.161695388619504,24.198094574611975 " />
			<path d="M8.159903030321056,24.199886847355522 L8.160294327404932,24.199495627970535 " />
			<path d="M8.160294327404934,24.19949562797053 L8.229791131965504,24.127468299607994 L8.292931337156135,24.057305413767804 L8.348174799374004,23.991792142212308 L8.394404463460656,23.93366913186327 L8.456929064236716,23.849650085424212 L8.472610258379117,23.827486815786273 L8.476524523445537,23.82187350770158 L8.477821080485466,23.81999636783421 " />
			<path d="M8.477821080485468,23.81999636783421 L8.476497442444428,23.8218787892871 L8.472549791074979,23.8275073388882 L8.456785020306059,23.849731248401902 L8.394042081657007,23.933974119132372 L8.347694887991645,23.992232404391626 L8.292350768475218,24.057863457384187 L8.229113856530258,24.128138054408563 L8.159495389719503,24.200294571311982 " />
			<path d="M8.157703031429373,24.202086844047212 L8.158094328492458,24.201695624683012 " />
			<path d="M8.158094328492462,24.20169562468301 L8.227591133055371,24.129668296318876 L8.290731338248337,24.05950541047677 L8.34597480046841,23.993992138919154 L8.392204464556965,23.935869128568037 L8.454729065335691,23.851850082125647 L8.470410259478822,23.8296868124867 L8.474324524545443,23.824073504401717 L8.475621081585464,23.822196364534214 " />
			<path d="M8.475621081585464,23.822196364534214 L8.474297443544476,23.824078785987034 L8.470349792175098,23.829707335588036 L8.454585021406386,23.85193124510145 L8.391842082758027,23.936174115831058 L8.345494889093045,23.994432401089913 L8.29015076957699,24.060063454082155 L8.22691385763239,24.130338051106275 L8.157295390821998,24.20249456800949 " />
			<path d="M8.98184909891506,22.21814428294784 L8.981795509103367,22.0181979727058 " />
			<path d="M8.982541918891677,22.21745146366404 L8.982542018848289,21.817624793636366 L8.982395768554499,21.671337822834598 L8.982299374503729,21.631414704964445 L8.982248091122665,21.6212167664295 L8.982195908902968,21.617797973305994 " />
			<path d="M8.982195908902968,21.617797973305994 L8.982156675277976,21.61972653380306 L8.982117816117972,21.625493618644388 L8.982042712813614,21.648284440026867 L8.981912807788902,21.73509671720685 L8.981795509103367,22.018197972705792 " />
			<path d="M8.98184909891506,22.218144282947865 L8.978111649390657,22.36545708143792 L8.975862506245123,22.404589600952036 L8.975230164723422,22.414492709108828 L8.975043135674339,22.41779796615245 " />
			<path d="M8.975043135674339,22.41779796615245 L8.975326845051988,22.41447597495815 L8.976056124207291,22.404542119464594 L8.978494091678787,22.365315949161225 L8.982541918891679,22.217451463664062 " />
			<path d="M8.97964910001506,22.22034427964808 L8.979595510203367,22.020397969405803 " />
			<path d="M8.980341919991677,22.219651460364283 L8.980342019948289,21.81982479033649 L8.980195769654499,21.673537819534637 L8.980099375603729,21.63361470166446 L8.980048092222665,21.62341676312951 L8.979995910002968,21.619997970005997 " />
			<path d="M8.979995910002968,21.619997970005997 L8.979956676377975,21.621926530503064 L8.979917817217972,21.62769361534439 L8.979842713913614,21.65048443672687 L8.979712808888902,21.737296713906854 L8.979595510203367,22.020397969405796 " />
			<path d="M8.97964910001506,22.22034427964787 L8.975911650490655,22.367657078137928 L8.973662507345121,22.406789597652043 L8.973030165823422,22.416692705808835 L8.972843136774337,22.419997962852456 " />
			<path d="M8.972843136774339,22.419997962852456 L8.97312684615199,22.416675971658155 L8.973856125307291,22.40674211616459 L8.976294092778788,22.367515945861207 L8.980341919991677,22.219651460364066 " />
			<path d="M8.97744910111506,22.22254427634809 L8.977395511303367,22.02259796610581 " />
			<path d="M8.978141921091677,22.22185145706429 L8.978142021048289,21.822024787036497 L8.977995770754498,21.675737816234644 L8.977899376703729,21.635814698364467 L8.977848093322665,21.625616759829516 L8.977795911102968,21.622197966706004 " />
			<path d="M8.977795911102968,21.622197966706004 L8.977756677477975,21.62412652720307 L8.977717818317972,21.6298936120444 L8.977642715013614,21.652684433426877 L8.977512809988902,21.73949671060686 L8.977395511303367,22.022597966105803 " />
			<path d="M8.97744910111506,22.222544276347875 L8.973711651590655,22.36985707483793 L8.97146250844512,22.408989594352047 L8.97083016692342,22.41889270250884 L8.970643137874337,22.42219795955246 " />
			<path d="M8.970643137874337,22.42219795955246 L8.970926847251986,22.41887596835816 L8.97165612640729,22.408942112864597 L8.974094093878787,22.36971594256121 L8.978141921091677,22.221851457064073 " />
			<path d="M8.98749550625337,8.01250498124353 L8.987642129610288,7.658628411869852 L8.987804510891177,7.5501130653948705 L8.987898390021625,7.521624538666773 L8.98794696397163,7.514415682615112 L8.98799600600287,7.512004981993779 " />
			<path d="M8.98799600600287,7.512004981993779 L8.988045012116393,7.514412618706688 L8.988093541458984,7.521612341889704 L8.988187309467516,7.550065215929458 L8.988349412593447,7.658451591753985 L8.988495505503371,8.012004982493528 L8.988348705487374,8.365558372940178 L8.988186385588907,8.473944748440283 L8.988092560674684,8.502397622292444 L8.988044016932662,8.509597345378387 L8.987995006003871,8.512004981993279 " />
			<path d="M8.987995006003871,8.512004981993279 L8.987946030986864,8.509600407343154 L8.987897531835328,8.502409811407256 L8.98780381798217,8.47399256903471 L8.987641776057208,8.365735104668113 L8.98749550625337,8.012504981243534 " />
			<path d="M9.017933313207982,-1.5179280452816308 L8.986995506503371,-1.4869902695147814 " />
			<path d="M9.01793331320798,-1.5179280452817192 L9.016995491722131,1.9812580267459436 L9.017931563967283,5.479038680202871 L9.020490944108602,8.039060669234031 L9.022177839997086,8.737715231961754 L9.023075299165678,8.91617915632327 L9.023530899818386,8.961034801716421 L9.023759567720292,8.972263725884787 L9.023988488010385,8.976008035984695 " />
			<path d="M9.023988488010385,8.976008035984695 L9.024149723688868,8.9741509042831 L9.024310877528492,8.968580494266838 L9.024632597741183,8.946313630862324 L9.025271302159105,8.857482344982689 L9.026510911520386,8.505919080719725 L9.028695485653387,7.158790389037431 " />
			<path d="M9.028695485653387,16.271300893050693 L9.028695485653387,7.158790389037426 " />
			<path d="M9.028695485653387,16.271300893050693 L9.027406756134972,19.38385790286899 L9.025979294113888,20.33908499239225 L9.025153884841057,20.5902955663718 L9.024726763055197,20.654080219635265 L9.024511385512477,20.67018279896411 L9.024295487853385,20.675698686454552 " />
			<path d="M8.975695512153367,20.724298613554666 L9.024295487853385,20.675698686454552 " />
			<path d="M8.975695512153367,20.724298613554666 L8.975691112157767,20.724300813548616 " />
			<path d="M8.975691112157767,20.724300813548616 L8.975554000332572,20.722163899478986 L8.975417025961278,20.715755233181326 L8.975144021503906,20.690151686691955 L8.974605491269978,20.588234381237303 L8.973587286405628,20.188450574590423 " />
			<path d="M8.97183347061597,18.436388598966435 L8.971915186940505,18.430097744737395 L8.971997114001766,18.427998958004864 " />
			<path d="M8.971997114001766,18.427998958004864 L8.972080636125973,18.430180546506797 L8.972163926123384,18.436719362685288 L8.972328902467737,18.462785519572495 L8.97264619413592,18.56563257254404 L8.973183329947412,18.954854650160915 L8.973587286405628,20.18845057459042 " />
			<path d="M8.97183347061597,18.43638859896648 L8.971295514353365,16.328700806950867 " />
			<path d="M8.971295514353365,-16.271282893077704 L8.971295514353365,16.328700806950827 " />
			<path d="M8.971295514353365,-16.271282893077696 L8.972584243871779,-19.383839902895996 L8.974011705892863,-20.339066992419255 L8.974837115165695,-20.590277566398804 L8.975264236951555,-20.65406221966227 L8.975479614494274,-20.670164798991113 L8.975695512153367,-20.675680686481556 " />
			<path d="M9.024295487853385,-20.724280613581676 L8.975695512153367,-20.67568068648156 " />
			<path d="M9.024295487853385,-20.72428061358167 L9.024299887848985,-20.72428281357562 " />
			<path d="M9.024299887848985,-20.72428281357562 L9.024515642772588,-20.718989565319745 L9.024730867998647,-20.70312255665452 L9.025157660532154,-20.639845312418615 L9.02598234243995,-20.38977357954021 L9.02740831137962,-19.437107893114153 L9.028695485653387,-16.32868280697784 " />
			<path d="M9.028695485653387,-3.2161743029610625 L9.028695485653387,-16.328682806977834 " />
			<path d="M9.024995487503386,-4.953191728691755 L9.026975423600296,-4.361001801701183 L9.028695485653387,-3.2161743029610674 " />
			<path d="M9.024995487503386,-14.524983712526247 L9.024995487503386,-4.9531917286917455 " />
			<path d="M8.986995506503371,-14.486983769526157 L9.024995487503386,-14.524983712526247 " />
			<path d="M8.986995506503371,-1.4869902695147814 L8.986995506503371,-14.486983769526155 " />
			<path d="M8.981795509103367,19.81819907270387 L8.981912807788902,19.535097817204925 L8.982042712813614,19.44828554002494 L8.982117816117972,19.42549471864246 L8.982156675277976,19.419727633801134 L8.982195908902968,19.417799073304067 " />
			<path d="M8.982195908902968,19.417799073304067 L8.982235113793786,19.419725182674394 L8.982273937267859,19.425484961220807 L8.982348951674684,19.44824726045261 L8.98247863417543,19.534956361112233 L8.982595508503369,19.817799073703867 L8.98247806849057,20.100641786061185 L8.982348212571798,20.18735088646127 L8.982273152640419,20.210113185542998 L8.982234317646801,20.215872964011755 L8.982195108903769,20.217799073303667 " />
			<path d="M8.982195108903769,20.217799073303667 L8.982155928890162,20.215875413583568 L8.982117129568934,20.21012293683485 L8.982042158486408,20.187389142936812 L8.981912524946438,20.100783171443535 L8.981795509103367,19.818199072703873 " />
			<path d="M8.979595510203367,19.820399069403873 L8.979712808888902,19.537297813904928 L8.979842713913614,19.450485536724944 L8.979917817217972,19.427694715342465 L8.979956676377975,19.421927630501138 L8.979995910002968,19.41999907000407 " />
			<path d="M8.979995910002968,19.41999907000407 L8.980035114893786,19.421925179374398 L8.980073938367859,19.42768495792081 L8.980148952774684,19.450447257152614 L8.98027863527543,19.537156357812236 L8.980395509603369,19.81999907040387 L8.98027806959057,20.10284178276119 L8.980148213671798,20.189550883161274 L8.980073153740419,20.212313182243 L8.980034318746801,20.21807296071176 L8.979995110003768,20.21999907000367 " />
			<path d="M8.979995110003768,20.21999907000367 L8.979955929990162,20.21807541028357 L8.979917130668934,20.21232293353485 L8.979842159586408,20.189589139636816 L8.979712526046438,20.10298316814354 L8.979595510203367,19.820399069403877 " />
			<path d="M8.977395511303367,19.82259906610388 L8.977512809988902,19.539497810604935 L8.977642715013614,19.45268553342495 L8.977717818317972,19.429894712042472 L8.977756677477975,19.424127627201145 L8.977795911102968,19.422199066704078 " />
			<path d="M8.977795911102968,19.422199066704078 L8.977835115993786,19.424125176074405 L8.977873939467859,19.429884954620817 L8.977948953874684,19.45264725385262 L8.97807863637543,19.539356354512243 L8.978195510703369,19.822199067103877 L8.97807807069057,20.105041779461196 L8.977948214771798,20.19175087986128 L8.977873154840418,20.214513178943008 L8.977834319846801,20.220272957411765 L8.977795111103768,20.222199066703677 " />
			<path d="M8.977795111103768,20.222199066703677 L8.977755931090162,20.22027540698358 L8.977717131768934,20.214522930234857 L8.977642160686408,20.191789136336823 L8.977512527146438,20.105183164843545 L8.977395511303367,19.822599066103884 " />
			<path d="M9.01134549432838,6.3886558170170735 L9.011477137151832,6.706562928099197 L9.011622974884299,6.8039946460291345 L9.011707317352142,6.8295701641644255 L9.011750966588524,6.836041700506735 L9.01179504410383,6.838205817691847 " />
			<path d="M9.01179504410383,6.838205817691847 L9.011839153939741,6.836038944738445 L9.011882843307562,6.829559193961096 L9.011967285730362,6.8039516074941515 L9.012113373638982,6.706403869544058 L9.01224549365338,6.3882058181420724 L9.01211401003445,6.070007766476483 L9.01196811722111,5.9724600282344085 L9.011883726013432,5.9468524415986295 L9.0118400496051,5.940372690733915 L9.01179594410293,5.938205817692298 " />
			<path d="M9.01179594410293,5.938205817692298 L9.011751806274814,5.940375448251497 L9.011708089719809,5.946863418697991 L9.011623598502405,5.972503092753279 L9.011477455349606,6.070166904580763 L9.01134549432838,6.388655817017069 " />
			<path d="M9.00894549552838,6.391055813417079 L9.009077138351833,6.708962924499202 L9.009222976084299,6.80639464242914 L9.009307318552143,6.831970160564431 L9.009350967788524,6.838441696906741 L9.00939504530383,6.8406058140918535 " />
			<path d="M9.00939504530383,6.8406058140918535 L9.009439155139741,6.838438941138451 L9.009482844507563,6.831959190361101 L9.009567286930363,6.806351603894157 L9.009713374838983,6.708803865944064 L9.00984549485338,6.390605814542078 L9.00971401123445,6.072407762876488 L9.009568118421111,5.974860024634414 L9.009483727213432,5.949252437998636 L9.0094400508051,5.942772687133921 L9.00939594530293,5.940605814092303 " />
			<path d="M9.00939594530293,5.940605814092303 L9.009351807474815,5.942775444651502 L9.00930809091981,5.949263415097997 L9.009223599702405,5.974903089153285 L9.009077456549607,6.072566900980768 L9.00894549552838,6.391055813417075 " />
			<path d="M9.006545496728378,6.393455809817085 L9.006677139551831,6.711362920899209 L9.006822977284298,6.808794638829146 L9.006907319752141,6.834370156964437 L9.006950968988523,6.840841693306746 L9.006995046503828,6.843005810491858 " />
			<path d="M9.006995046503828,6.843005810491858 L9.00703915633974,6.840838937538456 L9.007082845707561,6.834359186761107 L9.007167288130361,6.808751600294163 L9.007313376038981,6.711203862344069 L9.007445496053379,6.393005810942084 L9.007314012434449,6.074807759276494 L9.00716811962111,5.97726002103442 L9.00708372841343,5.951652434398641 L9.007040052005099,5.945172683533927 L9.00699594650293,5.943005810492309 " />
			<path d="M9.00699594650293,5.943005810492309 L9.006951808674813,5.945175441051508 L9.006908092119808,5.951663411498003 L9.006823600902404,5.977303085553291 L9.006677457749605,6.074966897380774 L9.006545496728378,6.39345580981708 " />
			<path d="M9.004145497928377,6.3958558062170905 L9.00427714075183,6.7137629172992135 L9.004422978484296,6.8111946352291515 L9.00450732095214,6.8367701533644425 L9.004550970188522,6.843241689706752 L9.004595047703827,6.845405806891865 " />
			<path d="M9.004595047703827,6.845405806891865 L9.004639157539739,6.843238933938462 L9.00468284690756,6.836759183161113 L9.00476728933036,6.8111515966941685 L9.00491337723898,6.713603858744075 L9.005045497253377,6.395405807342089 L9.004914013634448,6.0772077556765 L9.004768120821108,5.979660017434425 L9.00468372961343,5.954052430798647 L9.004640053205097,5.947572679933932 L9.004595947702928,5.945405806892314 " />
			<path d="M9.004595947702928,5.945405806892314 L9.004551809874812,5.947575437451514 L9.004508093319807,5.954063407898008 L9.004423602102403,5.979703081953296 L9.004277458949604,6.07736689378078 L9.004145497928377,6.395855806217086 " />
			<path d="M9.001745499128376,6.398255802617096 L9.001877141951828,6.71616291369922 L9.002022979684295,6.813594631629157 L9.002107322152138,6.839170149764448 L9.00215097138852,6.845641686106758 L9.002195048903825,6.84780580329187 " />
			<path d="M9.002195048903825,6.84780580329187 L9.002239158739737,6.845638930338468 L9.002282848107559,6.839159179561118 L9.002367290530358,6.813551593094174 L9.002513378438978,6.716003855144081 L9.002645498453376,6.397805803742095 L9.002514014834446,6.079607752076505 L9.002368122021107,5.982060013834431 L9.002283730813428,5.956452427198652 L9.002240054405096,5.949972676333938 L9.002195948902926,5.9478058032923204 " />
			<path d="M9.002195948902926,5.9478058032923204 L9.00215181107481,5.949975433851519 L9.002108094519805,5.956463404298014 L9.002023603302401,5.982103078353302 L9.001877460149602,6.079766890180785 L9.001745499128376,6.398255802617092 " />
			<path d="M9.01134549432838,3.9886570170149733 L9.011477137151832,4.306564128097097 L9.011622974884299,4.403995846027034 L9.011707317352142,4.429571364162325 L9.011750966588524,4.436042900504635 L9.01179504410383,4.438207017689747 " />
			<path d="M9.01179504410383,4.438207017689747 L9.011839153939741,4.436040144736345 L9.011882843307562,4.429560393958996 L9.011967285730362,4.403952807492051 L9.012113373638982,4.306405069541958 L9.01224549365338,3.988207018139972 L9.01211401003445,3.6700089664743825 L9.01196811722111,3.5724612282323083 L9.011883726013432,3.5468536415965297 L9.0118400496051,3.540373890731815 L9.01179594410293,3.538207017690197 " />
			<path d="M9.01179594410293,3.538207017690197 L9.011751806274814,3.5403766482493966 L9.011708089719809,3.546864618695891 L9.011623598502405,3.5725042927511788 L9.011477455349606,3.670168104578662 L9.01134549432838,3.9886570170149693 " />
			<path d="M9.00894549552838,3.991057013414979 L9.009077138351833,4.308964124497102 L9.009222976084299,4.40639584242704 L9.009307318552143,4.431971360562331 L9.009350967788524,4.4384428969046406 L9.00939504530383,4.440607014089753 " />
			<path d="M9.00939504530383,4.440607014089753 L9.009439155139741,4.4384401411363505 L9.009482844507563,4.431960390359001 L9.009567286930363,4.406352803892057 L9.009713374838983,4.308805065941963 L9.00984549485338,3.9906070145399775 L9.00971401123445,3.672408962874388 L9.009568118421111,3.574861224632314 L9.009483727213432,3.5492536379965354 L9.0094400508051,3.542773887131821 L9.00939594530293,3.540607014090203 " />
			<path d="M9.00939594530293,3.540607014090203 L9.009351807474815,3.5427766446494022 L9.00930809091981,3.549264615095897 L9.009223599702405,3.5749042891511844 L9.009077456549607,3.6725681009786677 L9.00894549552838,3.991057013414975 " />
			<path d="M9.006545496728378,3.9934570098149846 L9.006677139551831,4.3113641208971085 L9.006822977284298,4.408795838827046 L9.006907319752141,4.434371356962337 L9.006950968988523,4.440842893304646 L9.006995046503828,4.443007010489758 " />
			<path d="M9.006995046503828,4.443007010489758 L9.00703915633974,4.440840137536356 L9.007082845707561,4.434360386759007 L9.007167288130361,4.408752800292063 L9.007313376038981,4.311205062341969 L9.007445496053379,3.993007010939983 L9.007314012434449,3.6748089592743938 L9.00716811962111,3.5772612210323196 L9.00708372841343,3.551653634396541 L9.007040052005099,3.5451738835318265 L9.00699594650293,3.5430070104902085 " />
			<path d="M9.00699594650293,3.5430070104902085 L9.006951808674813,3.545176641049408 L9.006908092119808,3.5516646114959025 L9.006823600902404,3.57730428555119 L9.006677457749605,3.6749680973786734 L9.006545496728378,3.9934570098149806 " />
			<path d="M9.004145497928377,3.9958570062149903 L9.00427714075183,4.313764117297113 L9.004422978484296,4.411195835227051 L9.00450732095214,4.436771353362342 L9.004550970188522,4.443242889704652 L9.004595047703827,4.445407006889765 " />
			<path d="M9.004595047703827,4.445407006889765 L9.004639157539739,4.443240133936362 L9.00468284690756,4.4367603831590126 L9.00476728933036,4.411152796692068 L9.00491337723898,4.313605058741975 L9.005045497253377,3.9954070073399888 L9.004914013634448,3.6772089556743994 L9.004768120821108,3.5796612174323252 L9.00468372961343,3.5540536307965467 L9.004640053205097,3.547573879931832 L9.004595947702928,3.545407006890214 " />
			<path d="M9.004595947702928,3.545407006890214 L9.004551809874812,3.5475766374494135 L9.004508093319807,3.554064607895908 L9.004423602102403,3.5797042819511957 L9.004277458949604,3.677368093778679 L9.004145497928377,3.9958570062149863 " />
			<path d="M9.01134549432838,1.5886582170128727 L9.011477137151832,1.9065653280949961 L9.011622974884299,2.003997046024934 L9.011707317352142,2.029572564160225 L9.011750966588524,2.0360441005025343 L9.01179504410383,2.0382082176876466 " />
			<path d="M9.01179504410383,2.0382082176876466 L9.011839153939741,2.036041344734244 L9.011882843307562,2.0295615939568954 L9.011967285730362,2.0039540074899502 L9.012113373638982,1.9064062695398567 L9.01224549365338,1.5882082181378714 L9.01211401003445,1.270010166472282 L9.01196811722111,1.1724624282302076 L9.011883726013432,1.146854841594429 L9.0118400496051,1.1403750907297145 L9.01179594410293,1.1382082176880965 " />
			<path d="M9.01179594410293,1.1382082176880965 L9.011751806274814,1.1403778482472957 L9.011708089719809,1.1468658186937906 L9.011623598502405,1.1725054927490783 L9.011477455349606,1.2701693045765614 L9.01134549432838,1.5886582170128687 " />
			<path d="M9.00894549552838,1.5910582134128786 L9.009077138351833,1.908965324495002 L9.009222976084299,2.0063970424249398 L9.009307318552143,2.031972560560231 L9.009350967788524,2.03844409690254 L9.00939504530383,2.0406082140876523 " />
			<path d="M9.00939504530383,2.0406082140876523 L9.009439155139741,2.03844134113425 L9.009482844507563,2.031961590356901 L9.009567286930363,2.0063540038899563 L9.009713374838983,1.9088062659398628 L9.00984549485338,1.5906082145378773 L9.00971401123445,1.272410162872288 L9.009568118421111,1.1748624246302135 L9.009483727213432,1.149254837994435 L9.0094400508051,1.1427750871297204 L9.00939594530293,1.1406082140881024 " />
			<path d="M9.00939594530293,1.1406082140881024 L9.009351807474815,1.1427778446473016 L9.00930809091981,1.1492658150937967 L9.009223599702405,1.1749054891490842 L9.009077456549607,1.2725693009765675 L9.00894549552838,1.5910582134128746 " />
			<path d="M9.006545496728378,1.5934582098128842 L9.006677139551831,1.9113653208950077 L9.006822977284298,2.0087970388249454 L9.006907319752141,2.0343725569602364 L9.006950968988523,2.0408440933025456 L9.006995046503828,2.043008210487658 " />
			<path d="M9.006995046503828,2.043008210487658 L9.00703915633974,2.0408413375342556 L9.007082845707561,2.0343615867569067 L9.007167288130361,2.008754000289962 L9.007313376038981,1.9112062623398685 L9.007445496053379,1.593008210937883 L9.007314012434449,1.2748101592722936 L9.00716811962111,1.1772624210302192 L9.00708372841343,1.1516548343944406 L9.007040052005099,1.145175083529726 L9.00699594650293,1.143008210488108 " />
			<path d="M9.00699594650293,1.143008210488108 L9.006951808674813,1.1451778410473072 L9.006908092119808,1.1516658114938023 L9.006823600902404,1.1773054855490899 L9.006677457749605,1.2749692973765732 L9.006545496728378,1.5934582098128802 " />
			<path d="M9.004145497928377,1.5958582062128899 L9.00427714075183,1.9137653172950133 L9.004422978484296,2.011197035224951 L9.00450732095214,2.036772553360242 L9.004550970188522,2.0432440897025512 L9.004595047703827,2.0454082068876636 " />
			<path d="M9.004595047703827,2.0454082068876636 L9.004639157539739,2.043241333934261 L9.00468284690756,2.0367615831569124 L9.00476728933036,2.0111539966899676 L9.00491337723898,1.913606258739874 L9.005045497253377,1.5954082073378886 L9.004914013634448,1.2772101556722992 L9.004768120821108,1.1796624174302248 L9.00468372961343,1.1540548307944463 L9.004640053205097,1.1475750799297317 L9.004595947702928,1.1454082068881137 " />
			<path d="M9.004595947702928,1.1454082068881137 L9.004551809874812,1.147577837447313 L9.004508093319807,1.154065807893808 L9.004423602102403,1.1797054819490955 L9.004277458949604,1.2773692937765788 L9.004145497928377,1.5958582062128859 " />
			<path d="M9.001745499128376,3.998257002614996 L9.001877141951828,4.31616411369712 L9.002022979684295,4.413595831627057 L9.002107322152138,4.439171349762348 L9.00215097138852,4.4456428861046575 L9.002195048903825,4.447807003289769 " />
			<path d="M9.002195048903825,4.447807003289769 L9.002239158739737,4.4456401303363675 L9.002282848107559,4.439160379559018 L9.002367290530358,4.413552793092074 L9.002513378438978,4.31600505514198 L9.002645498453376,3.9978070037399944 L9.002514014834446,3.679608952074405 L9.002368122021107,3.582061213832331 L9.002283730813428,3.5564536271965523 L9.002240054405096,3.549973876331838 L9.002195948902926,3.54780700329022 " />
			<path d="M9.002195948902926,3.54780700329022 L9.00215181107481,3.549976633849419 L9.002108094519805,3.556464604295914 L9.002023603302401,3.5821042783512014 L9.001877460149602,3.6797680901786847 L9.001745499128376,3.998257002614992 " />
			<path d="M9.001745499128376,1.5982582026128955 L9.001877141951828,1.916165313695019 L9.002022979684295,2.0135970316249567 L9.002107322152138,2.0391725497602478 L9.00215097138852,2.045644086102557 L9.002195048903825,2.047808203287669 " />
			<path d="M9.002195048903825,2.047808203287669 L9.002239158739737,2.045641330334267 L9.002282848107559,2.039161579556918 L9.002367290530358,2.0135539930899733 L9.002513378438978,1.9160062551398798 L9.002645498453376,1.5978082037378942 L9.002514014834446,1.2796101520723049 L9.002368122021107,1.1820624138302305 L9.002283730813428,1.156454827194452 L9.002240054405096,1.1499750763297374 L9.002195948902926,1.1478082032881194 " />
			<path d="M9.002195948902926,1.1478082032881194 L9.00215181107481,1.1499778338473186 L9.002108094519805,1.1564658042938136 L9.002023603302401,1.1821054783491012 L9.001877460149602,1.2797692901765845 L9.001745499128376,1.5982582026128915 " />
			<path d="M8.986995506503371,-4.953191766691708 L9.024995487503386,-4.953191728691765 " />
			<path d="M9.029495485253387,16.470500794250867 L9.029495485253387,6.300632898100653 " />
			<path d="M9.018486841512319,6.3006328870920205 L9.029495485253387,6.300632898100654 " />
			<path d="M9.029495485253387,16.470500794250864 L9.028031019891552,20.007497396317113 L9.026408903958503,21.092982725320816 L9.02547093887574,21.378449286661215 L9.024985573209989,21.450931847187878 L9.024740826002352,21.46923023278884 L9.024495487753384,21.475498286755254 " />
			<path d="M8.975495512253367,21.52449821325537 L9.024495487753386,21.475498286755254 " />
			<path d="M8.975495512253367,21.52449821325537 L8.975490512258368,21.524500713248493 " />
			<path d="M8.975490512258368,21.524500713248493 L8.975346304465642,21.522420627527854 L8.975202220818906,21.516182101356872 L8.974914905290454,21.491253945979167 L8.974347019644236,21.391955784328367 L8.973264417778077,21.001348263067584 " />
			<path d="M8.970692947835804,21.001348260496115 L8.973264417778077,21.00134826306758 " />
			<path d="M8.971020895795798,18.760069800524594 L8.970495514753365,16.52950070575105 " />
			<path d="M8.970495514753365,-16.47048279427787 L8.970495514753365,16.529500705751005 " />
			<path d="M8.970495514753365,-16.470482794277867 L8.9719599801152,-20.007479396344117 L8.973582096048249,-21.092964725347823 L8.974520061131011,-21.37843128668822 L8.975005426796763,-21.45091384721488 L8.9752501740044,-21.469212232815842 L8.975495512253367,-21.475480286782258 " />
			<path d="M9.024495487753384,-21.524480213282374 L8.975495512253366,-21.475480286782258 " />
			<path d="M9.024495487753384,-21.524480213282374 L9.024500487748384,-21.524482713275496 " />
			<path d="M9.024500487748384,-21.524482713275496 L9.024623114162923,-21.522978723306565 L9.024745663797933,-21.518467658439274 L9.024990237918455,-21.50043696677425 L9.025475229433804,-21.42853100741526 L9.026412367965388,-21.144358583689804 L9.028032787215016,-20.06178394002383 L9.029495485253387,-16.529482705778022 " />
			<path d="M8.986995506503371,-2.35961685212423 L9.029495485253387,-2.3596168096242933 " />
			<path d="M9.029495485253387,-2.359616809624292 L9.029495485253387,-16.52948270577801 " />
			<path d="M9.029495485253387,-2.359616809624293 L9.030195484903388,-1.279805691761426 " />
			<path d="M9.030195484903388,-1.2798056917613692 L9.030196884976188,-1.2744607199313687 " />
			<path d="M9.030196884976187,-1.2744607199313684 L9.02669696861297,-0.9916680890973151 L9.01753205426975,-0.7052739433912233 " />
			<path d="M9.017521242323099,4.644078388686771 L9.026693821594376,4.930863928529835 L9.030196884977986,5.214071210516925 " />
			<path d="M9.030196884977986,5.214071210516932 L9.030195484903388,5.219421782337712 " />
			<path d="M9.029495485253387,6.3006328981006545 L9.030195484903388,5.219421782337781 " />
			<path d="M8.986995506503371,-3.2161743446610003 L9.028695485653387,-3.216174302961063 " />
			<path d="M8.970873574175998,18.43638859800655 L8.971833470615968,18.436388598966445 " />
			<path d="M8.970403420698194,20.18845057140658 L8.973587286405628,20.188450574590444 " />
			<path d="M9.019285124799051,7.158790379627075 L9.028695485653387,7.158790389037427 " />
			<path d="M8.986995506503371,-1.5179280762194063 L9.01793331320798,-1.5179280452816306 " />
			<path d="M8.206394884125919,24.15339511703065 L8.301159000415424,24.05386134781086 L8.390925073954177,23.949797611695246 L8.475476850408441,23.84145460733902 L8.55461063714288,23.729093342529403 L8.628135793933945,23.612984505395005 L8.695875192238887,23.493407812294414 L8.757665641913917,23.370651333954992 L8.813358284353564,23.245010801485254 L8.862818951104092,23.116788893932736 L8.905928487087056,22.98629450910364 L8.942583037654323,22.85384201940098 L8.972694298783018,22.719750514473915 L8.996189729807648,22.584343032502844 L9.013012728176914,22.44794578197213 L9.023122765814229,22.31088735580529 L9.026495486753387,22.173497939755872 " />
			<path d="M8.971133362123334,21.376708123990827 L8.971545611894994,21.563891966028695 L8.971767467112159,21.6118911279636 L8.971880400469733,21.62396692002102 L8.971993914004965,21.627998958003268 " />
			<path d="M8.971993914004965,21.627998958003268 L8.972085548852098,21.625372902813865 L8.97217688815362,21.61750335727002 L8.972357482763899,21.5861542517502 L8.972702118427096,21.462808856584726 L8.973264417778077,21.001348263067584 " />
			<path d="M8.971020895795798,18.76006980052458 L8.970395514803366,20.029598955604055 " />
			<path d="M8.970395514803366,20.02959895560407 L8.970647666988398,20.891498683704274 " />
			<path d="M-6.226496886752336,-24.97349373976251 L-6.363886306174416,-24.970121156212635 L-6.500944742451214,-24.960011255633614 L-6.63734200980484,-24.94318839366147 L-6.77274951527125,-24.9196930980442 L-6.906841050309478,-24.88958197100689 L-7.039293576666587,-24.852927552891998 L-7.169788004605111,-24.80981814740331 L-7.298009961618183,-24.760357608874585 L-7.423650549780442,-24.704665092075373 L-7.546407089910191,-24.64287476515673 L-7.665983850750052,-24.575135486428394 L-7.782092761409478,-24.50161044574609 L-7.894454105352749,-24.42247677137284 L-8.002797194260612,-24.337925103261515 L-8.106861020142157,-24.248159133786437 L-8.206394884125901,-24.15339511703067 " />
			<path d="M-8.206394884125919,-24.153395117030648 L-8.301159000415424,-24.05386134781086 L-8.390925073954177,-23.949797611695246 L-8.475476850408441,-23.84145460733902 L-8.55461063714288,-23.729093342529403 L-8.628135793933945,-23.612984505395005 L-8.695875192238887,-23.493407812294414 L-8.757665641913917,-23.370651333954992 L-8.813358284353564,-23.245010801485254 L-8.862818951104092,-23.116788893932736 L-8.905928487087056,-22.98629450910364 L-8.942583037654323,-22.85384201940098 L-8.972694298783018,-22.719750514473912 L-8.996189729807647,-22.584343032502844 L-9.013012728176914,-22.44794578197213 L-9.023122765814229,-22.31088735580529 L-9.026495486753387,-22.173497939755865 " />
			<path d="M-6.173496913252314,-25.026493660262638 L-6.310886332674394,-25.023121076712762 L-6.447944768951191,-25.01301117613374 L-6.584342036304818,-24.996188314161596 L-6.719749541771227,-24.972693018544327 L-6.853841076809456,-24.942581891507018 L-6.986293603166565,-24.905927473392126 L-7.116788031105088,-24.862818067903437 L-7.245009988118161,-24.813357529374713 L-7.37065057628042,-24.7576650125755 L-7.493407116410169,-24.695874685656857 L-7.612983877250031,-24.628135406928525 L-7.729092787909456,-24.554610366246216 L-7.8414541318527275,-24.47547669187297 L-7.9497972207605905,-24.390925023761643 L-8.053861046642135,-24.301159054286565 L-8.15339491062588,-24.206395037530797 " />
			<path d="M-6.173483913271813,-25.02649366024964 L-6.173490413258816,-25.0264969102537 " />
			<path d="M-6.173490413258816,-25.0264969102537 L-6.173496913252316,-25.026493660262638 " />
			<path d="M6.2265033867458355,-25.0264845102723 L6.226496886752336,-25.026481260281237 " />
			<path d="M-6.1734969132523165,-25.026493660262634 L6.226496886752335,-25.026481260281237 " />
			<path d="M-6.1734969132523165,-25.026493660262638 L-6.2264968867523365,-24.97349373976251 " />
			<path d="M6.2264968867523365,-25.026481260281237 L6.1734969132523165,-24.97348133978111 " />
			<path d="M-6.226496886752335,-24.973493739762507 L6.173496913252318,-24.97348133978111 " />
			<path d="M-6.232996883502338,-18.466996999506808 L6.166996916502313,-18.46698459952541 " />
			<path d="M-6.226496886752336,-24.97349373976251 L-6.226815826475994,-24.965345269606175 L-6.227133997845923,-24.941557368324926 L-6.227764973211397,-24.847330039640262 L-6.2289843278189885,-24.476223509897746 L-6.231093078531953,-23.065092582192936 L-6.232996883502338,-18.46699699950687 " />
			<path d="M6.173496913252316,-24.97348133978111 L6.173177973528658,-24.965332869624774 L6.172859802158729,-24.941544968343525 L6.172228826793254,-24.84731763965886 L6.171009472185663,-24.476211109916346 L6.168900721472698,-23.065080182211535 L6.166996916502313,-18.466984599525468 " />
			<path d="M6.1734969132523165,-24.97348133978111 L6.310886332674395,-24.97010848145267 L6.447944768951194,-24.95999830675705 L6.58434203630482,-24.943175171990642 L6.71974954177123,-24.919679605558635 L6.853841076809458,-24.88956821033852 L6.986293603166567,-24.85291352731884 L7.116788031105091,-24.80980386084156 L7.245009988118163,-24.76034306586918 L7.370650576280423,-24.70465029778904 L7.493407116410171,-24.64285972535756 L7.6129838772500324,-24.575120207475948 L7.729092787909458,-24.501594934576048 L7.84145413185273,-24.42246103548034 L7.949797220760592,-24.33790915068305 L8.053861046642137,-24.248142973080533 L8.153394910625899,-24.153378757257215 L8.248159026915404,-24.05384479850938 L8.337925100454155,-23.949780882861802 L8.422476876908421,-23.841437709402193 L8.50161066364286,-23.72907628632516 L8.575135820433927,-23.61296730214059 L8.642875218738867,-23.493390473561337 L8.704665668413897,-23.37063387164114 L8.760358310853544,-23.24499322778623 L8.809818977604072,-23.11677122131248 L8.852928513587036,-22.986276750264395 L8.889583064154303,-22.85382418725271 L8.919694325282999,-22.71973262210318 L8.943189756307628,-22.584325093141295 L8.960012754676896,-22.44792780896462 L8.970122792314209,-22.310869362577726 L8.973495513253367,-22.173479939782887 " />
			<path d="M8.973495513253367,-22.173479939782865 L8.973313962949131,-22.16884157984772 L8.973132850015478,-22.155300774503008 L8.972773679422824,-22.101663679713276 L8.97207958526158,-21.890418424321382 L8.970879219471122,-21.087159280858643 L8.969795515103366,-18.469781795329652 " />
			<path d="M6.166996916502312,-18.466984599525407 L8.147715014478521,-18.467802719411917 L8.755586799628677,-18.46871049646325 L8.915448074504479,-18.46923559704848 L8.956038308671195,-18.46950736123111 L8.966285404744784,-18.4696444094203 L8.969795515103364,-18.469781795329613 " />
			<path d="M8.969795515103364,-18.469781795329617 L8.969795515103364,18.53019970470276 " />
			<path d="M6.166996916502313,18.53299690050697 L8.147715014478523,18.53217878062046 L8.755586799628677,18.531271003569127 L8.915448074504479,18.530745902983895 L8.956038308671195,18.530474138801267 L8.966285404744786,18.530337090612075 L8.969795515103366,18.530199704702763 " />
			<path d="M6.166996916502314,-18.46698459952541 L6.166996916502314,18.532996900506966 " />
			<path d="M8.969795515103366,18.53019970470276 L8.970647666988398,20.891498683704253 " />
			<path d="M8.971133362123334,21.376708123990813 L8.972239933626632,22.00820154032143 L8.9728581979399,22.171833926078154 L8.97317565819365,22.212966476172507 L8.973335435837686,22.223193505874328 L8.973495513253367,22.22649786025599 " />
			<path d="M6.171271687073415,24.63595769564232 L6.172363901722488,24.928117607022678 L6.172924989324081,25.001855376071457 L6.173207426800153,25.02033360454083 L6.173348884935181,25.024955901084795 L6.173490413258816,25.0264969102537 " />
			<path d="M6.173490413258816,25.0264969102537 L6.173496913252316,25.026493660262638 " />
			<path d="M6.166996916502313,18.532996900506966 L6.169226084086917,23.430765285155783 " />
			<path d="M3.4698982650513015,23.942115149947842 L3.4698982650513015,23.430762585830703 " />
			<path d="M-6.232996883502338,18.53298450052557 L6.166996916502315,18.532996900506966 " />
			<path d="M-6.226496886752335,25.02648126028124 L6.1734839132718164,25.02649366024964 " />
			<path d="M-6.232996883502338,18.532984500525565 L-6.2310953760524574,23.12497610504513 L-6.228988831027942,24.5323231418109 L-6.227770550936881,24.901747292653994 L-6.227140061966928,24.995225039820678 L-6.226822115610249,25.01866493898521 L-6.2266628010847365,25.024529323312688 L-6.2265033867458355,25.0264845102723 " />
			<path d="M-6.2265033867458355,25.0264845102723 L-6.226496886752336,25.026481260281237 " />
			<path d="M-6.232996883502338,18.53298450052557 L-8.211085573859897,18.53216341153737 L-8.817327373405107,18.531255370516384 L-8.976463930166485,18.530730413802296 L-9.016731267135905,18.530458778286405 L-9.026828454331351,18.530321806681737 L-9.030196884902338,18.53018450472556 " />
			<path d="M-9.030196884902338,18.53018450472556 L-9.030195484903388,18.53018170472976 " />
			<path d="M-9.030195484903382,18.530187304721363 L-9.029343333018353,20.891480683731256 " />
			<path d="M-6.226509886763016,25.026481260238057 L-6.352487105376746,25.023645136789064 L-6.478209156541142,25.01514393217507 L-6.603421415925279,25.00099486384932 L-6.727870291677331,24.9812265878592 L-6.851303738023077,24.955879140809273 L-6.973471765733109,24.92500385877532 L-7.094126948424956,24.8886632733336 L-7.213024923674675,24.84693098491592 L-7.329924887923018,24.799891513747006 L-7.444590084173841,24.74764012866603 L-7.556788281497048,24.690282654179065 L-7.6662922453648825,24.627935256133142 L-7.772880197869052,24.560724206446082 L-7.876336266886566,24.488785627368507 L-7.976450923284629,24.412265215796037 L-8.07302140527909,24.33131794818999 L-8.165852129087009,24.24610776670422 L-8.254755085041667,24.15680724715377 L-8.339550218367727,24.063597249497818 L-8.420065793845398,23.96666655154479 L-8.496138743625043,23.866211466621458 L-8.567614997487798,23.762435445980405 L-8.634349794883319,23.655548666751077 L-8.696207978112701,23.54576760626895 L-8.7530642660628,23.4333146036449 L-8.80480350793752,23.31841740946276 L-8.85132091647223,23.201308724517055 L-8.89252228015897,23.082225728525053 L-8.928324154052596,22.961409599767716 L-8.958654028771493,22.839105026632367 L-8.983450477350491,22.715559712046343 L-9.002663279648651,22.591023871805323 " />
			<path d="M-9.030195484903388,-18.469794195311017 L-9.030195484903388,18.530181704729763 " />
			<path d="M-9.026495486753385,-22.173497939755862 L-9.02667703705762,-22.168859579820715 L-9.026858149991273,-22.155318774476005 L-9.027217320583928,-22.101681679686273 L-9.027911414745171,-21.89043642429438 L-9.02911178053563,-21.08717728083164 L-9.030195484903386,-18.46979979530265 " />
			<path d="M9.028690974383561,16.47050079344636 L9.029495485253387,16.470500794250867 " />
			<path d="M8.974792261513457,21.47549823705208 L9.024495487753384,21.475498286755254 " />
			<path d="M8.975485512268367,21.524498213245373 L8.975495512253367,21.52449821325537 " />
			<path d="M9.028690901167192,-16.52948270658259 L9.029495485253387,-16.52948270577801 " />
			<path d="M8.972863911522293,-20.724280665013197 L9.024295487853385,-20.72428061358167 " />
			<path d="M8.97278708956782,-20.675680689389978 L8.975695512153367,-20.675680686481556 " />
			<path d="M8.970495514753365,-16.271282893877693 L8.971295514353365,-16.271282893077693 " />
			<path d="M8.970495514753365,16.32870080615083 L8.971295514353365,16.32870080695083 " />
			<path d="M8.970554275221696,20.72429860841344 L8.975686712166572,20.724298613545873 " />
			<path d="M-6.232996883502337,-18.466996999506808 L-8.211085573859895,-18.467818088495008 L-8.817327373405107,-18.468726129515993 L-8.976463930166485,-18.46925108623008 L-9.016731267135903,-18.46952272174597 L-9.026828454331351,-18.46965969335064 L-9.030196884902336,-18.469796995306815 " />
			<path d="M-9.030196884902336,-18.469796995306815 L-9.030195484903386,-18.469799795302617 " />
			<path d="M-6.232996883502339,-18.46699699950681 L-6.232996883502339,18.532984500525565 " />
			<path d="M8.973495513253367,22.226497860255986 L8.97744910111506,22.222544276347875 " />
			<path d="M8.978141921091677,22.221851457064076 L8.979649100015061,22.22034427964787 " />
			<path d="M8.980341919991677,22.219651460364073 L8.981849098915061,22.218144282947865 " />
			<path d="M8.982541918891679,22.217451463664066 L9.026495486753387,22.17349793975586 " />
			<path d="M8.206394884125919,24.15339511703065 L8.301159000415424,24.05386134781086 L8.390925073954177,23.949797611695246 L8.475476850408441,23.84145460733902 L8.55461063714288,23.729093342529403 L8.628135793933945,23.612984505395005 L8.695875192238887,23.493407812294414 L8.757665641913917,23.370651333954992 L8.813358284353564,23.245010801485254 L8.862818951104092,23.116788893932736 L8.905928487087056,22.98629450910364 L8.942583037654323,22.85384201940098 L8.972694298783018,22.719750514473915 L8.996189729807648,22.584343032502844 L9.013012728176914,22.44794578197213 L9.023122765814229,22.31088735580529 L9.026495486753387,22.173497939755872 " />
			<path d="M9.026495486753385,22.173497939755862 L9.02667703705762,22.168859579820715 L9.026858149991273,22.155318774476005 L9.027217320583928,22.101681679686273 L9.027911414745171,21.89043642429438 L9.02911178053563,21.08717728083164 L9.030195484903386,18.46979979530262 " />
			<path d="M9.030195484903388,18.469794195311017 L9.030196884902338,18.469796995306815 " />
			<path d="M9.030196884902338,18.469796995306815 L9.030195484903388,18.469799795302617 " />
			<path d="M9.030195484903388,18.469799795302613 L9.030195484903388,5.219421782337768 " />
			<path d="M9.030195484903388,-1.2798056917614176 L9.030195484903388,-18.530181704729763 " />
			<path d="M9.030195484903386,-18.530181704729763 L9.02911178053563,-21.145391783690677 L9.027911414745171,-21.94625019797323 L9.027217320583928,-22.156107266430823 L9.026858149991273,-22.209026020753583 L9.02667703705762,-22.22220460059322 L9.026495486753385,-22.226479860282993 " />
			<path d="M9.026495486753385,-22.22647986028299 L8.973495513253365,-22.17347993978286 " />
			<path d="M6.226496886752335,-25.026481260281237 L6.363886306174414,-25.023108401952797 L6.500944742451211,-25.012998227257178 L6.637342009804838,-24.99617509249077 L6.772749515271248,-24.972679526058762 L6.906841050309478,-24.942568130838648 L7.039293576666587,-24.905913447818968 L7.169788004605111,-24.862803781341686 L7.298009961618183,-24.813342986369307 L7.423650549780443,-24.757650218289168 L7.546407089910192,-24.695859645857688 L7.665983850750052,-24.62812012797607 L7.782092761409476,-24.554594855076175 L7.894454105352746,-24.475460955980466 L8.002797194260609,-24.39090907118318 L8.106861020142153,-24.30114289358066 L8.206394884125917,-24.206378677757343 L8.301159000415424,-24.10684471900951 L8.390925073954175,-24.00278080336193 L8.475476850408441,-23.89443762990232 L8.554610637142877,-23.782076206825288 L8.628135793933943,-23.66596722264072 L8.695875192238883,-23.54639039406147 L8.757665641913915,-23.423633792141274 L8.813358284353562,-23.297993148286363 L8.86281895110409,-23.16977114181261 L8.905928487087055,-23.03927667076453 L8.942583037654321,-22.90682410775284 L8.972694298783018,-22.77273254260331 L8.996189729807647,-22.637325013641423 L9.013012728176914,-22.500927729464745 L9.023122765814229,-22.363869283077854 L9.026495486753387,-22.226479860283014 " />
			<path d="M-6.173496913252314,-25.026493660262638 L-6.310886332674394,-25.023121076712762 L-6.447944768951191,-25.01301117613374 L-6.584342036304818,-24.996188314161596 L-6.719749541771227,-24.972693018544327 L-6.853841076809456,-24.942581891507018 L-6.986293603166565,-24.905927473392126 L-7.116788031105088,-24.862818067903437 L-7.245009988118161,-24.813357529374713 L-7.37065057628042,-24.7576650125755 L-7.493407116410169,-24.695874685656857 L-7.612983877250031,-24.628135406928525 L-7.729092787909456,-24.554610366246216 L-7.8414541318527275,-24.47547669187297 L-7.9497972207605905,-24.390925023761643 L-8.053861046642135,-24.301159054286565 L-8.15339491062588,-24.206395037530797 " />
			<path d="M9.030196884902338,-18.53018450472556 L9.030195484903388,-18.53018170472976 " />
			<path d="M-6.173490413258815,-25.026496910253698 L6.226503386745836,-25.0264845102723 " />
			<path d="M6.173490413258816,25.0264969102537 L6.310875951498866,25.02312558775008 L6.447940705138135,25.013014352595224 L6.584346671322977,24.996189388353347 L6.719760985335408,24.9726922785156 L6.853855920593112,24.94258000650006 L6.986308888649439,24.905924955651745 L7.116802439193404,24.86281490924261 L7.24502426004969,24.813353050471523 L7.370667177178643,24.757657962464307 L7.493429154676279,24.695863628273706 L7.613013294774275,24.62811943087941 L7.729127837839978,24.55459015318802 L7.841486162376399,24.475455978033093 L7.949817270264533,24.390909263236686 L8.053870548420578,24.301150506586566 L8.153394910625803,24.20639503753087 " />
			<path d="M-6.226503386745836,25.026484510272304 L6.173490413258815,25.0264969102537 " />
			<path d="M-9.030196884902336,18.53018450472556 L-9.029323869014078,20.917575533158242 " />
			<path d="M-9.028885423185411,21.356283105034457 L-9.026848567373264,22.222932979145586 L-9.024556226578557,22.33229502489888 L-9.02072475375949,22.406476830467987 L-9.01324187297051,22.499003499632284 L-9.002303324789574,22.59375012101486 L-8.989719950320591,22.678901559907505 L-8.961871021844315,22.824643643639092 L-8.926324273392577,22.968770490493316 L-8.883183497284131,23.110829379765768 L-8.832570866118004,23.2504094295688 L-8.776925330657086,23.382059883651497 L-8.714633622979758,23.51070093832309 L-8.645858154590503,23.63599659777112 L-8.57077819058613,23.75761997073054 L-8.496048826840314,23.866351091770284 L-8.416280362136408,23.97144144523014 L-8.331649907110814,24.07265763849726 L-8.242345368344619,24.16977490595442 L-8.176368281371403,24.23596777084742 L-8.108218856940777,24.2999219209442 L-8.0379730826363,24.361566180381455 L-7.965709734515114,24.420832520138244 L-7.872302451159124,24.49173339466741 L-7.775998950268542,24.55866473194113 L-7.676973685921234,24.62150649204014 L-7.575403953159665,24.680146775497587 L-7.471469885178137,24.73448181974558 L-7.365354451087395,24.784415996291184 L-7.257243454171444,24.82986180851422 L-7.147325530558238,24.870739889987917 L-7.035792148232695,24.90697900323203 L-6.92283760632734,24.938516038816704 L-6.808659034632636,24.96529601474385 L-6.693456393275952,24.987272076041585 L-6.577432472524837,25.004405494515716 L-6.460792892677172,25.01666566861095 L-6.34374610400752,25.024030123343124 L-6.226503386745849,25.026484510272308 " />
			<path d="M8.972863915070725,-20.724282865011542 L9.024299887848985,-20.72428281357562 " />
			<path d="M8.970554276282884,20.72430080841179 L8.975691112157767,20.724300813548624 " />
			<path d="M-9.030196884902338,-18.469796995306815 L-9.030196884902338,18.53018450472556 " />
			<path d="M8.153394910625899,24.206395037530775 L8.157295414023388,24.202494538033786 " />
			<path d="M8.158094402891962,24.2016955499642 L8.159495412923388,24.20029454133378 " />
			<path d="M8.160294401791962,24.199495553264192 L8.161695411823388,24.198094544633776 " />
			<path d="M8.162494400691962,24.19729555656419 L8.206394884125919,24.153395117030648 " />
			<path d="M9.030196884902336,18.469796995306815 L9.029500681494287,20.63187173777992 L9.029145647436982,21.055630562685923 L9.028754373664054,21.40456166115126 L9.028367676479514,21.666207559683304 L9.027701898665983,21.974598648844996 L9.02681894418607,22.172590039978864 L9.02500627076834,22.26656023738622 L9.016542032161354,22.40968045374314 L9.007923264312486,22.49551237799771 L8.997838576161197,22.57314161943238 L8.97958943286586,22.683914641302557 L8.956900361544198,22.793919212509664 L8.929808997571111,22.902959286318026 L8.898359974544649,23.010844990051847 L8.862604814713604,23.117392315711115 L8.82260181940513,23.22242281058748 L8.778415959452335,23.325763267880177 L8.730118765621905,23.427245417311905 L8.677788219041684,23.526705615744728 L8.621508641628308,23.623984537795984 L8.56137058651479,23.718926866454165 L8.49747072847814,23.81138098369482 L8.429911754366957,23.90119866109647 L8.358802253529047,23.98823475045647 L8.284256608239023,24.072346874406943 L8.20639488412593,24.153395117030634 " />
			<path d="M-9.030196884902336,-18.469796995306815 L-9.029500681494287,-20.631871737779928 L-9.029145647436982,-21.055630562685923 L-9.028754373664054,-21.404561661151263 L-9.028367676479512,-21.666207559683304 L-9.027701898665983,-21.974598648844996 L-9.02681894418607,-22.172590039978864 L-9.025006270768342,-22.266560237386162 L-9.016542032161352,-22.409680453743174 L-9.007923264312488,-22.495512377997677 L-8.997838576161197,-22.57314161943238 L-8.979589432865863,-22.68391464130257 L-8.9569003615442,-22.793919212509678 L-8.929808997571111,-22.902959286318033 L-8.898359974544647,-23.010844990051847 L-8.862604814713603,-23.117392315711108 L-8.82260181940513,-23.222422810587467 L-8.778415959452337,-23.325763267880163 L-8.730118765621906,-23.427245417311894 L-8.677788219041688,-23.526705615744724 L-8.621508641628312,-23.623984537795984 L-8.561370586514794,-23.718926866454165 L-8.497470728478142,-23.811380983694825 L-8.429911754366955,-23.90119866109647 L-8.358802253529042,-23.988234750456467 L-8.28425660823902,-24.072346874406936 L-8.20639488412593,-24.153395117030634 " />
			<path d="M-8.153394910625899,-24.206395037530775 L-8.206394884125919,-24.153395117030648 " />
			<path d="M9.030196884902336,-18.53018450472556 L9.029509558267355,-20.67847225726519 L9.02915627396939,-21.10297733316035 L9.028766446055865,-21.452729099259688 L9.028380843878653,-21.71518212578614 L9.027716447833688,-22.024934816339623 L9.026837805261618,-22.2242225160769 L9.02544016849349,-22.30634830164575 L9.019280515286493,-22.427652096400955 L9.012297608070398,-22.508501946576086 L9.002806601298031,-22.58993074574985 " />
			<path d="M8.999090673340403,-22.61726864722572 L8.988732573324452,-22.68489047751769 L8.960567300203556,-22.830574327035016 L8.924708356990582,-22.974622807049155 L8.881260215823472,-23.116586183245364 L8.83034588539548,-23.2560543359153 L8.774415195215996,-23.38758391435616 L8.711844887313447,-23.51608965657611 L8.642798096294571,-23.64123594270531 L8.56745479284006,-23.76269628164183 L8.492489993637228,-23.871265211806474 L8.412493996928463,-23.976182460668944 L8.327644418236568,-24.07721502124484 L8.238129650475104,-24.17413853649094 L8.172009284575154,-24.24018827743288 L8.10372143775167,-24.30399460122147 L8.03334225055774,-24.36548649558774 L7.960950637821688,-24.42459609175085 L7.867697072890589,-24.495072205838685 L7.771574091505982,-24.56159853232175 L7.672754658276669,-24.624056544699062 L7.571414533397956,-24.68233575525414 L7.467732269892503,-24.7363337115538 L7.3618892114175525,-24.785955993665638 L7.254069490554983,-24.831116211988164 L7.144460027507329,-24.871736005596155 L7.03325052912963,-24.90774504101209 L6.920633488233578,-24.939081011323175 L6.806804183107198,-24.965689635571813 L6.69196067719993,-24.987524658356012 L6.5763038189296505,-25.004547849584494 L6.460037241574929,-25.016729004339975 L6.34336736322239,-25.02404594281237 L6.226503386745851,-25.026484510272308 " />
			<path d="M-6.173490413258816,-25.0264969102537 L-6.310875951498863,-25.02312558775008 L-6.447940705138132,-25.013014352595224 L-6.584346671322972,-24.996189388353347 L-6.719760985335402,-24.9726922785156 L-6.853855920593104,-24.942580006500062 L-6.98630888864943,-24.90592495565175 L-7.1168024391933935,-24.862814909242612 L-7.245024260049678,-24.813353050471527 L-7.370667177178629,-24.75765796246431 L-7.493429154676262,-24.695863628273713 L-7.613013294774257,-24.628119430879416 L-7.729127837839958,-24.55459015318803 L-7.84148616237638,-24.475455978033104 L-7.9498172702645205,-24.390909263236697 L-8.053870548420573,-24.301150506586573 L-8.153394910625803,-24.20639503753087 " />
			<path d="M9.030196884902338,18.469796995306815 L9.030196884902338,5.214071210516822 " />
			<path d="M9.030196884902338,-1.2744607199314757 L9.030196884902338,-18.53018450472556 " />

       </g>
    </g>
    
</svg>
