<?xml version="1.0" encoding="UTF-8" standalone="no"?>
<svg
   xmlns:svg="http://www.w3.org/2000/svg"
   xmlns="http://www.w3.org/2000/svg"
   width="640.0"
   height="420.0"

>
    <g transform="scale(5.0806451435198134, -5.0806451435198134)   translate(16.39371314020641,-38.87301600182823)" stroke-width="0.19682539751383055"  fill="none">
       <!-- hidden lines -->
       <g  stroke="rgb(170,190,200)" fill="none" stroke-dasharray="0.19682539751383055,0.19682539751383055" >

       </g>

       <!-- solid lines -->
       <g  stroke="rgb(19,78,74)" fill="none">
			<path d="M5.7169971415021426,-31.0 L-5.682997158502133,-31.0 " />
			<path d="M-5.682997158502132,-31.0 L-5.716997141502144,-31.0 " />
			<path d="M-5.716997141502143,31.0 L-5.854386560924222,30.996627277374483 L-5.99144499720102,30.98651723468215 L-6.127842264554648,30.969694227901385 L-6.263249770021058,30.946198785129045 L-6.397341305059286,30.91608750894472 L-6.529793831416395,30.879432940050183 L-6.660288259354918,30.836323382512457 L-6.788510216367992,30.7868626910316 L-6.914150804530252,30.73117002074564 L-7.036907344660001,30.66937954017539 L-7.156484105499862,30.601640108000762 L-7.272593016159287,30.528114914447126 L-7.384954360102555,30.448981088145807 L-7.493297449010419,30.364429269415663 L-7.597361274891964,30.274663150993884 L-7.696895138875726,30.179898987322332 L-7.791659255165231,30.080365073571652 L-7.881425328703983,29.97630119565821 L-7.965977105158248,29.867958052578814 L-8.045110891892687,29.755596652454884 L-8.118636048683753,29.639487683741017 L-8.186375446988695,29.51991086311279 L-8.248165896663725,29.39715426160479 L-8.303858539103372,29.27151361062225 L-8.3533192058539,29.143291589498215 L-8.396428741836864,29.012797096312493 L-8.433083292404131,28.880344503729138 L-8.463194553532826,28.74625290164516 L-8.486689984557454,28.610845328475015 L-8.503512982926722,28.47444799292277 L-8.513623020564037,28.337389488116774 L-8.516995741503194,28.200000000000024 " />
			<path d="M-5.716997141502145,31.0 L-5.682997158502133,31.0 " />
			<path d="M-8.232767022487804,29.40000000000001 L-8.196843314400766,29.472978979603994 L-8.159416099226348,29.543779693673784 L-8.120773703874448,29.61211626514011 L-8.081276348092281,29.677655187707078 L-8.001413593788758,29.799008373918753 L-7.9241273434716035,29.904677089448395 L-7.855008374623855,29.991066746257978 L-7.800082706996408,30.054986152048382 L-7.764708891256677,30.09412410565687 L-7.755569015594249,30.103970963816906 L-7.753265362025556,30.1064237631402 L-7.752495898750869,30.107222870417797 " />
			<path d="M-7.752495898750869,30.107222870417797 L-7.755562858601635,30.10386441739635 L-7.764683444167031,30.093925197660088 L-7.799982693418984,30.05464395858774 L-7.854785170064671,29.990648044705228 L-7.923752071667494,29.904244945736412 L-8.00087774533259,29.798621581835235 L-8.080599181451644,29.677350340307793 L-8.120017114894711,29.61189654743845 L-8.158590069164454,29.543652181926 L-8.19597365528848,29.472919699283015 L-8.231869001465636,29.400000000000013 " />
			<path d="M-8.23276702248781,29.4 L-8.231869001465643,29.4 " />
			<path d="M-8.230167023787802,29.400000000000006 L-8.1942433157804,29.47297897944793 L-8.15681610063746,29.543779693470338 L-8.118173705304285,29.61211626491813 L-8.078676349564821,29.6776551874294 L-7.998813595307059,29.799008373605112 L-7.921527344934711,29.904677089236024 L-7.852408376027719,29.99106674613332 L-7.797482708346866,30.054986151991443 L-7.762108892569978,30.094124105642447 L-7.752969016897618,30.103970963813303 L-7.750665363326401,30.106423763139304 L-7.749895900050868,30.107222870417797 " />
			<path d="M-7.749895900050868,30.107222870417797 L-7.752962859901639,30.103864417396345 L-7.762083445467052,30.093925197660067 L-7.797382694719065,30.054643958587643 L-7.852185171364796,29.990648044705075 L-7.921152072967649,29.90424494573621 L-7.998277746632728,29.798621581835036 L-8.077999182751743,29.677350340307633 L-8.117417116194781,29.611896547438327 L-8.1559900704645,29.54365218192591 L-8.193373656588507,29.47291969928296 L-8.229269002765635,29.400000000000013 " />
			<path d="M-8.230167023787809,29.4 L-8.229269002765642,29.4 " />
			<path d="M-8.2275670250878,29.40000000000001 L-8.19164331707779,29.47297897945304 L-8.154216101933804,29.543779693477035 L-8.115573706599985,29.61211626492548 L-8.076076350859097,29.677655187438607 L-7.996213596599799,29.79900837361554 L-7.918927346229278,29.904677089243098 L-7.849808377324207,29.991066746137534 L-7.794882709645108,30.05498615199343 L-7.759508893869516,30.094124105642948 L-7.7503690181975005,30.103970963813428 L-7.748065364626371,30.106423763139333 L-7.747295901350867,30.107222870417797 " />
			<path d="M-7.747295901350867,30.107222870417797 L-7.750362861201641,30.10386441739634 L-7.759483446767058,30.09392519766006 L-7.794782696019088,30.05464395858761 L-7.8495851726648205,29.990648044705043 L-7.918552074267673,29.904244945736178 L-7.99567774793275,29.798621581834997 L-8.075399184051758,29.677350340307605 L-8.114817117494793,29.611896547438306 L-8.153390071764505,29.543652181925896 L-8.190773657888506,29.472919699282954 L-8.226669004065633,29.40000000000001 " />
			<path d="M-8.227567025087808,29.4 L-8.226669004065641,29.4 " />
			<path d="M-8.2249670263878,29.40000000000001 L-8.189043318380445,29.472978979447834 L-8.151616103237503,29.54377969347026 L-8.112973707904317,29.61211626491808 L-8.073476352164862,29.677655187429338 L-7.993613597907089,29.799008373605062 L-7.9163273475346765,29.904677089236067 L-7.847208378627652,29.9910667461334 L-7.792282710946786,30.054986151991535 L-7.756908895169958,30.094124105642468 L-7.747769019497611,30.103970963813314 L-7.745465365926398,30.106423763139308 L-7.744695902650866,30.107222870417797 " />
			<path d="M-7.744695902650866,30.107222870417797 L-7.747762862501637,30.103864417396345 L-7.7568834480670485,30.09392519766007 L-7.792182697319059,30.054643958587647 L-7.846985173964786,29.990648044705086 L-7.915952075567635,29.904244945736224 L-7.993077749232714,29.79862158183505 L-8.07279918535173,29.677350340307648 L-8.112217118794772,29.61189654743834 L-8.150790073064492,29.54365218192592 L-8.1881736591885,29.47291969928297 L-8.224069005365632,29.40000000000001 " />
			<path d="M-8.224967026387807,29.4 L-8.22406900536564,29.4 " />
			<path d="M-8.222367027687799,29.40000000000001 L-8.186443319680413,29.47297897944789 L-8.149016104537457,29.543779693470334 L-8.110373709204257,29.61211626491817 L-8.070876353464772,29.677655187429473 L-7.991013599206995,29.799008373605197 L-7.913727348834683,29.90467708923606 L-7.844608379927695,29.99106674613335 L-7.7896827122468375,30.054986151991475 L-7.75430889646997,30.094124105642454 L-7.745169020797613,30.103970963813307 L-7.742865367226397,30.106423763139304 L-7.742095903950865,30.107222870417797 " />
			<path d="M-7.742095903950865,30.107222870417797 L-7.745162863801636,30.103864417396345 L-7.754283449367045,30.09392519766007 L-7.789582698619046,30.054643958587665 L-7.844385175264765,29.990648044705107 L-7.9133520768675965,29.904244945736274 L-7.990477750532652,29.798621581835143 L-8.07019918665168,29.67735034030773 L-8.109617120094736,29.6118965474384 L-8.148190074364468,29.54365218192596 L-8.185573660488487,29.472919699282993 L-8.22146900666563,29.400000000000016 " />
			<path d="M-8.222367027687806,29.4 L-8.22146900666564,29.4 " />
			<path d="M-8.219767028987798,29.40000000000001 L-8.183843320980312,29.472978979448094 L-8.146416105837323,29.54377969347058 L-8.107773710504105,29.61211626491843 L-8.06827635476457,29.677655187429796 L-7.988413600506753,29.799008373605545 L-7.911127350134606,29.904677089236156 L-7.842008381227643,29.991066746133406 L-7.7870827135468215,30.054986151991493 L-7.751708897769965,30.094124105642457 L-7.742569022097611,30.10397096381331 L-7.740265368526396,30.106423763139308 L-7.739495905250864,30.107222870417797 " />
			<path d="M-7.739495905250864,30.107222870417797 L-7.742562865101634,30.103864417396345 L-7.7516834506670405,30.093925197660074 L-7.78698269991904,30.054643958587665 L-7.841785176564771,29.9906480447051 L-7.910752078167636,29.90424494573622 L-7.98787775183274,29.79862158183501 L-8.067599187951751,29.67735034030761 L-8.107017121394788,29.61189654743831 L-8.1455900756645,29.543652181925896 L-8.182973661788504,29.472919699282954 L-8.21886900796563,29.400000000000013 " />
			<path d="M-8.219767028987805,29.4 L-8.218869007965639,29.4 " />
			<path d="M-8.219767028987777,29.4 L-8.219702888602065,29.4 L-8.219638747599884,29.4 L-8.21957460598254,29.4 L-8.21951046375135,29.4 L-8.219446320907617,29.4 L-8.219382177452651,29.4 L-8.21931803338776,29.4 L-8.219253888714254,29.4 L-8.219189743433445,29.4 L-8.21912559754664,29.4 L-8.219061451055147,29.4 L-8.218997303960276,29.4 L-8.218933156263336,29.4 L-8.218869007965635,29.4 " />
			<path d="M-8.222367027687778,29.4 L-8.222302887302064,29.4 L-8.222238746299883,29.4 L-8.222174604682541,29.4 L-8.222110462451349,29.4 L-8.222046319607616,29.4 L-8.22198217615265,29.4 L-8.221918032087759,29.4 L-8.221853887414253,29.4 L-8.221789742133442,29.4 L-8.221725596246639,29.4 L-8.221661449755144,29.4 L-8.221597302660273,29.4 L-8.221533154963334,29.4 L-8.221469006665632,29.4 " />
			<path d="M-8.224967026387779,29.4 L-8.224902886002065,29.4 L-8.224838744999884,29.4 L-8.224774603382542,29.4 L-8.22471046115135,29.4 L-8.224646318307617,29.4 L-8.224582174852651,29.4 L-8.22451803078776,29.4 L-8.224453886114254,29.4 L-8.224389740833443,29.4 L-8.22432559494664,29.4 L-8.224261448455147,29.4 L-8.224197301360276,29.4 L-8.224133153663335,29.4 L-8.224069005365633,29.4 " />
			<path d="M-8.22756702508778,29.4 L-8.227502884702066,29.4 L-8.227438743699885,29.4 L-8.227374602082543,29.4 L-8.227310459851351,29.4 L-8.227246317007618,29.4 L-8.227182173552652,29.4 L-8.22711802948776,29.4 L-8.227053884814255,29.4 L-8.226989739533444,29.4 L-8.22692559364664,29.4 L-8.226861447155148,29.4 L-8.226797300060277,29.4 L-8.226733152363336,29.4 L-8.226669004065634,29.4 " />
			<path d="M-8.23016702378778,29.4 L-8.230102883402068,29.4 L-8.230038742399888,29.4 L-8.229974600782544,29.4 L-8.229910458551354,29.4 L-8.22984631570762,29.4 L-8.229782172252653,29.4 L-8.229718028187763,29.4 L-8.229653883514258,29.4 L-8.229589738233448,29.4 L-8.229525592346643,29.4 L-8.229461445855149,29.4 L-8.229397298760277,29.4 L-8.229333151063338,29.4 L-8.229269002765637,29.4 " />
			<path d="M-8.232767022487781,29.4 L-8.23270288210207,29.4 L-8.232638741099889,29.4 L-8.232574599482545,29.4 L-8.232510457251355,29.4 L-8.232446314407621,29.4 L-8.232382170952656,29.4 L-8.232318026887764,29.4 L-8.232253882214259,29.4 L-8.232189736933451,29.4 L-8.232125591046644,29.4 L-8.232061444555152,29.4 L-8.23199729746028,29.4 L-8.231933149763341,29.4 L-8.23186900146564,29.4 " />
			<path d="M-5.682997158502132,31.0 L-5.820386577924209,30.996627277374483 L-5.957445014201008,30.98651723468215 L-6.093842281554635,30.969694227901385 L-6.229249787021045,30.946198785129045 L-6.363341322059274,30.916087508944724 L-6.495793848416382,30.879432940050183 L-6.626288276354906,30.836323382512457 L-6.754510233367979,30.7868626910316 L-6.88015082153024,30.73117002074564 L-7.002907361659989,30.66937954017539 L-7.12248412249985,30.601640108000762 L-7.238593033159274,30.528114914447126 L-7.350954377102543,30.448981088145807 L-7.4592974660104066,30.364429269415663 L-7.563361291891951,30.274663150993884 L-7.662895155875713,30.179898987322332 L-7.75765927216522,30.08036507357165 L-7.847425345703973,29.976301195658206 L-7.931977122158237,29.86795805257881 L-8.011110908892674,29.755596652454884 L-8.084636065683739,29.63948768374102 L-8.152375463988681,29.519910863112795 L-8.214165913663711,29.39715426160479 L-8.269858556103358,29.271513610622254 L-8.319319222853887,29.14329158949822 L-8.36242875883685,29.012797096312497 L-8.399083309404118,28.88034450372914 L-8.429194570532815,28.74625290164516 L-8.452690001557443,28.610845328475012 L-8.46951299992671,28.47444799292277 L-8.479623037564025,28.33738948811677 L-8.482995758503181,28.200000000000024 " />
			<path d="M-8.480147912238213,26.862152311108556 L-8.480633607373147,27.347847688891466 " />
			<path d="M-6.877912204276374,28.099999999999998 L-6.876741802205088,28.038122602320062 L-6.87332511874165,27.97639926627927 L-6.867670458412245,27.914874462780126 L-6.859784826054932,27.853599541120627 L-6.849672918929987,27.792621253242135 L-6.837333845205792,27.731970719600703 L-6.822762769549766,27.6716816872575 L-6.8059511527300325,27.611790794219488 L-6.786886957340255,27.55233771550675 L-6.765554820344203,27.493365307446066 L-6.7419361807156655,27.434919754102832 L-6.71600935044937,27.37705071976343 L-6.687749517218551,27.319811511380102 L-6.657128666954804,27.26325925489047 L-6.62411541462588,27.20745508932378 L-6.588674731487051,27.152464382605896 L-6.5507675570816986,27.098356972975278 L-6.5103502842667735,27.045207439921878 L-6.467385385899078,26.993108681263333 L-6.421846721187479,26.94217410827093 L-6.373703694438469,26.892517064023608 L-6.322932651188147,26.84426376294019 L-6.269518496643064,26.797552674759338 L-6.2134530168553095,26.752531270114055 L-6.154742604416873,26.709360600082633 L-6.093428075388117,26.66822472240109 L-6.02957648832078,26.629317386487102 L-5.963283596157286,26.59283846882743 L-5.894677038320386,26.558990223969694 L-5.8239197985039795,26.527972939287313 L-5.75121392816515,26.49997999351758 L-5.676804535717396,26.475192319072857 " />
			<path d="M-6.877912204276375,28.1 L-6.878096560952579,28.347165677248185 " />
			<path d="M-5.678097160952129,28.77083130081253 L-5.7587620148052325,28.76906231375764 L-5.83928815631342,28.76376064057173 L-5.919521752320073,28.754944158465513 L-5.999315899469636,28.742643018227533 L-6.078530458254875,28.726898546480168 L-6.157031915237193,28.707762299263987 L-6.234693271058413,28.68529525353689 L-6.311393951862483,28.659567123174636 L-6.387019741745526,28.630655786059144 L-6.4614627338526756,28.59864680884118 L-6.534621297740135,28.563633055963887 L-6.606400060620895,28.525714369533603 L-6.6767099001125345,28.484997306624614 L-6.745467946105562,28.441594920604214 L-6.81261090654874,28.39561709205135 L-6.878096551656842,28.3471656651462 " />
			<path d="M-3.4780982609513034,28.1 L-3.480144975458232,28.016605493235414 L-3.4862801906938796,27.93341179215569 L-3.4964891336696526,27.850619218925566 L-3.510747222265391,27.768427129833768 L-3.5290201244206694,27.6870334352629 L-3.5512638408029886,27.6066341231409 L-3.5774248107537954,27.52742278702158 L-3.607440041257222,27.449590159930608 L-3.6412372586210164,27.373323655099302 L-3.6787350825044016,27.298806914692232 L-3.719843221873856,27.226219367615112 L-3.764462692414946,27.15573579746783 L-3.812486054876719,27.087525921682925 L-3.8637976737747435,27.02175398286284 L-3.9182739958298622,26.958578353300105 L-3.9757838474722136,26.89815115363255 L-4.03618875069415,26.840617886551954 L-4.099343256491517,26.786117086448016 L-4.165095295090409,26.734779985831306 L-4.233286542116059,26.686730199338427 L-4.303752799822215,26.642083426080248 L-4.376324392462982,26.600947171049956 L-4.450826574855169,26.563420486261702 L-4.527079953147311,26.529593732243193 L-4.604900916782248,26.49954836045654 L-4.684102080613094,26.47335671717121 L-4.76449273610805,26.451081869261408 L-4.845879310557596,26.432777452347317 L-4.92806583317834,26.418487541645842 L-5.010854406991192,26.408246545841873 L-5.094045685337617,26.4020791242356 L-5.177439351886579,26.40000012736535 " />
			<path d="M-3.4780982609513043,28.770831300812535 L-3.4780982609513043,28.1 " />
			<path d="M-3.4780982609513043,28.77083130081253 L-5.678097760951831,28.77083130081253 " />
			<path d="M-3.477586237556222,28.1 L-3.4780982609513043,28.77083130081249 " />
			<path d="M-3.477586237556222,28.1 L-3.4794714890747964,28.018841533140233 L-3.4853260717540713,27.936871157628396 L-3.495274950340657,27.854333001003347 L-3.5094258129043645,27.7714826053481 L-3.5278520561191535,27.688649756667044 L-3.5505912517356433,27.606181953881542 L-3.5776466164206027,27.524425562422895 L-3.6089867979221735,27.443724145794967 L-3.6445337384599163,27.364441433191267 L-3.684165300134879,27.286938784261707 L-3.727732435682249,27.211540346198042 L-3.7750497049514466,27.13855657261662 L-3.8259005499589875,27.068274601634922 L-3.880065405559375,27.000925516382562 L-3.9373063442575273,26.936716283103557 L-3.9973799129190883,26.87581874411914 L-4.060056319405912,26.818359184521032 L-4.125096877552434,26.764447906230888 L-4.192263918405348,26.71417241270323 L-4.26135186009381,26.667580139477657 L-4.3321628831177454,26.62470499056295 L-4.404500274266803,26.58557302053119 L-4.478168358813146,26.550202443163126 L-4.552996464985282,26.518593919300443 L-4.628838026467849,26.490737248312346 L-4.705551989288774,26.46662215414625 L-4.783002001239026,26.446238672847088 L-4.861055869884277,26.429577402019714 L-4.939585020576571,26.416629750291268 L-5.018463954465989,26.407388186773552 L-5.097569706512311,26.40184649052543 L-5.176781303496681,26.400000000015186 " />
			<path d="M-5.176781303496685,26.400000000015186 L-5.239901239997815,26.401172179039012 L-5.302965037967135,26.404689390369025 L-5.365913825236502,26.410553326114517 L-5.428687799233246,26.418766551778514 L-5.491226184875106,26.42933247207753 L-5.553467189927965,26.44225529679493 L-5.615347960363597,26.457540006634304 L-5.676804535717402,26.475192319072814 " />
			<path d="M5.7169971415021426,31.0 L-5.682997158502133,31.0 " />
			<path d="M8.519357892633227,27.347847688891463 L8.51938564483498,27.327435216780213 " />
			<path d="M8.519385644834982,27.327435216780216 L8.519824141141017,26.888241115940847 " />
			<path d="M8.519824141141015,26.888241115940847 L8.519843587768161,26.862152311108552 " />
			<path d="M5.716997141502144,31.0 L5.8543865609242225,30.996627277374483 L5.99144499720102,30.98651723468215 L6.127842264554647,30.969694227901385 L6.263249770021058,30.946198785129045 L6.397341305059286,30.91608750894472 L6.529793831416395,30.879432940050183 L6.660288259354919,30.836323382512457 L6.788510216367992,30.7868626910316 L6.9141508045302515,30.73117002074564 L7.036907344660001,30.66937954017539 L7.156484105499863,30.601640108000762 L7.272593016159288,30.528114914447126 L7.384954360102556,30.448981088145803 L7.49329744901042,30.364429269415663 L7.597361274891964,30.274663150993884 L7.696895138875726,30.179898987322332 L7.791659255165232,30.08036507357165 L7.881425328703984,29.976301195658206 L7.965977105158249,29.867958052578814 L8.045110891892687,29.755596652454887 L8.118636048683753,29.63948768374102 L8.186375446988695,29.51991086311279 L8.248165896663725,29.39715426160479 L8.303858539103372,29.27151361062225 L8.3533192058539,29.143291589498215 L8.396428741836864,29.012797096312493 L8.433083292404131,28.880344503729138 L8.463194553532826,28.746252901645157 L8.486689984557456,28.610845328475012 L8.503512982926722,28.47444799292277 L8.513623020564037,28.33738948811677 L8.516995741503194,28.200000000000006 " />
			<path d="M8.517427435817503,-28.174729899275825 L8.51341388815354,-23.399567811090126 L8.512642426343842,-17.2096081982229 L8.515361134360651,-11.595396476541536 L8.51779446135543,-9.592800138699182 L8.520695739653195,-8.362331082422159 " />
			<path d="M-8.498395750803187,-1.7499999999999993 L-8.498351643112093,-1.7521668729975106 L-8.498307960202174,-1.7586466238185456 L-8.498223543344727,-1.7842542103699202 L-8.498077552910752,-1.8818019484660529 L-8.497945751028187,-2.1999999999999993 L-8.498077552910752,-2.5181980515339455 L-8.498223543344727,-2.615745789630078 L-8.498307960202174,-2.6413533761814527 L-8.498351643112093,-2.647833127002488 L-8.498395750803187,-2.6499999999999995 " />
			<path d="M-8.498395750803187,-2.6499999999999995 L-8.498439858494281,-2.647833127002488 L-8.4984835414042,-2.641353376181453 L-8.498567958261647,-2.6157457896300786 L-8.498713948695622,-2.518198051533946 L-8.498845750578187,-2.1999999999999997 L-8.498713948695622,-1.8818019484660529 L-8.498567958261647,-1.7842542103699204 L-8.4984835414042,-1.7586466238185456 L-8.498439858494281,-1.7521668729975106 L-8.498395750803187,-1.7499999999999993 " />
			<path d="M-8.501495749253188,-17.93782217350901 L-8.501495749253188,13.0 " />
			<path d="M-8.501495749253188,-17.937822173508977 L-8.499807483413038,-17.238519215976535 L-8.498909433891885,-17.05988597038333 L-8.498453572678887,-17.014987537329777 L-8.498224784468421,-17.00374788766544 L-8.497995751003186,-17.0 " />
			<path d="M-8.497995751003186,-17.0 L-8.49778066860041,-17.00330510070967 L-8.497565789303062,-17.013217281784193 L-8.49713745129578,-17.052819213840277 L-8.496292104364311,-17.21047974983233 L-8.494690910044966,-17.829261363589477 L-8.492169091063733,-20.120567051745837 L-8.491537426275361,-26.699999999999946 " />
			<path d="M-8.485195757403181,-26.7 L-8.491537426275361,-26.7 " />
			<path d="M-8.485195757403181,-26.700000000000003 L-8.484979859744088,-26.69470000730276 L-8.484764482201369,-26.67881279735767 L-8.484337360415509,-26.615455233774213 L-8.483511951142678,-26.36506994304966 L-8.482084489121593,-25.41126983722081 L-8.480795759603179,-22.30000000000004 " />
			<path d="M-8.480795759603179,22.300000000000004 L-8.480795759603179,-22.3 " />
			<path d="M-8.480795759603179,22.3 L-8.481333715865784,24.408226801851765 " />
			<path d="M-8.483087531655443,26.16204346841846 L-8.482683039070706,24.92744919688378 L-8.48214534291642,24.53779596413736 L-8.481827778320515,24.434828051398146 L-8.481662679633171,24.408730833931134 L-8.481579333532478,24.402184199334883 L-8.48149575925318,24.39999999999999 " />
			<path d="M-8.48149575925318,24.39999999999999 L-8.481414633209889,24.402058024045125 L-8.481333715865784,24.408226801851804 " />
			<path d="M-8.483087531655443,26.16204346841846 L-8.48410786807702,26.563390156966708 L-8.484647540881967,26.6657139559672 L-8.484921113594872,26.691420123733078 L-8.485058368506571,26.69785450784957 L-8.485195757403181,26.700000000000003 " />
			<path d="M-8.514795742603193,26.700000000000003 L-8.485195757403181,26.700000000000003 " />
			<path d="M-8.514795742603193,26.700000000000003 L-8.515011640262285,26.69470000730276 L-8.515227017805005,26.67881279735767 L-8.515654139590865,26.615455233774213 L-8.516479548863696,26.36506994304966 L-8.51790701088478,25.41126983722081 L-8.519195740403195,22.30000000000001 " />
			<path d="M-8.519195740403195,-22.299999999999997 L-8.519195740403195,22.300000000000004 " />
			<path d="M-8.519195740403195,-22.3 L-8.51790701088478,-25.41126983722081 L-8.516479548863696,-26.36506994304966 L-8.515654139590865,-26.615455233774213 L-8.515227017805005,-26.678812797357665 L-8.515011640262285,-26.69470000730276 L-8.514795742603193,-26.700000000000003 " />
			<path d="M-8.504454075731012,-26.7 L-8.514795742603193,-26.7 " />
			<path d="M-8.504923950769363,-25.00000000000007 L-8.504454075731012,-26.699999999999985 " />
			<path d="M-8.514495742753192,-25.0 L-8.504923950769363,-25.0 " />
			<path d="M-8.514495742753192,13.0 L-8.514495742753192,-25.0 " />
			<path d="M-8.501495749253188,13.0 L-8.514495742753192,13.0 " />
			<path d="M-8.493595753203184,-11.350000000000001 L-8.49355164551209,-11.352166872997513 L-8.493507962602171,-11.358646623818547 L-8.493423545744724,-11.384254210369921 L-8.49327755531075,-11.481801948466055 L-8.493145753428184,-11.8 L-8.49327755531075,-12.118198051533946 L-8.493423545744724,-12.21574578963008 L-8.493507962602171,-12.241353376181454 L-8.49355164551209,-12.247833127002488 L-8.493595753203184,-12.25 " />
			<path d="M-8.493595753203184,-12.25 L-8.493639860894278,-12.247833127002488 L-8.493683543804197,-12.241353376181454 L-8.493767960661645,-12.21574578963008 L-8.49391395109562,-12.118198051533946 L-8.494045752978185,-11.8 L-8.49391395109562,-11.481801948466055 L-8.493767960661645,-11.384254210369921 L-8.493683543804197,-11.358646623818547 L-8.493639860894278,-11.352166872997513 L-8.493595753203184,-11.350000000000001 " />
			<path d="M-8.493595753203184,-8.950000000000001 L-8.49355164551209,-8.952166872997513 L-8.493507962602171,-8.958646623818547 L-8.493423545744724,-8.98425421036992 L-8.49327755531075,-9.081801948466055 L-8.493145753428184,-9.4 L-8.49327755531075,-9.718198051533946 L-8.493423545744724,-9.81574578963008 L-8.493507962602171,-9.841353376181454 L-8.49355164551209,-9.847833127002488 L-8.493595753203184,-9.85 " />
			<path d="M-8.493595753203184,-9.85 L-8.493639860894278,-9.847833127002488 L-8.493683543804197,-9.841353376181454 L-8.493767960661645,-9.81574578963008 L-8.49391395109562,-9.718198051533946 L-8.494045752978185,-9.4 L-8.49391395109562,-9.081801948466055 L-8.493767960661645,-8.98425421036992 L-8.493683543804197,-8.958646623818547 L-8.493639860894278,-8.952166872997513 L-8.493595753203184,-8.950000000000001 " />
			<path d="M-8.493595753203184,-6.55 L-8.49355164551209,-6.552166872997511 L-8.493507962602171,-6.558646623818547 L-8.493423545744724,-6.584254210369921 L-8.49327755531075,-6.681801948466053 L-8.493145753428184,-7.0 L-8.49327755531075,-7.318198051533946 L-8.493423545744724,-7.415745789630079 L-8.493507962602171,-7.441353376181453 L-8.49355164551209,-7.447833127002489 L-8.493595753203184,-7.45 " />
			<path d="M-8.493595753203184,-7.45 L-8.493639860894278,-7.447833127002489 L-8.493683543804197,-7.441353376181453 L-8.493767960661645,-7.415745789630079 L-8.49391395109562,-7.318198051533947 L-8.494045752978185,-7.0 L-8.49391395109562,-6.681801948466053 L-8.493767960661645,-6.584254210369921 L-8.493683543804197,-6.558646623818547 L-8.493639860894278,-6.552166872997511 L-8.493595753203184,-6.55 " />
			<path d="M-8.493595753203184,-4.15 L-8.49355164551209,-4.152166872997512 L-8.493507962602171,-4.158646623818547 L-8.493423545744724,-4.184254210369922 L-8.49327755531075,-4.281801948466054 L-8.493145753428184,-4.6000000000000005 L-8.49327755531075,-4.918198051533946 L-8.493423545744724,-5.015745789630079 L-8.493507962602171,-5.041353376181454 L-8.49355164551209,-5.047833127002489 L-8.493595753203184,-5.050000000000001 " />
			<path d="M-8.493595753203184,-5.050000000000001 L-8.493639860894278,-5.047833127002489 L-8.493683543804197,-5.041353376181454 L-8.493767960661645,-5.015745789630079 L-8.49391395109562,-4.918198051533947 L-8.494045752978185,-4.6000000000000005 L-8.49391395109562,-4.281801948466054 L-8.493767960661645,-4.184254210369922 L-8.493683543804197,-4.158646623818547 L-8.493639860894278,-4.152166872997512 L-8.493595753203184,-4.15 " />
			<path d="M-8.493595753203184,-1.7499999999999993 L-8.49355164551209,-1.7521668729975106 L-8.493507962602171,-1.7586466238185456 L-8.493423545744724,-1.7842542103699202 L-8.49327755531075,-1.8818019484660529 L-8.493145753428184,-2.1999999999999993 L-8.49327755531075,-2.5181980515339455 L-8.493423545744724,-2.615745789630078 L-8.493507962602171,-2.6413533761814527 L-8.49355164551209,-2.647833127002488 L-8.493595753203184,-2.6499999999999995 " />
			<path d="M-8.493595753203184,-2.6499999999999995 L-8.493639860894278,-2.647833127002488 L-8.493683543804197,-2.641353376181453 L-8.493767960661645,-2.6157457896300786 L-8.49391395109562,-2.518198051533946 L-8.494045752978185,-2.1999999999999997 L-8.49391395109562,-1.8818019484660529 L-8.493767960661645,-1.7842542103699204 L-8.493683543804197,-1.7586466238185456 L-8.493639860894278,-1.7521668729975106 L-8.493595753203184,-1.7499999999999993 " />
			<path d="M-8.495995752003186,-11.350000000000001 L-8.495951644312091,-11.352166872997513 L-8.495907961402173,-11.358646623818547 L-8.495823544544725,-11.384254210369921 L-8.49567755411075,-11.481801948466055 L-8.495545752228185,-11.8 L-8.49567755411075,-12.118198051533946 L-8.495823544544725,-12.21574578963008 L-8.495907961402173,-12.241353376181454 L-8.495951644312091,-12.247833127002488 L-8.495995752003186,-12.25 " />
			<path d="M-8.495995752003186,-12.25 L-8.49603985969428,-12.247833127002488 L-8.496083542604199,-12.241353376181454 L-8.496167959461646,-12.21574578963008 L-8.49631394989562,-12.118198051533946 L-8.496445751778186,-11.8 L-8.49631394989562,-11.481801948466055 L-8.496167959461646,-11.384254210369921 L-8.496083542604199,-11.358646623818547 L-8.49603985969428,-11.352166872997513 L-8.495995752003186,-11.350000000000001 " />
			<path d="M-8.495995752003186,-8.950000000000001 L-8.495951644312091,-8.952166872997513 L-8.495907961402173,-8.958646623818547 L-8.495823544544725,-8.98425421036992 L-8.49567755411075,-9.081801948466055 L-8.495545752228185,-9.4 L-8.49567755411075,-9.718198051533946 L-8.495823544544725,-9.81574578963008 L-8.495907961402173,-9.841353376181454 L-8.495951644312091,-9.847833127002488 L-8.495995752003186,-9.85 " />
			<path d="M-8.495995752003186,-9.85 L-8.49603985969428,-9.847833127002488 L-8.496083542604199,-9.841353376181454 L-8.496167959461646,-9.81574578963008 L-8.49631394989562,-9.718198051533946 L-8.496445751778186,-9.4 L-8.49631394989562,-9.081801948466055 L-8.496167959461646,-8.98425421036992 L-8.496083542604199,-8.958646623818547 L-8.49603985969428,-8.952166872997513 L-8.495995752003186,-8.950000000000001 " />
			<path d="M-8.498395750803187,-11.350000000000001 L-8.498351643112093,-11.352166872997513 L-8.498307960202174,-11.358646623818547 L-8.498223543344727,-11.384254210369921 L-8.498077552910752,-11.481801948466055 L-8.497945751028187,-11.8 L-8.498077552910752,-12.118198051533946 L-8.498223543344727,-12.21574578963008 L-8.498307960202174,-12.241353376181454 L-8.498351643112093,-12.247833127002488 L-8.498395750803187,-12.25 " />
			<path d="M-8.498395750803187,-12.25 L-8.498439858494281,-12.247833127002488 L-8.4984835414042,-12.241353376181454 L-8.498567958261647,-12.21574578963008 L-8.498713948695622,-12.118198051533946 L-8.498845750578187,-11.8 L-8.498713948695622,-11.481801948466055 L-8.498567958261647,-11.384254210369921 L-8.4984835414042,-11.358646623818547 L-8.498439858494281,-11.352166872997513 L-8.498395750803187,-11.350000000000001 " />
			<path d="M-8.498395750803187,-8.950000000000001 L-8.498351643112093,-8.952166872997513 L-8.498307960202174,-8.958646623818547 L-8.498223543344727,-8.98425421036992 L-8.498077552910752,-9.081801948466055 L-8.497945751028187,-9.4 L-8.498077552910752,-9.718198051533946 L-8.498223543344727,-9.81574578963008 L-8.498307960202174,-9.841353376181454 L-8.498351643112093,-9.847833127002488 L-8.498395750803187,-9.85 " />
			<path d="M-8.498395750803187,-9.85 L-8.498439858494281,-9.847833127002488 L-8.4984835414042,-9.841353376181454 L-8.498567958261647,-9.81574578963008 L-8.498713948695622,-9.718198051533946 L-8.498845750578187,-9.4 L-8.498713948695622,-9.081801948466055 L-8.498567958261647,-8.98425421036992 L-8.4984835414042,-8.958646623818547 L-8.498439858494281,-8.952166872997513 L-8.498395750803187,-8.950000000000001 " />
			<path d="M-8.495995752003186,-6.55 L-8.495951644312091,-6.552166872997511 L-8.495907961402173,-6.558646623818547 L-8.495823544544725,-6.584254210369921 L-8.49567755411075,-6.681801948466053 L-8.495545752228185,-7.0 L-8.49567755411075,-7.318198051533946 L-8.495823544544725,-7.415745789630079 L-8.495907961402173,-7.441353376181453 L-8.495951644312091,-7.447833127002489 L-8.495995752003186,-7.45 " />
			<path d="M-8.495995752003186,-7.45 L-8.49603985969428,-7.447833127002489 L-8.496083542604199,-7.441353376181453 L-8.496167959461646,-7.415745789630079 L-8.49631394989562,-7.318198051533947 L-8.496445751778186,-7.0 L-8.49631394989562,-6.681801948466053 L-8.496167959461646,-6.584254210369921 L-8.496083542604199,-6.558646623818547 L-8.49603985969428,-6.552166872997511 L-8.495995752003186,-6.55 " />
			<path d="M-8.495995752003186,-4.15 L-8.495951644312091,-4.152166872997512 L-8.495907961402173,-4.158646623818547 L-8.495823544544725,-4.184254210369922 L-8.49567755411075,-4.281801948466054 L-8.495545752228185,-4.6000000000000005 L-8.49567755411075,-4.918198051533946 L-8.495823544544725,-5.015745789630079 L-8.495907961402173,-5.041353376181454 L-8.495951644312091,-5.047833127002489 L-8.495995752003186,-5.050000000000001 " />
			<path d="M-8.495995752003186,-5.050000000000001 L-8.49603985969428,-5.047833127002489 L-8.496083542604199,-5.041353376181454 L-8.496167959461646,-5.015745789630079 L-8.49631394989562,-4.918198051533947 L-8.496445751778186,-4.6000000000000005 L-8.49631394989562,-4.281801948466054 L-8.496167959461646,-4.184254210369922 L-8.496083542604199,-4.158646623818547 L-8.49603985969428,-4.152166872997512 L-8.495995752003186,-4.15 " />
			<path d="M-8.495995752003186,-1.7499999999999993 L-8.495951644312091,-1.7521668729975106 L-8.495907961402173,-1.7586466238185456 L-8.495823544544725,-1.7842542103699202 L-8.49567755411075,-1.8818019484660529 L-8.495545752228185,-2.1999999999999993 L-8.49567755411075,-2.5181980515339455 L-8.495823544544725,-2.615745789630078 L-8.495907961402173,-2.6413533761814527 L-8.495951644312091,-2.647833127002488 L-8.495995752003186,-2.6499999999999995 " />
			<path d="M-8.495995752003186,-2.6499999999999995 L-8.49603985969428,-2.647833127002488 L-8.496083542604199,-2.641353376181453 L-8.496167959461646,-2.6157457896300786 L-8.49631394989562,-2.518198051533946 L-8.496445751778186,-2.1999999999999997 L-8.49631394989562,-1.8818019484660529 L-8.496167959461646,-1.7842542103699204 L-8.496083542604199,-1.7586466238185456 L-8.49603985969428,-1.7521668729975106 L-8.495995752003186,-1.7499999999999993 " />
			<path d="M-8.498395750803187,-6.55 L-8.498351643112093,-6.552166872997511 L-8.498307960202174,-6.558646623818547 L-8.498223543344727,-6.584254210369921 L-8.498077552910752,-6.681801948466053 L-8.497945751028187,-7.0 L-8.498077552910752,-7.318198051533946 L-8.498223543344727,-7.415745789630079 L-8.498307960202174,-7.441353376181453 L-8.498351643112093,-7.447833127002489 L-8.498395750803187,-7.45 " />
			<path d="M-8.498395750803187,-7.45 L-8.498439858494281,-7.447833127002489 L-8.4984835414042,-7.441353376181453 L-8.498567958261647,-7.415745789630079 L-8.498713948695622,-7.318198051533947 L-8.498845750578187,-7.0 L-8.498713948695622,-6.681801948466053 L-8.498567958261647,-6.584254210369921 L-8.4984835414042,-6.558646623818547 L-8.498439858494281,-6.552166872997511 L-8.498395750803187,-6.55 " />
			<path d="M-8.498395750803187,-4.15 L-8.498351643112093,-4.152166872997512 L-8.498307960202174,-4.158646623818547 L-8.498223543344727,-4.184254210369922 L-8.498077552910752,-4.281801948466054 L-8.497945751028187,-4.6000000000000005 L-8.498077552910752,-4.918198051533946 L-8.498223543344727,-5.015745789630079 L-8.498307960202174,-5.041353376181454 L-8.498351643112093,-5.047833127002489 L-8.498395750803187,-5.050000000000001 " />
			<path d="M-8.498395750803187,-5.050000000000001 L-8.498439858494281,-5.047833127002489 L-8.4984835414042,-5.041353376181454 L-8.498567958261647,-5.015745789630079 L-8.498713948695622,-4.918198051533947 L-8.498845750578187,-4.6000000000000005 L-8.498713948695622,-4.281801948466054 L-8.498567958261647,-4.184254210369922 L-8.4984835414042,-4.158646623818547 L-8.498439858494281,-4.152166872997512 L-8.498395750803187,-4.15 " />
			<path d="M-8.514495742753192,13.0 L-8.501495749253188,13.0 " />
			<path d="M-8.491067551237009,-25.0 L-8.504923950769363,-25.0 " />
			<path d="M-7.9940721941412,-29.79687194226713 L-8.001919807864796,-29.79687194226713 " />
			<path d="M-7.994072194141186,-29.79687194226715 L-8.044796319386592,-29.72104568557193 L-8.09379655290435,-29.642314408232934 L-8.140941300631011,-29.560597254908178 L-8.18608233752993,-29.475816375089376 L-8.229054317651451,-29.38789788839062 L-8.269674261349108,-29.296772894672625 L-8.307741009914192,-29.202378545210028 L-8.343034637891071,-29.10465919110886 L-8.375315813335664,-29.003567625181645 L-8.404325096279445,-28.89906643348737 L-8.429782165661361,-28.791129472743616 L-8.451384964990078,-28.679743489818193 L-8.468808756998888,-28.564909899507583 L-8.48170507755573,-28.446646736809477 L-8.48970057909066,-28.324990799896725 L-8.492395753803184,-28.200000000000006 " />
			<path d="M-8.491933576207781,-27.499999999999996 L-8.492395753803184,-28.199999999999967 " />
			<path d="M-8.484995757503182,-27.5 L-8.491933576207783,-27.5 " />
			<path d="M-8.484995757503182,-27.5 L-8.48487305142192,-27.49849409348102 L-8.484750419254214,-27.493977281025863 L-8.484505672046577,-27.475923633360985 L-8.484020306380826,-27.403926402016154 L-8.483082341298063,-27.119397662556434 L-8.481460225365014,-26.035533905932738 L-8.47999576000318,-22.500000000000046 " />
			<path d="M-8.47999576000318,22.5 L-8.47999576000318,-22.5 " />
			<path d="M-8.47999576000318,22.5 L-8.480521141045612,24.731095590836382 " />
			<path d="M-8.48019398988289,26.97461869487782 L-8.482764663027892,26.97461869487782 " />
			<path d="M-8.482764663027892,26.974618694877833 L-8.48384969818999,27.36688265085512 L-8.484418875331444,27.46660916794726 L-8.484706833643566,27.4916453119055 L-8.484851235188817,27.497910891538957 L-8.484995757503182,27.5 " />
			<path d="M-8.514995742503194,27.5 L-8.484995757503182,27.5 " />
			<path d="M-8.514995742503192,27.5 L-8.515118448584454,27.49849409348102 L-8.51524108075216,27.493977281025863 L-8.515485827959797,27.475923633360985 L-8.515971193625548,27.403926402016154 L-8.51690915870831,27.119397662556434 L-8.51853127464136,26.035533905932738 L-8.519995740003194,22.50000000000001 " />
			<path d="M-8.519995740003194,-22.5 L-8.519995740003194,22.5 " />
			<path d="M-8.519995740003194,-22.5 L-8.51853127464136,-26.035533905932738 L-8.51690915870831,-27.119397662556434 L-8.515971193625548,-27.403926402016154 L-8.515485827959797,-27.475923633360985 L-8.51524108075216,-27.493977281025863 L-8.515118448584454,-27.49849409348102 L-8.514995742503192,-27.5 " />
			<path d="M-8.491933576207781,-27.5 L-8.504057925798591,-27.5 " />
			<path d="M-8.504057925798591,-27.5 L-8.514995742503194,-27.5 " />
			<path d="M-8.504057925798591,-27.5 L-8.503595748203189,-28.200000000000003 " />
			<path d="M-8.503595748203189,-28.2 L-8.500708549846212,-28.32499308835318 L-8.492517182739347,-28.44665068737117 L-8.479421590294896,-28.564914911912172 L-8.461795528397197,-28.679749006981446 L-8.439987838163688,-28.791134996412367 L-8.414323599120351,-28.899071538320726 L-8.385105172467608,-29.00357197114186 L-8.352613144112825,-29.104662534060214 L-8.317107177145543,-29.202380745640863 L-8.27882678343155,-29.296773924472596 L-8.237992024001937,-29.387897835632106 L-8.19480414791324,-29.47581544677889 L-8.149446179254825,-29.56059577769039 L-8.102083461979593,-29.642312827047004 L-8.052864172234187,-29.72104456027645 L-8.001919807864786,-29.79687194226715 " />
			<path d="M-8.48005701051556,26.700000000000003 L-8.485195757403181,26.700000000000003 " />
			<path d="M-8.479903986850918,26.16204346841846 L-8.483087531655443,26.16204346841846 " />
			<path d="M-8.480374215648558,24.408226801851804 L-8.481333715865784,24.408226801851804 " />
			<path d="M-8.482282826866397,-26.700000000000003 L-8.485195757403181,-26.700000000000003 " />
			<path d="M-8.494495752753185,-17.93782217350893 L-8.501495749253188,-17.93782217350893 " />
			<path d="M8.022292860796837,-8.065994198067385 L8.131254678338594,-8.086034859314372 L8.229429836511414,-8.11032281413858 L8.274035649066699,-8.124201326780328 L8.315448079191787,-8.139314317736927 L8.353487102337095,-8.15570609141691 L8.387959978130251,-8.173401573487098 L8.418699680393008,-8.192416590992703 L8.445564826642975,-8.21275714543451 L8.468439631817557,-8.234418778583223 L8.487233886220082,-8.25738603103095 L8.501882957688144,-8.281631993479895 L8.512347817984136,-8.30711795076815 L8.51861509340798,-8.33379311863271 L8.520697139632079,-8.361594473209607 " />
			<path d="M8.520697139632077,-8.361594473209607 L8.520695739653195,-8.36233108242224 " />
			<path d="M8.019412018156423,-29.21377362052704 L8.079830685572155,-29.168304940421084 L8.136594242872286,-29.120282985305433 L8.18959207825348,-29.06969083103735 L8.23872701013014,-29.01652398406604 L8.283916991054426,-28.960791337671743 L8.325099464404948,-28.902512012617024 L8.362225526607924,-28.841726349931882 L8.395268754452145,-28.77848763735641 L8.42422685534225,-28.71285967361936 L8.449121342097982,-28.644916833014616 L8.469997408678896,-28.574744107765667 L8.486924006834501,-28.50243712817813 L8.499994134262362,-28.428102068799202 L8.509326300506396,-28.351843931733388 L8.515062374046028,-28.273766011820598 L8.517365310746742,-28.19397373963344 " />
			<path d="M8.517365310746744,-28.193973739633442 L8.517427435817503,-28.174729899275977 " />
			<path d="M8.022292860796838,-24.5 L8.021515626538577,-27.26219678714596 L8.019412018156421,-29.213773620527018 " />
			<path d="M8.022292860796838,-24.5 L8.022292860796838,-8.065994198067393 " />
			<path d="M5.716997141502144,-31.0 L5.853633204565422,-30.99666418570431 L5.989943701534076,-30.98666469114368 L6.125603842047791,-30.97002534235876 L6.2602903853665115,-30.946785786333507 L6.393682410564063,-30.91700139652736 L6.525462081194316,-30.880743140935543 L6.6553154026078625,-30.838097412991868 L6.782932970114763,-30.78916582571699 L6.908010706210684,-30.734064969602585 L7.030250585109807,-30.672926134808318 L7.149361342858182,-30.605894998333568 L7.265059171335472,-30.533131276909266 L7.377068394491525,-30.45480834643694 L7.485122125206446,-30.3711128288817 L7.588962901209076,-30.282244147603503 L7.688343298538655,-30.18841405218624 L7.783026521087952,-30.08984611389681 L7.872786964823152,-29.98677519297639 L7.957410755336111,-29.87944687903317 L8.036696257448153,-29.768116905870002 L8.110454555651144,-29.653050542141184 L8.178509904241105,-29.534521959290338 L8.240700146071804,-29.412813578275415 L8.296877098930562,-29.288215396637334 L8.346906908615638,-29.16102429751576 L8.390670367873923,-29.03154334225836 L8.428063200438968,-28.900081048309104 L8.458996309492615,-28.766950654096217 L8.483395989958153,-28.63246937267127 L8.501204104119221,-28.496957635877887 L8.512378220145962,-28.360738330850953 L8.51689171319839,-28.224136030665512 " />
			<path d="M-5.682997158502132,-31.0 L-5.820386577924209,-30.996627277374483 L-5.957445014201008,-30.98651723468215 L-6.093842281554635,-30.969694227901385 L-6.229249787021045,-30.946198785129045 L-6.363341322059274,-30.916087508944724 L-6.495793848416382,-30.879432940050183 L-6.626288276354906,-30.836323382512457 L-6.754510233367979,-30.7868626910316 L-6.88015082153024,-30.73117002074564 L-7.002907361659989,-30.66937954017539 L-7.12248412249985,-30.601640108000762 L-7.238593033159274,-30.528114914447126 L-7.350954377102543,-30.448981088145807 L-7.4592974660104066,-30.364429269415663 L-7.563361291891951,-30.274663150993884 L-7.662895155875713,-30.179898987322332 L-7.75765927216522,-30.08036507357165 L-7.847425345703973,-29.976301195658206 L-7.931977122158237,-29.86795805257881 L-8.011110908892674,-29.755596652454884 L-8.084636065683739,-29.63948768374102 L-8.152375463988681,-29.519910863112795 L-8.214165913663711,-29.39715426160479 L-8.269858556103358,-29.271513610622254 L-8.319319222853887,-29.14329158949822 L-8.36242875883685,-29.012797096312497 L-8.399083309404118,-28.88034450372914 L-8.429194570532815,-28.74625290164516 L-8.452690001557443,-28.610845328475012 L-8.46951299992671,-28.47444799292277 L-8.479623037564025,-28.33738948811677 L-8.482995758503181,-28.200000000000024 " />
			<path d="M-8.480147912238213,26.862152311108563 L-8.480521141045612,24.731095590836464 " />
			<path d="M-8.482764663027892,26.97461869487781 L-8.482203081346567,27.435163738359577 L-8.481858896799357,27.55824612647927 L-8.48167852430841,27.589527257137604 L-8.481587291684109,27.59737966861672 L-8.48149575925318,27.599999999999994 " />
			<path d="M-8.48149575925318,27.599999999999994 L-8.481382042134213,27.595953759957435 L-8.481268900173697,27.583835504902872 L-8.48104662492231,27.535668633238686 L-8.480633607373147,27.347847688891488 " />
			<path d="M-5.716997141502145,-31.0 L-5.8543865609242225,-30.996627277374483 L-5.991444997201022,-30.98651723468215 L-6.127842264554649,-30.969694227901385 L-6.2632497700210585,-30.946198785129045 L-6.397341305059287,-30.916087508944724 L-6.529793831416396,-30.879432940050183 L-6.660288259354919,-30.836323382512457 L-6.7885102163679925,-30.7868626910316 L-6.914150804530253,-30.73117002074564 L-7.036907344660002,-30.66937954017539 L-7.156484105499864,-30.601640108000762 L-7.272593016159288,-30.528114914447126 L-7.384954360102556,-30.448981088145807 L-7.49329744901042,-30.364429269415663 L-7.5973612748919646,-30.274663150993884 L-7.6968951388757265,-30.179898987322332 L-7.791659255165234,-30.08036507357165 L-7.881425328703987,-29.976301195658206 L-7.965977105158251,-29.86795805257881 L-8.045110891892687,-29.755596652454884 L-8.118636048683753,-29.63948768374102 L-8.186375446988695,-29.519910863112795 L-8.248165896663725,-29.39715426160479 L-8.303858539103372,-29.271513610622254 L-8.3533192058539,-29.14329158949822 L-8.396428741836864,-29.012797096312497 L-8.433083292404131,-28.88034450372914 L-8.463194553532826,-28.74625290164516 L-8.486689984557456,-28.610845328475012 L-8.503512982926724,-28.47444799292277 L-8.513623020564037,-28.33738948811677 L-8.516995741503194,-28.200000000000024 " />
			<path d="M5.682997158502131,-31.0 L5.682998143205556,-30.999999999999826 " />
			<path d="M-8.520695739653195,24.5 L-8.520695932510183,24.5 L-8.520696111081467,24.5 L-8.520696275367055,24.5 L-8.520696425366937,24.5 L-8.520696561081124,24.5 L-8.520696682509605,24.5 L-8.520696789652387,24.5 L-8.520696882509464,24.5 L-8.520696961080839,24.5 L-8.520697025366509,24.5 L-8.520697075366476,24.5 L-8.520697111080736,24.5 L-8.520697132509294,24.5 L-8.520697139652146,24.5 " />
			<path d="M-8.520697139652146,24.5 L-8.520697132509293,24.5 L-8.520697111080736,24.5 L-8.520697075366474,24.5 L-8.520697025366507,24.5 L-8.520696961080837,24.5 L-8.520696882509464,24.5 L-8.520696789652387,24.5 L-8.520696682509607,24.5 L-8.520696561081122,24.5 L-8.520696425366937,24.5 L-8.520696275367053,24.5 L-8.520696111081465,24.5 L-8.52069593251018,24.5 L-8.520695739653195,24.5 " />
			<path d="M-8.520695739653194,24.5 L-8.519612035285437,27.116295090390224 L-8.518411669494979,27.91835427029176 L-8.517717575333736,28.128905537491953 L-8.517358404741081,28.18218348868713 L-8.517177291807428,28.19554318795914 L-8.516995741503193,28.2 " />
			<path d="M-8.516995741503193,28.2 L-8.48299575850318,28.2 " />
			<path d="M-5.682997158502132,31.0 L-5.820386577924209,30.996627277374483 L-5.957445014201008,30.98651723468215 L-6.093842281554635,30.969694227901385 L-6.229249787021045,30.946198785129045 L-6.363341322059274,30.916087508944724 L-6.495793848416382,30.879432940050183 L-6.626288276354906,30.836323382512457 L-6.754510233367979,30.7868626910316 L-6.88015082153024,30.73117002074564 L-7.002907361659989,30.66937954017539 L-7.12248412249985,30.601640108000762 L-7.238593033159274,30.528114914447126 L-7.350954377102543,30.448981088145807 L-7.4592974660104066,30.364429269415663 L-7.563361291891951,30.274663150993884 L-7.662895155875713,30.179898987322332 L-7.75765927216522,30.08036507357165 L-7.847425345703973,29.976301195658206 L-7.931977122158237,29.86795805257881 L-8.011110908892674,29.755596652454884 L-8.084636065683739,29.63948768374102 L-8.152375463988681,29.519910863112795 L-8.214165913663711,29.39715426160479 L-8.269858556103358,29.271513610622254 L-8.319319222853887,29.14329158949822 L-8.36242875883685,29.012797096312497 L-8.399083309404118,28.88034450372914 L-8.429194570532815,28.74625290164516 L-8.452690001557443,28.610845328475012 L-8.46951299992671,28.47444799292277 L-8.479623037564025,28.33738948811677 L-8.482995758503181,28.200000000000024 " />
			<path d="M-8.482995758503181,28.2 L-8.4828356810875,28.196535566630523 L-8.482675903443464,28.186148754251043 L-8.482358443189714,28.14469872349542 L-8.481740178876446,27.980447991918457 L-8.480633607373148,27.347847688891473 " />
			<path d="M-8.480147912238213,26.862152311108552 L-8.47929576035318,24.500000000000032 " />
			<path d="M-5.6764971617521285,24.5 L-5.9900151438947375,24.5 L-6.299625667111526,24.5 L-6.60143519943283,24.5 L-6.891648310875743,24.5 L-7.166615403178297,24.5 L-7.422878605615168,24.5 L-7.657215259728337,24.5 L-7.866678446127039,24.5 L-8.048634043708935,24.5 L-8.200793855261342,24.5 L-8.321244382868803,24.5 L-8.408470891259633,24.5 L-8.461376456480819,24.5 L-8.479295760353178,24.5 " />
			<path d="M-5.676804535717389,26.475192319072857 L-5.6764971617521285,24.50000000000006 " />
			<path d="M-5.682997158502131,31.0 L-5.682823731496724,30.997685976077825 L-5.68265042797262,30.99074555191337 L-5.682304684766089,30.963008559902526 L-5.681620092753349,30.852455275499494 L-5.680305543554266,30.41651939299118 L-5.678097160952129,28.770831300812553 " />
			<path d="M-3.477586237556222,28.1 L-3.4780982609513043,28.1 " />
			<path d="M5.723497138252148,24.5 L-5.676497161752128,24.5 " />
			<path d="M5.723497138252147,24.5 L5.721593333281762,29.096194077712557 L5.719484582568797,30.505216961323363 L5.718265227961206,30.875104322621 L5.717634252595731,30.96870072336928 L5.717316081225802,30.992170465333622 L5.7171566594077845,30.99804232152533 L5.716997141502144,31.0 " />
			<path d="M5.723497138252148,24.5 L6.036781188097606,24.5 L6.346095351774103,24.5 L6.647554770092183,24.5 L6.937373236246506,24.5 L7.211910749022346,24.5 L7.4677192297197825,24.5 L7.701585828609707,24.5 L7.910573277010316,24.5 L8.092056778178556,24.5 L8.243756973681988,24.5 L8.363768571207002,24.5 L8.450584274249799,24.5 L8.503113713143023,24.5 L8.520697139652146,24.5 " />
			<path d="M8.520697139652146,24.5 L8.520697132509293,24.5 L8.520697111080736,24.5 L8.520697075366474,24.5 L8.520697025366507,24.5 L8.520696961080837,24.5 L8.520696882509464,24.5 L8.520696789652387,24.5 L8.520696682509607,24.5 L8.520696561081122,24.5 L8.520696425366937,24.5 L8.520696275367053,24.5 L8.520696111081465,24.5 L8.52069593251018,24.5 L8.520695739653195,24.5 " />
			<path d="M8.520695739653194,24.5 L8.519843587768161,26.86215231110853 " />
			<path d="M8.520695739653195,-8.360858673253087 L8.520695739653195,24.5 " />
			<path d="M-8.519191192600635,22.5 L-8.519995740003194,22.5 " />
			<path d="M-8.519191192600635,-22.5 L-8.519995740003194,-22.5 " />
			<path d="M-8.47999576000318,22.3 L-8.48079575960318,22.3 " />
			<path d="M-8.47999576000318,-22.3 L-8.48079575960318,-22.3 " />
			<path d="M5.723497138252147,-24.5 L5.916120415300336,-24.5 L6.107817666954885,-24.5 L6.297680523819498,-24.5 L6.484809308892128,-24.5 L6.668317300740625,-24.5 L6.847334935287611,-24.5 L7.02101392629415,-24.5 L7.188531285017064,-24.5 L7.349093219992476,-24.5 L7.501938898466219,-24.5 L7.646344051647358,-24.5 L7.781624406701071,-24.5 L7.907138929218203,-24.5 L8.022292860796837,-24.5 " />
			<path d="M5.716997141502144,-31.0 L5.7171566594077845,-30.99804232152533 L5.717316081225802,-30.992170465333622 L5.717634252595731,-30.96870072336928 L5.718265227961206,-30.875104322621 L5.719484582568797,-30.505216961323363 L5.721593333281762,-29.09619407771256 L5.723497138252147,-24.50000000000006 " />
			<path d="M5.723497138252148,-24.5 L5.723497138252148,24.5 " />
			<path d="M5.723497138252146,-24.5 L-5.676497161752129,-24.5 " />
			<path d="M-5.676497161752129,24.5 L-5.676497161752129,-24.5 " />
			<path d="M-8.479295760353178,24.5 L-8.479295760353178,-24.5 " />
			<path d="M-5.676497161752129,-24.5 L-5.990015143894738,-24.5 L-6.299625667111526,-24.5 L-6.601435199432831,-24.5 L-6.891648310875743,-24.5 L-7.166615403178297,-24.5 L-7.422878605615169,-24.5 L-7.657215259728338,-24.5 L-7.86667844612704,-24.5 L-8.048634043708937,-24.5 L-8.200793855261342,-24.5 L-8.321244382868803,-24.5 L-8.408470891259634,-24.5 L-8.46137645648082,-24.5 L-8.479295760353178,-24.5 " />
			<path d="M-5.6764971617521285,-24.5 L-5.6784009667225135,-29.096194077712557 L-5.680509717435478,-30.505216961323363 L-5.681729072043069,-30.875104322621 L-5.682360047408544,-30.96870072336928 L-5.682678218778473,-30.992170465333622 L-5.682837640596491,-30.99804232152533 L-5.682997158502131,-31.0 " />
			<path d="M-8.47929576035318,-24.5 L-8.480379464720937,-27.116295090390224 L-8.481579830511395,-27.91835427029176 L-8.482273924672638,-28.128905537491953 L-8.482633095265292,-28.18218348868713 L-8.482814208198945,-28.19554318795914 L-8.482995758503181,-28.2 " />
			<path d="M-8.482995758503181,-28.2 L-8.492395753803185,-28.2 " />
			<path d="M-8.503595748203189,-28.2 L-8.516995741503194,-28.2 " />
			<path d="M-8.516995741503193,-28.2 L-8.517177291807428,-28.19554318795914 L-8.517358404741081,-28.18218348868713 L-8.517717575333736,-28.128905537491953 L-8.518411669494979,-27.91835427029176 L-8.519612035285437,-27.116295090390224 L-8.520695739653194,-24.500000000000007 " />
			<path d="M-8.520695739653195,-24.5 L-8.520695739653195,24.5 " />
			<path d="M-8.520697139652144,-24.5 L-8.520697132509293,-24.5 L-8.520697111080736,-24.5 L-8.520697075366474,-24.5 L-8.520697025366507,-24.5 L-8.520696961080837,-24.5 L-8.520696882509462,-24.5 L-8.520696789652387,-24.5 L-8.520696682509605,-24.5 L-8.520696561081122,-24.5 L-8.520696425366937,-24.5 L-8.520696275367051,-24.5 L-8.520696111081463,-24.5 L-8.52069593251018,-24.5 L-8.520695739653195,-24.5 " />
			<path d="M-8.520697139652144,24.5 L-8.520012959578352,26.644552230095815 L-8.519660301616046,27.069923353379316 L-8.51927099533329,27.420628234988957 L-8.518885796738507,27.6840191629095 L-8.51822197992586,27.99535527236591 L-8.517347459960503,28.196168708130553 L-8.516075295818846,28.274919604144852 L-8.51045789327294,28.39148950818682 L-8.503826173077153,28.471617374445998 L-8.49461151759427,28.553342132478893 " />
			<path d="M-8.48987913769725,28.588738660673823 L-8.480415032392585,28.65120303161672 L-8.452630235664826,28.79695681222882 L-8.417146778726066,28.94109946722696 L-8.374068317743038,29.083177645177322 L-8.323516855896168,29.22278030675525 L-8.267929143263167,29.35445518269084 L-8.205693933796637,29.483123586968595 L-8.136973492373338,29.608449447666512 L-8.061946940995703,29.730105792560497 L-7.987265334591219,29.838869721831276 L-7.907543028351923,29.943995097447534 L-7.822957030491058,30.0452484487722 L-7.733695148920045,30.142404927510157 L-7.667747137354626,30.20862676077303 L-7.599625805323914,30.272610833525995 L-7.529407109370529,30.33428593679506 L-7.457169797415307,30.393584009152764 L-7.337603344072757,30.48334198374217 L-7.213403861681496,30.566595112590747 L-7.084935246116553,30.643101405648956 L-6.95256890072512,30.71264037596107 L-6.8166837281722765,30.775013029372964 L-6.67766612446821,30.83004185699338 L-6.535909974746688,30.877570829865576 L-6.391816650412046,30.917465395366285 " />
			<path d="M-6.027592075672389,30.982720016530337 L-5.950149204605895,30.990276685010652 L-5.872527957830195,30.995678353888092 L-5.79478989929626,30.998920456428515 L-5.716997141502159,31.0 " />
			<path d="M8.520697139652144,24.5 L8.51982414328748,26.88824109777275 " />
			<path d="M8.519385647548493,27.327435237414964 L8.517350322554517,28.19582072925956 L8.515133993010823,28.303672897259712 L8.511406735111866,28.37710351573881 L8.504034085872414,28.469471913400575 L8.49316833886839,28.56447951158166 L8.48065211685528,28.649748825261756 L8.452944142075687,28.79551657078889 L8.417536501512565,28.9396781264 L8.374532688761931,29.08177937571631 L8.324054504052453,29.221409089900245 L8.26853606270836,29.353113183597213 L8.206368539652113,29.481814313160907 L8.137714024098328,29.607176315563684 L8.062751466613566,29.7288721216839 L7.988127080419294,29.837675319331755 L7.908460080618236,29.942842615974968 L7.823927352701711,30.044140447581597 L7.7347165863521035,30.141343866885855 L7.668803416533661,30.207600380140466 L7.6007157494061275,30.271620276447777 L7.530529504314753,30.333332307194336 L7.458323395469469,30.39266837216157 L7.3648479464945895,30.463758847888652 L7.268464284200349,30.530870981154578 L7.1693475290927005,30.593884052852307 L7.06767566303345,30.652685529964703 L6.963629526403166,30.707171061987445 L6.857392815846455,30.757244478086232 L6.74915208251371,30.80281778487992 L6.63909673072029,30.843811164750008 L6.527419016951019,30.88015297458546 L6.414314049144679,30.911779744880597 L6.299979786200115,30.938636179112383 L6.18461703765242,30.960675153332126 L6.0684294634745175,30.97785771591534 L5.951623573966358,30.990153087422023 L5.8344087297008,30.997538660528427 L5.716997141502158,31.0 " />
			<path d="M8.51736530265538,-28.193973720772792 L8.513771124143627,-28.335161990222073 L8.5087851479099,-28.414594370406697 L8.501141096049752,-28.497728260642155 L8.490942940496954,-28.58117629514913 L8.47821136534042,-28.664496218523094 L8.449724436552886,-28.81011995957294 L8.41354806978412,-28.95408808552724 L8.36978744062766,-29.09595370797126 L8.318566408404674,-29.235307460323554 L8.269174215995838,-29.351700091739996 L8.2145772646643,-29.465745537023587 L8.154886959297906,-29.577210660545095 L8.090225062695634,-29.68586784546817 L8.033153713851377,-29.77335035717454 L7.972859076596176,-29.858643506660556 L7.9094250637047,-29.941628553143076 L7.842939955657614,-30.02218998134805 L7.79309645856278,-30.078789412794258 L7.741735672260625,-30.134031574777868 L7.6888978226956946,-30.187874485875263 L7.634623750491475,-30.24027750119584 L7.578954910950395,-30.291201312382007 L7.521933374053823,-30.34060794760917 L7.463601824462077,-30.388460771585745 L7.404003561514411,-30.434724485553158 L7.343182499229026,-30.47936512728584 L7.2811831663030615,-30.52235007109123 L7.218050706112603,-30.56364802780977 L7.153830876712677,-30.603229044814913 L7.088570050837252,-30.641064506013127 L7.022315215899237,-30.677127131843868 L6.955113973990489,-30.711390979279617 L6.887014541881802,-30.743831441825854 L6.8180657510229175,-30.774425249521062 L6.748317047542514,-30.803150468936746 L6.677818492248217,-30.8299865031774 L6.606620760626593,-30.854914091880534 L6.53477514284315,-30.877915311216668 L6.462333543742339,-30.89897357388933 L6.389348482847554,-30.91807362913504 L6.31587309436113,-30.935201562723343 L6.241961127164348,-30.950344796956784 L6.167666944817427,-30.963492090670915 L6.093045525559532,-30.974633539234294 L6.01815246230877,-30.983760574548487 L5.9430439626621885,-30.990865965048073 L5.867776848895777,-30.995943815700624 L5.79240855796447,-30.998989568006735 L5.716997141502176,-31.0 " />
			<path d="M8.520697139652146,-8.361594473209607 L8.520697139652146,24.5 " />
			<path d="M-8.520697139652146,-24.5 L-8.520697139652146,24.5 " />
			<path d="M-8.520697139652144,-24.5 L-8.520012959578345,-26.644552230095805 L-8.519660301616042,-27.0699233533793 L-8.51927099533329,-27.420628234988946 L-8.518885796738504,-27.684019162909497 L-8.51822197992586,-27.99535527236591 L-8.517347459960503,-28.196168708130553 L-8.51607529581891,-28.274919604142777 L-8.510457893273355,-28.391489508180737 L-8.503826173077911,-28.471617374438267 L-8.494611517595356,-28.553342132470352 " />
			<path d="M-8.489879137695192,-28.588738660688506 L-8.480415032392585,-28.65120303161672 L-8.452630235664826,-28.796956812228824 L-8.417146778726067,-28.941099467226945 L-8.37406831774304,-29.08317764517732 L-8.323516855896168,-29.22278030675525 L-8.26792914326317,-29.354455182690835 L-8.205693933796644,-29.483123586968585 L-8.136973492373341,-29.608449447666505 L-8.061946940995705,-29.730105792560494 L-7.987265334591223,-29.838869721831273 L-7.907543028351928,-29.943995097447534 L-7.822957030491061,-30.045248448772195 L-7.733695148920045,-30.142404927510153 L-7.6677471373546275,-30.20862676077302 L-7.599625805323919,-30.27261083352599 L-7.5294071093705295,-30.334285936795062 L-7.457169797415308,-30.393584009152764 L-7.337603344025424,-30.48334198377578 L-7.213403861583372,-30.56659511265281 L-7.084935245964607,-30.643101405734043 L-6.952568900516765,-30.71264037606353 L-6.816683727905375,-30.775013029486946 L-6.677666124141086,-30.830041857112864 L-6.535909974358144,-30.877570829984403 L-6.39181664996137,-30.917465395478196 " />
			<path d="M-6.027592077428748,-30.982720016334294 L-5.950149205926724,-30.990276684900287 L-5.872527958712427,-30.99567835383902 L-5.7947898997378635,-30.99892045641625 L-5.71699714150216,-31.0 " />

       </g>
    </g>
    
</svg>
