<?xml version="1.0" encoding="UTF-8" standalone="no"?>
<svg
   xmlns:svg="http://www.w3.org/2000/svg"
   xmlns="http://www.w3.org/2000/svg"
   width="640.0"
   height="420.0"

>
    <g transform="scale(6.695148390691077, -6.695148390691077)   translate(14.502672731564584,-29.498972759827648)" stroke-width="0.1493618873915324"  fill="none">
       <!-- hidden lines -->
       <g  stroke="rgb(170,190,200)" fill="none" stroke-dasharray="0.1493618873915324,0.1493618873915324" >

       </g>

       <!-- solid lines -->
       <g  stroke="rgb(19,78,74)" fill="none">
			<path d="M8.5281957359032,-3.6281896577159687 L8.528197135929899,-3.626091365671742 " />
			<path d="M8.528197135929899,-3.6260913656717424 L8.525420225221536,-3.5304085890428234 L8.51736750271434,-3.4328852334430415 L8.504435732359799,-3.3336970138528303 L8.486995756503186,-3.2330111850939924 " />
			<path d="M8.519562378129718,7.397568472748227 L8.52598911546906,7.48436968489829 L8.528197135929327,7.569700850257749 " />
			<path d="M8.528197135929327,7.56970085025775 L8.5281957359032,7.571804742293829 " />
			<path d="M7.70439513512573,22.655395364030095 L7.799159251415237,22.555861594810303 L7.8889253249539895,22.45179785869469 L7.973477101408254,22.343454854338464 L8.052610888142691,22.231093589528847 L8.126136044933757,22.11498475239445 L8.1938754432387,21.995408059293858 L8.25566589291373,21.872651580954436 L8.311358535353376,21.747011048484698 L8.360819202103905,21.61878914093218 L8.403928738086869,21.488294756103084 L8.440583288654135,21.355842266400423 L8.47069454978283,21.22175076147336 L8.49418998080746,21.086343279502287 L8.511012979176726,20.949946028971574 L8.521123016814041,20.812887602804732 L8.524495737753199,20.675498186755316 " />
			<path d="M-5.675497162252129,-23.52449391326207 L-5.812886581674205,-23.521121329712194 L-5.949945017951002,-23.511011429133173 L-6.086342285304625,-23.49418856716103 L-6.2217497907710335,-23.47069327154376 L-6.355841325809259,-23.44058214450645 L-6.4882938521663664,-23.40392772639156 L-6.618788280104887,-23.360818320902876 L-6.747010237117958,-23.311357782374152 L-6.872650825280216,-23.255665265574944 L-6.995407365409962,-23.1938749386563 L-7.114984126249823,-23.126135659927968 L-7.231093036909245,-23.052610619245666 L-7.3434543808525135,-22.973476944872424 L-7.4517974697603755,-22.8889252767611 L-7.555861295641918,-22.799159307286025 L-7.655395159625662,-22.704395290530258 " />
			<path d="M8.527495736253199,8.034682336646398 L8.5281957359032,7.571804742293822 " />
			<path d="M8.527495736253199,14.97250104125031 L8.527495736253199,8.034682336646398 " />
			<path d="M8.527495736253199,14.972501041250307 L8.526031270891364,18.509497643316557 L8.524409154958315,19.59498297232026 L8.523471189875552,19.880449533660656 L8.522985824209801,19.95293209418732 L8.522741077002165,19.971230479788282 L8.522495738753197,19.977498533754694 " />
			<path d="M8.477495761253179,20.022498466254802 L8.522495738753197,19.977498533754694 " />
			<path d="M8.47749576125318,20.022498466254802 L8.477490761258181,20.02250096624793 " />
			<path d="M8.477490761258181,20.02250096624793 L8.477368134843642,20.020996976278994 L8.477245585208632,20.016485911411706 L8.47700101108811,19.99845521974668 L8.476516019572761,19.92654926038769 L8.475578881041177,19.642376836662237 L8.473958461791549,18.55980219299626 L8.472495763753178,15.027500958750485 " />
			<path d="M8.472495763753178,-14.97248404127581 L8.472495763753178,15.02750095875044 " />
			<path d="M8.472495763753178,-14.97248404127581 L8.473960229115013,-18.50948064334206 L8.475582345048062,-19.59496597234576 L8.476520310130825,-19.880432533686157 L8.477005675796576,-19.95291509421282 L8.477250423004213,-19.971213479813784 L8.47749576125318,-19.977481533780196 " />
			<path d="M8.522495738753197,-20.022481466280304 L8.477495761253179,-19.9774815337802 " />
			<path d="M8.522495738753197,-20.022481466280304 L8.522500738748196,-20.02248396627343 " />
			<path d="M8.522500738748196,-20.02248396627343 L8.522623365162735,-20.020979976304496 L8.522745914797746,-20.016468911437208 L8.522990488918268,-19.998438219772183 L8.523475480433616,-19.926532260413193 L8.5244126189652,-19.64235983668774 L8.526033038214829,-18.55978519302176 L8.527495736253199,-15.027483958775953 " />
			<path d="M8.527495736253199,-4.089667254168526 L8.527495736253199,-15.027483958775939 " />
			<path d="M8.527495736253199,-4.089667254168527 L8.5281957359032,-3.628189657715951 " />
			<path d="M8.486995756503184,-4.089667294668467 L8.527495736253199,-4.0896672541685275 " />
			<path d="M8.52048362241572,8.034682329634288 L8.527495736253199,8.034682336646394 " />
			<path d="M3.4712274330859056,21.928763338158543 L5.671226933086432,21.928765538155844 " />
			<path d="M3.471898264051302,22.440115902946527 L3.4712274330859048,21.92876333815856 " />
			<path d="M3.471898264051302,22.440115902946523 L3.4747899670188778,22.503577651278377 L3.483426093135595,22.565269761883687 L3.4980133955348216,22.624943890262255 L3.51870926508105,22.68234388215005 L3.545595843870145,22.737205784058297 L3.578683997071792,22.789312691758305 L3.617911601333872,22.838492797508625 L3.6631168834563965,22.884594575705442 L3.714067390070701,22.927527729993745 L3.7704620026846305,22.967251318198606 L3.8319341855255833,23.003766431366845 L3.898100807407578,23.037131165501695 L3.968544380305632,23.06743105949456 L4.042859238200514,23.094786743086786 L4.120639253603851,23.119332816862038 L4.20147564916908,23.141209879641625 L4.285013308189201,23.16057118172469 L4.370911715061082,23.17756324754635 L4.458832077262998,23.192321388852218 L4.548463013656213,23.204972754104453 L4.639547557452321,23.215636072443903 L4.731843233256971,23.22441355171858 L4.919144238151591,23.23663554060751 L5.108592036556058,23.24212271851538 L5.298523185487536,23.241099520842823 L5.487384210725686,23.233525942210168 L5.673521970920662,23.21909513735721 " />
			<path d="M-5.724497137752146,-23.475493986761954 L-5.861886557174223,-23.47212140321208 L-5.998944993451021,-23.462011502633057 L-6.135342260804647,-23.445188640660913 L-6.270749766271059,-23.421693345043643 L-6.404841301309291,-23.391582218006334 L-6.537293827666399,-23.354927799891442 L-6.667788255604923,-23.311818394402753 L-6.796010212617995,-23.26235785587403 L-6.921650800780255,-23.206665339074817 L-7.044407340910003,-23.144875012156174 L-7.163984101749865,-23.077135733427838 L-7.2800930124092895,-23.003610692745532 L-7.392454356352558,-22.924477018372286 L-7.500797445260421,-22.83992535026096 L-7.6048612711419645,-22.750159380785885 L-7.7043951351257105,-22.655395364030113 " />
			<path d="M-7.704395135125729,-22.655395364030095 L-7.799159251415235,-22.555861594810303 L-7.888925324953988,-22.451797858694693 L-7.973477101408252,-22.343454854338468 L-8.05261088814269,-22.231093589528847 L-8.126136044933755,-22.11498475239445 L-8.193875443238698,-21.995408059293858 L-8.255665892913727,-21.872651580954436 L-8.311358535353374,-21.747011048484698 L-8.360819202103903,-21.61878914093218 L-8.403928738086867,-21.488294756103084 L-8.440583288654135,-21.355842266400423 L-8.47069454978283,-21.221750761473356 L-8.494189980807459,-21.086343279502287 L-8.511012979176726,-20.949946028971574 L-8.521123016814041,-20.812887602804732 L-8.524495737753199,-20.67549818675531 " />
			<path d="M8.511345744328192,6.3886553170178235 L8.511477387151645,6.7065624280999465 L8.511623224884111,6.8039941460298845 L8.511707567351955,6.8295696641651755 L8.511751216588337,6.836041200507485 L8.511795294103642,6.838205317692598 " />
			<path d="M8.511795294103642,6.838205317692598 L8.511839403939554,6.836038444739195 L8.511883093307375,6.829558693961846 L8.511967535730175,6.8039511074949015 L8.512113623638795,6.706403369544808 L8.512245743653192,6.388205318142822 L8.512114260034263,6.070007266477233 L8.511968367220923,5.9724595282351585 L8.511883976013245,5.94685194159938 L8.511840299604913,5.940372190734665 L8.511796194102743,5.938205317693047 " />
			<path d="M8.511796194102743,5.938205317693047 L8.511752056274627,5.940374948252247 L8.511708339719622,5.946862918698741 L8.511623848502218,5.972502592754029 L8.511477705349419,6.070166404581513 L8.511345744328192,6.388655317017819 " />
			<path d="M8.508945745528193,6.391055313417829 L8.509077388351646,6.708962424499953 L8.509223226084112,6.80639414242989 L8.509307568551955,6.831969660565181 L8.509351217788337,6.838441196907491 L8.509395295303642,6.840605314092603 " />
			<path d="M8.509395295303642,6.840605314092603 L8.509439405139554,6.838438441139201 L8.509483094507376,6.831958690361851 L8.509567536930176,6.806351103894907 L8.509713624838795,6.708803365944814 L8.509845744853193,6.390605314542828 L8.509714261234263,6.072407262877238 L8.509568368420924,5.974859524635164 L8.509483977213245,5.949251937999385 L8.509440300804913,5.942772187134671 L8.509396195302743,5.9406053140930535 " />
			<path d="M8.509396195302743,5.9406053140930535 L8.509352057474628,5.942774944652252 L8.509308340919622,5.949262915098747 L8.509223849702218,5.974902589154035 L8.50907770654942,6.072566400981518 L8.508945745528193,6.391055313417825 " />
			<path d="M8.506545746728191,6.393455309817835 L8.506677389551644,6.711362420899958 L8.50682322728411,6.808794138829896 L8.506907569751954,6.834369656965187 L8.506951218988336,6.840841193307496 L8.506995296503641,6.843005310492609 " />
			<path d="M8.506995296503641,6.843005310492609 L8.507039406339553,6.840838437539206 L8.507083095707374,6.834358686761857 L8.507167538130174,6.808751100294913 L8.507313626038794,6.711203362344819 L8.507445746053191,6.393005310942834 L8.507314262434262,6.074807259277244 L8.507168369620922,5.97725952103517 L8.507083978413243,5.951651934399392 L8.507040302004912,5.945172183534677 L8.506996196502742,5.943005310493058 " />
			<path d="M8.506996196502742,5.943005310493058 L8.506952058674626,5.945174941052258 L8.50690834211962,5.951662911498753 L8.506823850902217,5.977302585554041 L8.506677707749418,6.074966397381524 L8.506545746728191,6.39345530981783 " />
			<path d="M8.50414574792819,6.3958553062178405 L8.504277390751643,6.713762417299964 L8.504423228484109,6.8111941352299015 L8.504507570951953,6.8367696533651925 L8.504551220188334,6.843241189707502 L8.50459529770364,6.845405306892614 " />
			<path d="M8.50459529770364,6.845405306892614 L8.504639407539551,6.843238433939212 L8.504683096907373,6.836758683161863 L8.504767539330173,6.8111510966949185 L8.504913627238793,6.713603358744825 L8.50504574725319,6.395405307342839 L8.50491426363426,6.07720725567725 L8.504768370820921,5.979659517435175 L8.504683979613242,5.954051930799396 L8.50464030320491,5.947572179934682 L8.50459619770274,5.945405306893065 " />
			<path d="M8.50459619770274,5.945405306893065 L8.504552059874625,5.947574937452264 L8.50450834331962,5.954062907898758 L8.504423852102216,5.979702581954046 L8.504277708949417,6.07736639378153 L8.50414574792819,6.395855306217836 " />
			<path d="M8.501745749128188,6.398255302617846 L8.501877391951641,6.716162413699969 L8.502023229684108,6.813594131629907 L8.502107572151951,6.839169649765198 L8.502151221388333,6.845641186107508 L8.502195298903638,6.8478053032926205 " />
			<path d="M8.502195298903638,6.8478053032926205 L8.50223940873955,6.845638430339218 L8.502283098107371,6.839158679561868 L8.502367540530171,6.813551093094924 L8.502513628438791,6.716003355144831 L8.502645748453189,6.397805303742845 L8.502514264834259,6.079607252077255 L8.50236837202092,5.982059513835181 L8.50228398081324,5.956451927199403 L8.502240304404909,5.949972176334688 L8.50219619890274,5.94780530329307 " />
			<path d="M8.50219619890274,5.94780530329307 L8.502152061074623,5.949974933852269 L8.502108344519618,5.956462904298764 L8.502023853302214,5.982102578354052 L8.501877710149415,6.079766390181535 L8.501745749128188,6.398255302617842 " />
			<path d="M8.511345744328192,3.9886565170157233 L8.511477387151645,4.306563628097846 L8.511623224884111,4.403995346027784 L8.511707567351955,4.429570864163075 L8.511751216588337,4.436042400505385 L8.511795294103642,4.438206517690498 " />
			<path d="M8.511795294103642,4.438206517690498 L8.511839403939554,4.436039644737095 L8.511883093307375,4.429559893959746 L8.511967535730175,4.403952307492801 L8.512113623638795,4.306404569542708 L8.512245743653192,3.988206518140722 L8.512114260034263,3.6700084664751325 L8.511968367220923,3.5724607282330583 L8.511883976013245,3.5468531415972797 L8.511840299604913,3.540373390732565 L8.511796194102743,3.538206517690947 " />
			<path d="M8.511796194102743,3.538206517690947 L8.511752056274627,3.5403761482501466 L8.511708339719622,3.546864118696641 L8.511623848502218,3.5725037927519288 L8.511477705349419,3.670167604579412 L8.511345744328192,3.9886565170157193 " />
			<path d="M8.508945745528193,3.991056513415729 L8.509077388351646,4.308963624497853 L8.509223226084112,4.40639534242779 L8.509307568551955,4.431970860563081 L8.509351217788337,4.4384423969053906 L8.509395295303642,4.440606514090502 " />
			<path d="M8.509395295303642,4.440606514090502 L8.509439405139554,4.4384396411371005 L8.509483094507376,4.431959890359751 L8.509567536930176,4.406352303892807 L8.509713624838795,4.308804565942713 L8.509845744853193,3.9906065145407275 L8.509714261234263,3.672408462875138 L8.509568368420924,3.574860724633064 L8.509483977213245,3.5492531379972854 L8.509440300804913,3.542773387132571 L8.509396195302743,3.540606514090953 " />
			<path d="M8.509396195302743,3.540606514090953 L8.509352057474628,3.5427761446501522 L8.509308340919622,3.549264115096647 L8.509223849702218,3.5749037891519344 L8.50907770654942,3.6725676009794177 L8.508945745528193,3.991056513415725 " />
			<path d="M8.511345744328192,1.5886577170136227 L8.511477387151645,1.9065648280957461 L8.511623224884111,2.003996546025684 L8.511707567351955,2.029572064160975 L8.511751216588337,2.0360436005032843 L8.511795294103642,2.0382077176883966 " />
			<path d="M8.511795294103642,2.0382077176883966 L8.511839403939554,2.036040844734994 L8.511883093307375,2.0295610939576454 L8.511967535730175,2.0039535074907002 L8.512113623638795,1.9064057695406067 L8.512245743653192,1.5882077181386214 L8.512114260034263,1.270009666473032 L8.511968367220923,1.1724619282309576 L8.511883976013245,1.146854341595179 L8.511840299604913,1.1403745907304645 L8.511796194102743,1.1382077176888465 " />
			<path d="M8.511796194102743,1.1382077176888465 L8.511752056274627,1.1403773482480457 L8.511708339719622,1.1468653186945406 L8.511623848502218,1.1725049927498283 L8.511477705349419,1.2701688045773114 L8.511345744328192,1.5886577170136187 " />
			<path d="M8.508945745528193,1.5910577134136286 L8.509077388351646,1.908964824495752 L8.509223226084112,2.0063965424256898 L8.509307568551955,2.031972060560981 L8.509351217788337,2.03844359690329 L8.509395295303642,2.0406077140884022 " />
			<path d="M8.509395295303642,2.0406077140884022 L8.509439405139554,2.038440841135 L8.509483094507376,2.031961090357651 L8.509567536930176,2.0063535038907063 L8.509713624838795,1.9088057659406128 L8.509845744853193,1.5906077145386273 L8.509714261234263,1.272409662873038 L8.509568368420924,1.1748619246309635 L8.509483977213245,1.149254337995185 L8.509440300804913,1.1427745871304704 L8.509396195302743,1.1406077140888524 " />
			<path d="M8.509396195302743,1.1406077140888524 L8.509352057474628,1.1427773446480516 L8.509308340919622,1.1492653150945467 L8.509223849702218,1.1749049891498342 L8.50907770654942,1.2725688009773175 L8.508945745528193,1.5910577134136246 " />
			<path d="M8.506545746728191,3.9934565098157346 L8.506677389551644,4.311363620897858 L8.50682322728411,4.408795338827796 L8.506907569751954,4.434370856963087 L8.506951218988336,4.440842393305396 L8.506995296503641,4.443006510490509 " />
			<path d="M8.506995296503641,4.443006510490509 L8.507039406339553,4.440839637537106 L8.507083095707374,4.434359886759757 L8.507167538130174,4.408752300292813 L8.507313626038794,4.311204562342719 L8.507445746053191,3.993006510940733 L8.507314262434262,3.6748084592751438 L8.507168369620922,3.5772607210330696 L8.507083978413243,3.551653134397291 L8.507040302004912,3.5451733835325765 L8.506996196502742,3.5430065104909585 " />
			<path d="M8.506996196502742,3.5430065104909585 L8.506952058674626,3.545176141050158 L8.50690834211962,3.5516641114966525 L8.506823850902217,3.57730378555194 L8.506677707749418,3.6749675973794234 L8.506545746728191,3.9934565098157306 " />
			<path d="M8.50414574792819,3.9958565062157403 L8.504277390751643,4.313763617297864 L8.504423228484109,4.411195335227801 L8.504507570951953,4.436770853363092 L8.504551220188334,4.443242389705402 L8.50459529770364,4.445406506890514 " />
			<path d="M8.50459529770364,4.445406506890514 L8.504639407539551,4.443239633937112 L8.504683096907373,4.4367598831597626 L8.504767539330173,4.411152296692818 L8.504913627238793,4.313604558742725 L8.50504574725319,3.9954065073407388 L8.50491426363426,3.6772084556751494 L8.504768370820921,3.5796607174330752 L8.504683979613242,3.5540531307972967 L8.50464030320491,3.547573379932582 L8.50459619770274,3.545406506890964 " />
			<path d="M8.50459619770274,3.545406506890964 L8.504552059874625,3.5475761374501635 L8.50450834331962,3.554064107896658 L8.504423852102216,3.5797037819519457 L8.504277708949417,3.677367593779429 L8.50414574792819,3.9958565062157363 " />
			<path d="M8.501745749128188,3.998256502615746 L8.501877391951641,4.316163613697869 L8.502023229684108,4.413595331627807 L8.502107572151951,4.439170849763098 L8.502151221388333,4.4456423861054075 L8.502195298903638,4.44780650329052 " />
			<path d="M8.502195298903638,4.44780650329052 L8.50223940873955,4.4456396303371175 L8.502283098107371,4.439159879559768 L8.502367540530171,4.413552293092824 L8.502513628438791,4.31600455514273 L8.502645748453189,3.9978065037407444 L8.502514264834259,3.679608452075155 L8.50236837202092,3.582060713833081 L8.50228398081324,3.5564531271973023 L8.502240304404909,3.549973376332588 L8.50219619890274,3.54780650329097 " />
			<path d="M8.50219619890274,3.54780650329097 L8.502152061074623,3.549976133850169 L8.502108344519618,3.556464104296664 L8.502023853302214,3.5821037783519514 L8.501877710149415,3.6797675901794347 L8.501745749128188,3.998256502615742 " />
			<path d="M8.506545746728191,1.5934577098136342 L8.506677389551644,1.9113648208957577 L8.50682322728411,2.0087965388256954 L8.506907569751954,2.0343720569609864 L8.506951218988336,2.0408435933032956 L8.506995296503641,2.043007710488408 " />
			<path d="M8.506995296503641,2.043007710488408 L8.507039406339553,2.0408408375350056 L8.507083095707374,2.0343610867576567 L8.507167538130174,2.008753500290712 L8.507313626038794,1.9112057623406185 L8.507445746053191,1.593007710938633 L8.507314262434262,1.2748096592730436 L8.507168369620922,1.1772619210309692 L8.507083978413243,1.1516543343951906 L8.507040302004912,1.145174583530476 L8.506996196502742,1.143007710488858 " />
			<path d="M8.506996196502742,1.143007710488858 L8.506952058674626,1.1451773410480572 L8.50690834211962,1.1516653114945523 L8.506823850902217,1.1773049855498399 L8.506677707749418,1.2749687973773232 L8.506545746728191,1.5934577098136302 " />
			<path d="M8.50414574792819,1.5958577062136399 L8.504277390751643,1.9137648172957633 L8.504423228484109,2.011196535225701 L8.504507570951953,2.036772053360992 L8.504551220188334,2.043243589703301 L8.50459529770364,2.0454077068884136 " />
			<path d="M8.50459529770364,2.0454077068884136 L8.504639407539551,2.043240833935011 L8.504683096907373,2.0367610831576624 L8.504767539330173,2.0111534966907176 L8.504913627238793,1.913605758740624 L8.50504574725319,1.5954077073386386 L8.50491426363426,1.2772096556730492 L8.504768370820921,1.1796619174309748 L8.504683979613242,1.1540543307951963 L8.50464030320491,1.1475745799304817 L8.50459619770274,1.1454077068888637 " />
			<path d="M8.50459619770274,1.1454077068888637 L8.504552059874625,1.147577337448063 L8.50450834331962,1.154065307894558 L8.504423852102216,1.1797049819498455 L8.504277708949417,1.2773687937773288 L8.50414574792819,1.5958577062136359 " />
			<path d="M8.501745749128188,1.5982577026136455 L8.501877391951641,1.916164813695769 L8.502023229684108,2.0135965316257067 L8.502107572151951,2.0391720497609978 L8.502151221388333,2.045643586103307 L8.502195298903638,2.047807703288419 " />
			<path d="M8.502195298903638,2.047807703288419 L8.50223940873955,2.045640830335017 L8.502283098107371,2.039161079557668 L8.502367540530171,2.0135534930907233 L8.502513628438791,1.9160057551406298 L8.502645748453189,1.5978077037386442 L8.502514264834259,1.2796096520730549 L8.50236837202092,1.1820619138309805 L8.50228398081324,1.156454327195202 L8.502240304404909,1.1499745763304874 L8.50219619890274,1.1478077032888694 " />
			<path d="M8.50219619890274,1.1478077032888694 L8.502152061074623,1.1499773338480686 L8.502108344519618,1.1564653042945636 L8.502023853302214,1.1821049783498512 L8.501877710149415,1.2797687901773345 L8.501745749128188,1.5982577026136415 " />
			<path d="M8.200418027926712,-2.9196010753756276 L8.159335310026606,-2.92036865482231 L8.116359264900211,-2.9171668604995675 L8.071941663234476,-2.9094574362115035 L8.026638973354197,-2.896735821220758 L7.9810934526365385,-2.87853910103136 L7.936106304998941,-2.854493289159147 L7.892670235991016,-2.824399115960347 L7.851843120505415,-2.7882338708711556 " />
			<path d="M7.851843120505414,-2.788233870871155 L7.828026960037757,-2.762489585190839 L7.805966501148608,-2.7345367006142203 L7.785931843742955,-2.7045217478694306 L7.768176569019033,-2.6726299039662127 L7.7529321115289855,-2.639085191220288 L7.740397719030739,-2.604137876275111 L7.730738401943794,-2.5680613566869246 L7.724083084944119,-2.5311511598276795 L7.720521300004496,-2.493720067907987 L7.720100558929168,-2.4560916728097997 L7.722826118439276,-2.4185836593776195 L7.728661597930576,-2.3815185318238443 L7.7375286594616535,-2.345211018297257 L7.749309240195945,-2.3099604607450375 L7.763847616015424,-2.2760475807099643 L7.780951520982436,-2.243732631813393 L7.800398264955165,-2.2132447710264023 L7.821940061558773,-2.184778646436751 L7.845310626412742,-2.158491062739134 L7.8702323521415485,-2.1344987044219774 L7.896424276666426,-2.112877756189774 L7.92360482023964,-2.0936676039487656 L7.9515098821895736,-2.076865395449489 L7.979890363249671,-2.0624370937018783 L8.008503676095359,-2.050326493737421 L8.037122039413589,-2.0404534761131026 L8.093702187867786,-2.0269713646714766 L8.148455237807557,-2.021027026423294 L8.20041802792671,-2.021580053209041 " />
			<path d="M8.200418027926718,-2.919601075375633 L8.200418027926718,-2.021580053209041 " />
			<path d="M8.20041802792671,-0.3196023753733515 L8.15933531009687,-0.3203699548219345 L8.11635926497889,-0.3171681605069668 L8.071941663322946,-0.3094587362291003 L8.02663897348061,-0.2967371212613059 L7.9810934527681985,-0.2785404010901687 L7.936106305084694,-0.25449458920913615 L7.8926702360319,-0.22440041599009453 L7.851843120505412,-0.18823517086887878 " />
			<path d="M7.851843120505413,-0.18823517086887825 L7.828026960037713,-0.1624908851885129 L7.805966501148532,-0.13453800061184096 L7.785931843742854,-0.10452304786699093 L7.768176569018917,-0.07263120396370733 L7.752932111528872,-0.03908649121773702 L7.740397719030634,-0.004139176272496284 L7.730738401943705,0.03193734331575318 L7.724083084944056,0.06884754017505033 L7.720521300004469,0.1062786320948051 L7.720100558929185,0.1439070271930212 L7.72282611843934,0.1814150406252101 L7.728661597930688,0.21848016817899013 L7.737528659461814,0.25478768170557736 L7.7493092401961565,0.29003823925779126 L7.763847616015677,0.3239511192928427 L7.7809515209827245,0.35626606818937756 L7.800398264955478,0.38675392897632377 L7.821940061559104,0.41522005356592745 L7.8453106264130845,0.4415076372634983 L7.870232352141898,0.46549999558060945 L7.896424276666777,0.48712094381276927 L7.923604820239973,0.5063310960537283 L7.9515098821898835,0.5231333045529583 L7.979890363249958,0.537561606300531 L8.008503676095618,0.5496722062649542 L8.03712203941381,0.559545223889241 L8.093702187867926,0.5730273353308231 L8.148455237807628,0.5789716735789848 L8.20041802792671,0.5784186467932342 " />
			<path d="M8.200418027926718,-0.319602375373357 L8.200418027926718,0.5784186467932315 " />
			<path d="M8.20041802792671,2.2803963246289225 L8.159335310094582,2.279628745180401 L8.11635926497632,2.282830539495623 L8.071941663320036,2.290539963773827 L8.02663897347645,2.303261578742377 L7.981093452763857,2.32145829891412 L7.936106305081873,2.345504110794857 L7.892670236030568,2.375598284013223 L7.8518431205054116,2.4117635291333963 " />
			<path d="M7.85184312050541,2.411763529133397 L7.828026960037664,2.437507814813819 L7.805966501148442,2.4654606993905586 L7.785931843742732,2.4954756521354824 L7.7681765690187765,2.5273674960388455 L7.752932111528745,2.5609122087848455 L7.740397719030531,2.595859523730107 L7.730738401943625,2.631936043318381 L7.724083084944003,2.668846240177704 L7.720521300004448,2.706277332097493 L7.7201005589291976,2.743905727195712 L7.722826118439387,2.7814137406278916 L7.728661597930768,2.818478868181659 L7.7375286594619235,2.8547863817082293 L7.749309240196293,2.890036939260425 L7.763847616015836,2.923949819295447 L7.780951520982897,2.956264768191947 L7.800398264955659,2.9867526289788557 L7.821940061559288,3.0152187535684263 L7.845310626413269,3.041506337265963 L7.870232352142078,3.065498695583043 L7.896424276666949,3.0871196438151736 L7.923604820240137,3.1063297960561083 L7.951509882190035,3.1231320045553157 L7.979890363250096,3.137560306302868 L8.00850367609574,3.149670906267275 L8.037122039413912,3.1595439238915475 L8.093702187867994,3.1730260353331086 L8.148455237807658,3.1789703735812602 L8.200418027926709,3.1784173467955084 " />
			<path d="M8.200418027926718,2.280396324628917 L8.200418027926718,3.1784173467955092 " />
			<path d="M8.20041802792671,4.880395024631197 L8.159335310096928,4.879627445182614 L8.116359264978946,4.882829239497576 L8.071941663323006,4.890538663775437 L8.026638973480694,4.903260278743217 L7.98109345276828,4.921456998914343 L7.936106305084746,4.945502810795383 L7.89267023603192,4.975596984014441 L7.851843120505413,5.0117622291356705 " />
			<path d="M7.851843120505412,5.0117622291356705 L7.82802696003768,5.037506514816078 L7.805966501148469,5.065459399392796 L7.785931843742769,5.095474352137699 L7.7681765690188165,5.1273661960410415 L7.752932111528782,5.160910908787034 L7.740397719030566,5.195858223732272 L7.730738401943655,5.231934743320522 L7.7240830849440245,5.268844940179831 L7.7205213000044575,5.3062760320996 L7.720100558929192,5.343904427197809 L7.722826118439365,5.381412440629985 L7.72866159793073,5.4184775681837465 L7.737528659461869,5.454785081710314 L7.749309240196222,5.490035639262512 L7.7638476160157515,5.523948519297546 L7.7809515209828035,5.556263468194063 L7.800398264955561,5.586751328980994 L7.8219400615591885,5.61521745357058 L7.845310626413168,5.641505037268134 L7.8702323521419775,5.66549739558523 L7.89642427666685,5.687118343817375 L7.9236048202400395,5.706328496058322 L7.951509882189945,5.723130704557542 L7.979890363250012,5.737559006305107 L8.008503676095662,5.7496696062695225 L8.037122039413848,5.759542623893804 L8.093702187867951,5.773024735335378 L8.148455237807639,5.778969073583535 L8.200418027926709,5.778416046797784 " />
			<path d="M8.200418027926718,4.880395024631195 L8.200418027926718,5.778416046797783 " />
			<path d="M8.20041802792671,7.480393724633471 L8.15933531009689,7.4796261451848896 L8.116359264978891,7.482827939499859 L8.071941663322923,7.490537363777729 L8.02663897348057,7.503258978745532 L7.981093452768146,7.5214556989166805 L7.936106305084665,7.545501510797706 L7.892670236031894,7.575595684016733 L7.851843120505411,7.6117609291379456 " />
			<path d="M7.8518431205054116,7.611760929137946 L7.82802696003772,7.6375052148183045 L7.80596650114854,7.665458099394972 L7.785931843742865,7.695473052139818 L7.768176569018927,7.727364896043099 L7.752932111528884,7.760909608789061 L7.7403977190306525,7.795856923734267 L7.730738401943725,7.831933443322486 L7.724083084944071,7.868843640181769 L7.720521300004475,7.906274732101502 L7.720100558929181,7.943903127199705 L7.722826118439324,7.981411140631897 L7.72866159793066,8.018476268185676 L7.737528659461774,8.054783781712263 L7.749309240196105,8.09003433926448 L7.7638476160156165,8.123947219299538 L7.780951520982656,8.156262168196085 L7.800398264955406,8.186750028983042 L7.821940061559024,8.215216153572653 L7.845310626412998,8.24150373727023 L7.870232352141804,8.265496095587348 L7.896424276666676,8.287117043819515 L7.9236048202398655,8.306327196060481 L7.951509882189773,8.32312940455972 L7.979890363249844,8.337557706307301 L8.00850367609551,8.349668306271735 L8.037122039413715,8.359541323896035 L8.093702187867867,8.373023435337638 L8.148455237807598,8.378967773585808 L8.200418027926709,8.378414746800054 " />
			<path d="M8.200418027926718,7.480393724633469 L8.200418027926718,8.378414746800058 " />
			<path d="M8.20041802792671,10.080392424635747 L8.159335310096788,10.079624845187167 L8.116359264978772,10.082826639502148 L8.07194166332278,10.090536063780036 L8.026638973480368,10.103257678747877 L7.98109345276793,10.121454398919056 L7.936106305084551,10.145500210800051 L7.8926702360318775,10.175594384019023 L7.851843120505413,10.21175962914022 " />
			<path d="M7.851843120505412,10.211759629140222 L7.828026960037728,10.23750391482057 L7.805966501148562,10.265456799397217 L7.785931843742897,10.29547175214204 L7.768176569018966,10.327363596045297 L7.752932111528922,10.360908308791242 L7.740397719030685,10.395855623736436 L7.730738401943752,10.431932143324639 L7.72408308494409,10.468842340183903 L7.720521300004483,10.506273432103622 L7.720100558929176,10.543901827201818 L7.722826118439306,10.581409840634013 L7.72866159793063,10.618474968187801 L7.737528659461733,10.654782481714397 L7.749309240196054,10.690033039266625 L7.76384761601556,10.723945919301695 L7.780951520982597,10.75626086819826 L7.800398264955347,10.786748728985232 L7.82194006155897,10.815214853574863 L7.845310626412954,10.841502437272462 L7.870232352141775,10.8654947955896 L7.896424276666664,10.887115743821782 L7.923604820239873,10.906325896062762 L7.951509882189803,10.923128104562014 L7.979890363249896,10.937556406309602 L8.008503676095566,10.949667006274035 L8.037122039413765,10.95954002389833 L8.093702187867898,10.973022135339919 L8.148455237807614,10.978966473588084 L8.20041802792671,10.978413446802335 " />
			<path d="M8.200418027926718,10.080392424635747 L8.200418027926718,10.978413446802332 " />
			<path d="M5.675497162252129,23.52449391326207 L5.812886581674207,23.521121329712194 L5.949945017951006,23.511011429133173 L6.086342285304632,23.49418856716103 L6.2217497907710415,23.47069327154376 L6.35584132580927,23.44058214450645 L6.48829385216638,23.403927726391558 L6.618788280104904,23.36081832090287 L6.747010237117976,23.311357782374145 L6.872650825280236,23.255665265574933 L6.995407365409986,23.193874938656286 L7.1149841262498486,23.126135659927954 L7.2310930369092725,23.052610619245645 L7.343454380852542,22.9734769448724 L7.451797469760404,22.888925276761075 L7.555861295641948,22.799159307285997 L7.6553951596257015,22.70439529053022 " />
			<path d="M7.65539515962571,22.704395290530208 L7.750159275915217,22.60486152131042 L7.83992534945397,22.500797785194806 L7.9244771259082345,22.39245478083858 L8.00361091264267,22.280093516028963 L8.077136069433736,22.163984678894565 L8.144875467738679,22.044407985793974 L8.206665917413709,21.921651507454552 L8.262358559853357,21.796010974984814 L8.311819226603884,21.667789067432295 L8.354928762586848,21.5372946826032 L8.391583313154117,21.404842192900535 L8.421694574282812,21.27075068797347 L8.445190005307442,21.135343206002403 L8.462013003676708,20.99894595547169 L8.472123041314022,20.861887529304852 L8.475495762253178,20.724498113255432 " />
			<path d="M6.871896564052577,22.112452584063146 L6.871897414020153,22.11365464226644 " />
			<path d="M6.871897414020153,22.113654642266443 L6.870772931893719,22.15745823497855 L6.867406179711718,22.201322909377 L6.861805287946308,22.24520679214769 L6.853977147187185,22.28905968383248 L6.8439262044005,22.332832634846955 L6.831651397224355,22.37648487862782 L6.817147737577893,22.41997147110481 L6.800406543946201,22.46324327461269 L6.781415645513235,22.506246985814013 L6.760159553030346,22.54892515751503 L6.736619584754867,22.59121620693235 L6.710773935793329,22.633054402967705 L6.682597679183796,22.674369825048238 L6.6520626870518615,22.715088286089827 L6.619137460174811,22.75513121214081 L6.583786854288487,22.794415471263548 L6.54597169147136,22.832853144211334 L6.505648244940344,22.870351229457974 L6.462779148054502,22.906801753960487 L6.417338005618203,22.942081087021542 L6.3692941101549065,22.976063908203294 L6.318623682270178,23.008614293954214 L6.265311465284519,23.039586313800413 L6.209348994058961,23.068826360162014 L6.1507425482129525,23.096170154899283 L6.089532659178311,23.12143783227553 L6.025785984538321,23.144443715114203 L5.959597784928297,23.16499958476423 L5.891095111135244,23.182918369674027 L5.820440256805536,23.198018511478544 L5.7478344767606036,23.210129008599267 L5.673521970920658,23.219095137357193 " />
			<path d="M6.8718965640525775,22.112452584063142 L6.871649398498912,21.928343073165394 " />
			<path d="M5.6712263330867305,21.928765538155243 L6.8716493892152775,21.928343073153265 " />
			<path d="M8.517933563207793,-1.5179285452809692 L8.516995741721944,1.9812575267466936 L8.517931813967095,5.47903818020362 L8.520491194108414,8.039060169234777 L8.522178089996899,8.737714731962503 L8.52307554916549,8.91617865632402 L8.523531149818199,8.96103430171717 L8.523759817720105,8.972263225885538 L8.523988738010198,8.976007535985444 " />
			<path d="M8.523988738010198,8.976007535985444 L8.524162401749363,8.97385303271695 L8.524335962894925,8.967390848816922 L8.524682350176347,8.941562000131421 L8.52536920499258,8.838564389743393 L8.526695736653199,8.43163226786762 " />
			<path d="M8.517933563207794,-1.5179285452808808 L8.486995756503184,-1.4869907695140314 " />
			<path d="M8.486995756503184,-1.4869907695140314 L8.486995756503184,-14.486984269525406 " />
			<path d="M8.486995756503184,-14.486984269525408 L8.524995737503199,-14.524984212525498 " />
			<path d="M8.524995737503199,-14.524984212525498 L8.524995737503199,-4.953192228690996 " />
			<path d="M8.524995737503199,-4.953192228691005 L8.526695736653199,-4.485017187789747 " />
			<path d="M8.526695736653199,-4.485017187789746 L8.526695736653199,-14.826684059975765 " />
			<path d="M8.522295738853197,-19.222281866579603 L8.522300138848797,-19.222284066573554 " />
			<path d="M8.522300138848797,-19.222284066573554 L8.5225158937724,-19.216990818317676 L8.52273111899846,-19.201123809652458 L8.523157911531966,-19.137846565416545 L8.523982593439762,-18.887774832538145 L8.525408562379432,-17.935109146112087 L8.526695736653199,-14.826684059975776 " />
			<path d="M8.522295738853197,-19.222281866579607 L8.47769576115318,-19.1776819334795 " />
			<path d="M8.473295763353178,-14.773284140075637 L8.474584492871593,-17.88584114989394 L8.476011954892677,-18.841068239417197 L8.476837364165508,-19.092278813396746 L8.477264485951368,-19.15606346666021 L8.477479863494088,-19.172166045989055 L8.47769576115318,-19.177681933479498 " />
			<path d="M8.473295763353178,-14.773284140075642 L8.473295763353178,14.826701059950265 " />
			<path d="M8.47769576115318,19.2222988665541 L8.47769136115758,19.222301066548052 " />
			<path d="M8.47769136115758,19.222301066548052 L8.477475606233977,19.217007818292178 L8.477260381007918,19.201140809626956 L8.476833588474411,19.137863565391044 L8.476008906566616,18.887791832512644 L8.474582937626945,17.935126146086585 L8.473295763353178,14.826701059950304 " />
			<path d="M8.47769576115318,19.2222988665541 L8.522295738853197,19.177698933453996 " />
			<path d="M8.526695736653199,14.773301140050137 L8.525407007134785,17.885858149868433 L8.5239795451137,18.841085239391695 L8.52315413584087,19.092295813371244 L8.52272701405501,19.15608046663471 L8.52251163651229,19.172183045963553 L8.522295738853197,19.177698933453996 " />
			<path d="M8.526695736653199,14.773301140050137 L8.526695736653199,8.431632267867618 " />
			<path d="M7.852111660439899,-2.788502185262189 L7.828988048685276,-2.763513900637739 L7.807819814026473,-2.736848911284313 L7.788728124285804,-2.70865984866807 L7.771822261059372,-2.6791080681115176 L7.7571989941848365,-2.6483627251891884 L7.744942027826993,-2.616599807474361 L7.7351215213517825,-2.584001127179149 L7.727793687731275,-2.550753280454122 L7.723000471778364,-2.5170465793044725 L7.720769310052983,-2.483073962236482 L7.721112973814137,-2.4490298898697924 L7.724029495916704,-2.415109231837032 L7.729502182071453,-2.3815061513422444 L7.737499706403824,-2.3484129937629366 L7.747976290764488,-2.316019185657441 L7.760871966765302,-2.284510150479714 L7.776112919040771,-2.2540662472080673 L7.793611907770143,-2.224861737963155 L7.813268768041644,-2.197063790524625 L7.834970983200438,-2.170831521456055 L7.858594328898455,-2.146315085315378 L7.8840035841595455,-2.1236548151641808 L7.911053305389746,-2.1029804192956463 L7.939588658902238,-2.0844102387790895 L7.969446307191566,-2.0680505700709437 L8.000455343884054,-2.0539950565695886 L8.03243827201273,-2.0423241525967906 L8.065212020017068,-2.0331046628739458 L8.098588989651924,-2.02638936012918 L8.132378129807403,-2.0222166830241424 L8.166386030093054,-2.020610516129569 L8.200418027926686,-2.0215800532090396 " />
			<path d="M7.852111660439676,-0.18850348525969038 L7.828988048685076,-0.16351520063523214 L7.807819814026297,-0.13685021128179956 L7.788728124285653,-0.10866114866555238 L7.771822261059244,-0.07910936810899813 L7.757198994184731,-0.048364025186668935 L7.74494202782691,-0.01660110747184368 L7.73512152135172,0.015997572823364448 L7.727793687731232,0.04924541954838596 L7.72300047177834,0.08295212069802824 L7.720769310052977,0.11692473776600948 L7.721112973814147,0.15096881013268948 L7.724029495916728,0.18488946816543866 L7.72950218207149,0.21849254866021411 L7.737499706403872,0.25158570623950904 L7.747976290764545,0.2839795143449913 L7.760871966765368,0.31548854952270444 L7.776112919040842,0.34593245279433754 L7.793611907770218,0.37513696203923574 L7.8132687680417225,0.402934909477752 L7.834970983200517,0.42916717854630815 L7.858594328898533,0.45368361468697227 L7.884003584159622,0.4763438848381568 L7.911053305389819,0.49701828070667986 L7.939588658902307,0.5155884612232259 L7.969446307191628,0.531948129931362 L8.00045534388411,0.5460036434327085 L8.032438272012778,0.5576745474054993 L8.065212020017105,0.5668940371283384 L8.098588989651953,0.5736093398730997 L8.132378129807423,0.5777820169781338 L8.166386030093065,0.5793881838727061 L8.200418027926686,0.5784186467932352 " />
			<path d="M7.852111660439915,2.4114952147423447 L7.828988048685289,2.4364834993667936 L7.807819814026485,2.4631484887202193 L7.788728124285814,2.4913375513364624 L7.771822261059381,2.5208893318930143 L7.757198994184844,2.5516346748153436 L7.7449420278269985,2.583397592530171 L7.735121521351787,2.6159962728253836 L7.727793687731277,2.649244119550411 L7.723000471778366,2.682950820700061 L7.720769310052983,2.7169234377680516 L7.721112973814137,2.7509675101347426 L7.724029495916702,2.7848881681675035 L7.7295021820714505,2.818491248662292 L7.7374997064038205,2.8515844062416003 L7.747976290764483,2.8839782143470973 L7.760871966765298,2.915487249524825 L7.776112919040766,2.945931152796473 L7.7936119077701385,2.975135662041386 L7.813268768041639,3.0029336094799173 L7.8349709832004315,3.029165878548488 L7.85859432889845,3.053682314689166 L7.88400358415954,3.076342584840364 L7.911053305389742,3.0970169807088994 L7.939588658902234,3.115587161225457 L7.9694463071915616,3.1319468299336033 L8.00045534388405,3.146002343434959 L8.032438272012726,3.1576732474077573 L8.065212020017064,3.166892737130603 L8.09858898965192,3.173608039875369 L8.132378129807401,3.1777807169804064 L8.166386030093054,3.1793868838749804 L8.200418027926686,3.1784173467955097 " />
			<path d="M7.852111660439699,5.011493914744836 L7.828988048685098,5.036482199369294 L7.807819814026316,5.063147188722725 L7.788728124285669,5.091336251338973 L7.771822261059257,5.120888031895526 L7.757198994184742,5.151633374817855 L7.7449420278269185,5.183396292532681 L7.735121521351727,5.21599497282789 L7.7277936877312365,5.2492428195529115 L7.7230004717783425,5.282949520702555 L7.720769310052978,5.316922137770537 L7.7211129738141455,5.350966210137218 L7.724029495916726,5.384886868169969 L7.729502182071486,5.418489948664745 L7.7374997064038675,5.451583106244041 L7.747976290764539,5.483976914349525 L7.760871966765361,5.51548594952724 L7.776112919040834,5.545929852798874 L7.793611907770211,5.575134362043774 L7.8132687680417146,5.602932309482291 L7.834970983200508,5.629164578550849 L7.858594328898525,5.653681014691514 L7.884003584159614,5.6763412848427 L7.911053305389811,5.697015680711225 L7.9395886589022995,5.715585861227772 L7.969446307191621,5.731945529935909 L8.000455343884102,5.746001043437257 L8.032438272012772,5.757671947410048 L8.065212020017102,5.766891437132888 L8.09858898965195,5.77360673987765 L8.132378129807421,5.777779416982684 L8.166386030093063,5.779385583877256 L8.200418027926686,5.778416046797785 " />
			<path d="M7.852111660440081,7.61149261474673 L7.828988048685439,7.636480899371173 L7.807819814026615,7.663145888724594 L7.788728124285928,7.691334951340833 L7.7718222610594765,7.720886731897384 L7.757198994184922,7.751632074819713 L7.744942027827061,7.783394992534542 L7.735121521351833,7.815993672829757 L7.7277936877313085,7.8492415195547895 L7.7230004717783824,7.882948220704445 L7.7207693100529875,7.916920837772442 L7.721112973814129,7.95096491013914 L7.724029495916684,7.98488556817191 L7.729502182071423,8.018488648666708 L7.737499706403785,8.051581806246025 L7.7479762907644405,8.083975614351532 L7.760871966765249,8.11548464952927 L7.776112919040712,8.145928552800928 L7.793611907770082,8.175133062045852 L7.813268768041581,8.202931009484393 L7.834970983200373,8.229163278552974 L7.858594328898391,8.253679714693662 L7.884003584159484,8.276339984844869 L7.911053305389688,8.297014380713414 L7.939588658902183,8.31558456122998 L7.969446307191515,8.331944229938133 L8.00045534388401,8.345999743439494 L8.032438272012692,8.357670647412299 L8.065212020017036,8.366890137135147 L8.0985889896519,8.373605439879917 L8.132378129807387,8.377778116984958 L8.166386030093047,8.379384283879533 L8.200418027926686,8.378414746800061 " />
			<path d="M7.852111660440264,10.211491314748821 L7.828988048685601,10.236479599373258 L7.807819814026759,10.263144588726673 L7.7887281242860515,10.291333651342908 L7.771822261059581,10.320885431899457 L7.757198994185009,10.351630774821787 L7.744942027827129,10.383393692536618 L7.735121521351884,10.415992372831838 L7.727793687731343,10.449240219556874 L7.723000471778402,10.482946920706535 L7.720769310052993,10.51691953777454 L7.721112973814121,10.550963610141245 L7.724029495916664,10.584884268174024 L7.729502182071393,10.61848734866883 L7.737499706403745,10.651580506248159 L7.747976290764393,10.683974314353678 L7.760871966765196,10.715483349531427 L7.776112919040655,10.745927252803098 L7.793611907770019,10.775131762048032 L7.813268768041517,10.802929709486586 L7.834970983200308,10.829161978555177 L7.858594328898327,10.853678414695874 L7.884003584159421,10.876338684847092 L7.911053305389628,10.897013080715647 L7.939588658902128,10.915583261232221 L7.969446307191465,10.931942929940382 L8.000455343883964,10.94599844344175 L8.032438272012653,10.95766934741456 L8.065212020017004,10.966888837137416 L8.098588989651876,10.97360413988219 L8.132378129807371,10.97777681698723 L8.166386030093038,10.979382983881807 L8.200418027926686,10.978413446802337 " />
			<path d="M8.52128282811665,8.431632262454714 L8.526695736653199,8.431632267867618 " />
			<path d="M8.486995756503184,-1.5179285762186563 L8.517933563207793,-1.5179285452808806 " />
			<path d="M8.486995756503184,-4.953192266690958 L8.524995737503199,-4.953192228691015 " />
			<path d="M8.486995756503184,-4.485017227489685 L8.526695736653199,-4.485017187789745 " />
			<path d="M8.52819713590215,-17.02818575772349 L8.5281957359032,-17.02818295772769 " />
			<path d="M8.5281957359032,-3.6281896577159394 L8.5281957359032,-17.028182957727694 " />
			<path d="M8.5281957359032,16.971800042302057 L8.5281957359032,7.571804742293805 " />
			<path d="M8.5281957359032,16.97179444231046 L8.52819713590215,16.97179724230626 " />
			<path d="M8.52819713590215,16.97179724230626 L8.5281957359032,16.97180004230206 " />
			<path d="M-5.675497162252129,-23.52449391326207 L-5.675490662258629,-23.524497163253134 " />
			<path d="M-5.675490662258629,-23.524497163253134 L-5.675484162271626,-23.52449391324907 " />
			<path d="M5.724503637745648,-23.52448576327023 L5.724497137752148,-23.524482513279168 " />
			<path d="M-5.67549716225213,-23.52449391326207 L5.724497137752147,-23.52448251327917 " />
			<path d="M8.524495737753197,20.675498186755306 L8.524677288057433,20.67085982682016 L8.524858400991086,20.65731902147545 L8.52521757158374,20.603681926685717 L8.525911665744983,20.392436671293822 L8.527112031535442,19.589177527831083 L8.528195735903198,16.971800042302064 " />
			<path d="M-5.724497137752147,23.524482513279175 L5.675484162271632,23.524493913249074 " />
			<path d="M-8.524495737753197,20.724481113280923 L-8.524677287882644,20.720205862003187 L-8.52485840064277,20.707027307709133 L-8.52521757089719,20.654108655305162 L-8.525911664451554,20.444251985433493 L-8.527112029555544,19.643395014603986 L-8.528195735903195,17.02818855771933 " />
			<path d="M-8.5281957359032,17.028182957727694 L-8.5281957359032,-16.97179444231046 " />
			<path d="M-8.528195735903198,-16.971800042302057 L-8.527112031535442,-19.589177527831083 L-8.525911665744983,-20.392436671293822 L-8.52521757158374,-20.603681926685717 L-8.524858400991086,-20.65731902147545 L-8.524677288057433,-20.67085982682016 L-8.524495737753197,-20.675498186755306 " />
			<path d="M8.528195735903198,-17.028182957727694 L8.527112031535442,-19.643393036688607 L8.525911665744983,-20.444251450971162 L8.52521757158374,-20.654108519428753 L8.524858400991086,-20.707027273751514 L8.524677288057433,-20.72020585359115 L8.524495737753197,-20.724481113280923 " />
			<path d="M5.724497137752147,-23.524482513279168 L5.861886557174226,-23.521109654950727 L5.9989449934510235,-23.51099948025511 L6.13534226080465,-23.4941763454887 L6.27074976627106,-23.470680779056693 L6.404841301309291,-23.44056938383658 L6.537293827666399,-23.403914700816898 L6.667788255604923,-23.360805034339617 L6.796010212617995,-23.311344239367237 L6.921650800780255,-23.2556514712871 L7.044407340910004,-23.19386089885562 L7.163984101749865,-23.126121380974002 L7.280093012409289,-23.052596108074106 L7.392454356352558,-22.973462208978397 L7.500797445260421,-22.88891032418111 L7.6048612711419645,-22.79914414657859 L7.704395135125728,-22.704379930755273 L7.799159251415236,-22.60484597200744 L7.888925324953988,-22.50078205635986 L7.973477101408252,-22.39243888290025 L8.05261088814269,-22.280077459823218 L8.126136044933755,-22.16396847563865 L8.193875443238696,-22.0443916470594 L8.255665892913727,-21.921635045139205 L8.311358535353374,-21.795994401284293 L8.360819202103903,-21.66777239481054 L8.403928738086867,-21.53727792376246 L8.440583288654134,-21.40482536075077 L8.47069454978283,-21.27073379560124 L8.494189980807459,-21.135326266639353 L8.511012979176726,-20.998928982462676 L8.521123016814041,-20.861870536075784 L8.524495737753199,-20.724481113280945 " />
			<path d="M8.524495737753197,-20.72448111328092 L8.475495762253178,-20.675481186780804 " />
			<path d="M8.47549576225318,-20.675481186780807 L8.475314211948945,-20.67084282684566 L8.475133099015292,-20.65730202150095 L8.474773928422637,-20.603664926711218 L8.474079834261394,-20.392419671319324 L8.472879468470936,-19.589160527856585 L8.47179576410318,-16.971783042327594 " />
			<path d="M8.471795764103177,-16.97178304232756 L8.471795764103177,17.028199957702192 " />
			<path d="M8.47179576410318,17.028199957702192 L8.472879468470936,19.643410036663106 L8.474079834261394,20.44426845094566 L8.474773928422637,20.65412551940325 L8.475133099015292,20.707044273726012 L8.475314211948945,20.720222853565648 L8.47549576225318,20.72449811325542 " />
			<path d="M8.47549576225318,20.724498113255418 L8.524495737753199,20.675498186755302 " />
			<path d="M-5.724497137752149,-23.475493986761958 L-5.67549716225213,-23.524493913262074 " />
			<path d="M5.724497137752149,-23.52448251327917 L5.67549716225213,-23.475482586779055 " />
			<path d="M-5.724497137752147,-23.475493986761954 L5.675497162252132,-23.475482586779055 " />
			<path d="M-5.724510137762828,23.524482513235988 L-5.861899135763447,23.521109036963328 L-5.998957122272245,23.510998285631704 L-6.1353539145463465,23.494174616782708 L-6.270760922708284,23.470678559868638 L-6.40485194134312,23.44056671861406 L-6.537303935351217,23.403911634653305 L-6.6677978181634865,23.360801612772327 L-6.796019220444342,23.311340508176013 L-6.921659247430488,23.255647476293372 L-7.044415223081057,23.19385668572336 L-7.1639914192464005,23.126116995012897 L-7.280099768098893,23.052591594045694 L-7.392460556109451,22.973457610905868 L-7.500803097897951,22.888905685163373 L-7.6048663883341625,22.79913950860932 L-7.704399731318249,22.704375334547485 L-7.799163343726066,22.604841456824264 L-7.8889289330642915,22.50077765985202 L-7.973480247443789,22.392434640950874 L-8.052613596546273,22.28007340640046 L-8.126138342329224,22.163964642656644 L-8.193877358286915,22.044388064248015 L-8.255667456161166,21.921631739923047 L-8.311359779073811,21.795991398671376 L-8.360820160133851,21.667769717290955 L-8.403929445655336,21.537275591217455 L-8.440583782207318,21.404823390372492 L-8.470694866804402,21.27073220182344 L-8.49419015963511,21.13532506107927 L-8.511013058815603,20.99892817387433 L-8.52112303674777,20.861870130314774 L-8.524495737753199,20.72448111328093 " />
			<path d="M5.675497162252129,23.52449391326207 L5.812886581674207,23.521121329712194 L5.949945017951006,23.511011429133173 L6.086342285304632,23.49418856716103 L6.2217497907710415,23.47069327154376 L6.35584132580927,23.44058214450645 L6.48829385216638,23.403927726391558 L6.618788280104904,23.36081832090287 L6.747010237117976,23.311357782374145 L6.872650825280236,23.255665265574933 L6.995407365409986,23.193874938656286 L7.1149841262498486,23.126135659927954 L7.2310930369092725,23.052610619245645 L7.343454380852542,22.9734769448724 L7.451797469760404,22.888925276761075 L7.555861295641948,22.799159307285997 L7.6553951596257015,22.70439529053022 " />
			<path d="M7.65539515962571,22.704395290530208 L7.750159275915217,22.60486152131042 L7.83992534945397,22.500797785194806 L7.9244771259082345,22.39245478083858 L8.00361091264267,22.280093516028963 L8.077136069433736,22.163984678894565 L8.144875467738679,22.044407985793974 L8.206665917413709,21.921651507454552 L8.262358559853357,21.796010974984814 L8.311819226603884,21.667789067432295 L8.354928762586848,21.5372946826032 L8.391583313154117,21.404842192900535 L8.421694574282812,21.27075068797347 L8.445190005307442,21.135343206002403 L8.462013003676708,20.99894595547169 L8.472123041314022,20.861887529304852 L8.475495762253178,20.724498113255432 " />
			<path d="M-5.73099713450215,17.030985753523503 L5.6689971655021285,17.0309971535064 " />
			<path d="M5.668997165502127,17.030997153506398 L5.6712263330867305,21.928765538155204 " />
			<path d="M5.6735219709206515,23.219095137357193 L5.6744944687216705,23.447692895086234 L5.674991068268643,23.50526765179998 L5.675240675496708,23.51968800618866 L5.675490662258629,23.524497163253134 " />
			<path d="M5.675490662258629,23.524497163253134 L5.675497162252129,23.52449391326207 " />
			<path d="M-5.724497137752148,23.524482513279168 L-5.724503637745648,23.52448576327023 " />
			<path d="M-5.724503637745648,23.52448576327023 L-5.724663052084549,23.52253057631062 L-5.724822366610061,23.51666619198314 L-5.72514031296674,23.49322629281861 L-5.725770801936693,23.399748545651924 L-5.726989082027754,23.030324394808833 L-5.72909562705227,21.622977358043062 L-5.73099713450215,17.030985753523556 " />
			<path d="M-5.724497137752146,-23.475493986761954 L-5.861886557174223,-23.47212140321208 L-5.998944993451021,-23.462011502633057 L-6.135342260804647,-23.445188640660913 L-6.270749766271059,-23.421693345043643 L-6.404841301309291,-23.391582218006334 L-6.537293827666399,-23.354927799891442 L-6.667788255604923,-23.311818394402753 L-6.796010212617995,-23.26235785587403 L-6.921650800780255,-23.206665339074817 L-7.044407340910003,-23.144875012156174 L-7.163984101749865,-23.077135733427838 L-7.2800930124092895,-23.003610692745532 L-7.392454356352558,-22.924477018372286 L-7.500797445260421,-22.83992535026096 L-7.6048612711419645,-22.750159380785885 L-7.7043951351257105,-22.655395364030113 " />
			<path d="M-7.704395135125729,-22.655395364030095 L-7.799159251415235,-22.555861594810303 L-7.888925324953988,-22.451797858694693 L-7.973477101408252,-22.343454854338468 L-8.05261088814269,-22.231093589528847 L-8.126136044933755,-22.11498475239445 L-8.193875443238698,-21.995408059293858 L-8.255665892913727,-21.872651580954436 L-8.311358535353374,-21.747011048484698 L-8.360819202103903,-21.61878914093218 L-8.403928738086867,-21.488294756103084 L-8.440583288654135,-21.355842266400423 L-8.47069454978283,-21.221750761473356 L-8.494189980807459,-21.086343279502287 L-8.511012979176726,-20.949946028971574 L-8.521123016814041,-20.812887602804732 L-8.524495737753199,-20.67549818675531 " />
			<path d="M-5.730997134502149,17.0309857535235 L-7.709085824859708,17.0301646645353 L-8.315327624404919,17.029256623514314 L-8.474464181166297,17.028731666800226 L-8.514731518135715,17.028460031284336 L-8.524828705331164,17.028323059679668 L-8.528197135902149,17.02818575772349 " />
			<path d="M-8.528197135902149,17.02818575772349 L-8.528195735903198,17.02818295772769 " />
			<path d="M-5.730997134502151,17.0309857535235 L-5.730997134502151,-16.96899724650625 " />
			<path d="M-5.73099713450215,-16.96899724650625 L-7.7090858248597085,-16.969818335494452 L-8.315327624404919,-16.970726376515437 L-8.474464181166297,-16.971251333229525 L-8.514731518135717,-16.971522968745415 L-8.524828705331164,-16.971659940350083 L-8.52819713590215,-16.97179724230626 " />
			<path d="M-8.52819713590215,-16.97179724230626 L-8.5281957359032,-16.97180004230206 " />
			<path d="M-5.73099713450215,-16.96899724650625 L-5.729093329531765,-21.567092829192376 L-5.726984578818801,-22.97822375689719 L-5.72576522421121,-23.349330286639706 L-5.725134248845735,-23.44355761532437 L-5.724816077475806,-23.46734551660562 L-5.724497137752148,-23.475493986761954 " />
			<path d="M5.67549716225213,-23.47548258677905 L5.812886581674208,-23.47210972845061 L5.949945017951007,-23.461999553754993 L6.086342285304633,-23.445176418988584 L6.221749790771043,-23.421680852556577 L6.355841325809272,-23.391569457336463 L6.488293852166381,-23.354914774316782 L6.618788280104904,-23.3118051078395 L6.747010237117976,-23.26234431286712 L6.872650825280236,-23.206651544786983 L6.995407365409984,-23.144860972355502 L7.114984126249846,-23.07712145447389 L7.231093036909272,-23.00359618157399 L7.343454380852544,-22.92446228247828 L7.451797469760406,-22.839910397680992 L7.55586129564195,-22.750144220078475 L7.655395159625711,-22.655380004255157 L7.750159275915218,-22.555846045507323 L7.839925349453969,-22.451782129859744 L7.9244771259082345,-22.343438956400135 L8.003610912642673,-22.231077533323102 L8.07713606943374,-22.11496854913853 L8.14487546773868,-21.99539172055928 L8.20666591741371,-21.87263511863908 L8.262358559853357,-21.746994474784174 L8.311819226603886,-21.61877246831042 L8.35492876258685,-21.488277997262337 L8.391583313154117,-21.35582543425065 L8.421694574282812,-21.221733869101122 L8.445190005307442,-21.086326340139237 L8.46201300367671,-20.949929055962563 L8.472123041314022,-20.81287060957567 L8.47549576225318,-20.67548118678083 " />
			<path d="M8.526691225383374,14.9725010404458 L8.527495736253199,14.97250104125031 " />
			<path d="M8.476821479243377,19.977498488080485 L8.522495738753197,19.977498533754698 " />
			<path d="M8.47748576126818,20.022498466244805 L8.477495761253179,20.022498466254802 " />
			<path d="M8.526691152167004,-15.027483959580524 L8.527495736253199,-15.02748395877594 " />
			<path d="M5.675497162252129,-23.47548258677905 L5.675178222528471,-23.467334116622716 L5.674860051158542,-23.443546215341467 L5.674229075793067,-23.349318886656803 L5.673009721185476,-22.978212356914288 L5.670900970472512,-21.567081429209477 L5.668997165502127,-16.96898584652341 " />
			<path d="M5.668997165502126,-16.96898584652335 L7.649715263478336,-16.96980396640986 L8.25758704862849,-16.97071174346119 L8.417448323504292,-16.971236844046423 L8.458038557671008,-16.97150860822905 L8.468285653744598,-16.971645656418243 L8.471795764103177,-16.971783042327555 " />
			<path d="M5.668997165502127,17.0309971535064 L7.6497152634783365,17.03017903361989 L8.25758704862849,17.02927125656856 L8.417448323504292,17.028746155983328 L8.458038557671008,17.0284743918007 L8.4682856537446,17.028337343611508 L8.47179576410318,17.028199957702196 " />
			<path d="M5.668997165502128,-16.96898584652335 L5.668997165502128,17.0309971535064 " />
			<path d="M-5.73099713450215,-16.968997246506248 L5.668997165502127,-16.96898584652335 " />
			<path d="M3.471898264051302,22.440115902946527 L3.471898264051302,21.928763338829373 " />
			<path d="M8.47485771972339,-19.222281914017575 L8.522295738853197,-19.222281866579603 " />
			<path d="M8.474787338567634,-19.177681936387916 L8.47769576115318,-19.177681933479494 " />
			<path d="M8.472495763753178,-14.773284140875637 L8.473295763353178,-14.773284140075639 " />
			<path d="M8.472495763753178,14.826701059150265 L8.473295763353178,14.826701059950263 " />
			<path d="M8.474778319325994,19.22229886363667 L8.47768696116638,19.22229886654531 " />
			<path d="M8.52819713590215,16.97179724230626 L8.52819713590215,7.569700850257693 " />
			<path d="M8.52819713590215,-3.626091365671801 L8.52819713590215,-17.02818575772349 " />
			<path d="M-5.67549066225863,-23.524497163253134 L5.724503637745647,-23.524485763270235 " />
			<path d="M8.528197135902149,16.97179724230626 L8.527500932494098,19.13387198477936 L8.527145898436794,19.557630809685364 L8.526754624663866,19.906561908150703 L8.526367927479324,20.168207806682744 L8.525702149665795,20.476598895844436 L8.524819195185882,20.674590286978304 L8.523006521768147,20.7685604843856 L8.514542283161166,20.911680700742608 L8.505923515312295,20.997512624997125 L8.495838827161009,21.075141866431824 L8.477589683865675,21.185914888302005 L8.454900612544012,21.29591945950911 L8.427809248570926,21.404959533317474 L8.396360225544461,21.512845237051295 L8.360605065713417,21.61939256271056 L8.320602070404941,21.724423057586925 L8.276416210452147,21.82776351487962 L8.228119016621717,21.929245664311345 L8.175788470041498,22.02870586274417 L8.119508892628122,22.125984784795424 L8.059370837514606,22.2209271134536 L7.995470979477956,22.313381230694258 L7.927912005366772,22.403198908095902 L7.8568025045288605,22.490234997455904 L7.782256859238837,22.574347121406376 L7.704395135125743,22.655395364030078 " />
			<path d="M-5.675490662258629,-23.524497163253137 L-5.812876200498683,-23.521125840749516 L-5.949940954137956,-23.511014605594657 L-6.086346920322802,-23.49418964135278 L-6.2217612343352355,-23.470692531515027 L-6.355856169592943,-23.440580259499487 L-6.488309137649273,-23.40392520865117 L-6.618802688193242,-23.36081516224203 L-6.74702450904953,-23.31135330347094 L-6.872667426178486,-23.255658215463722 L-6.995429403676123,-23.19386388127312 L-7.115013543774122,-23.12611968387882 L-7.231128086839826,-23.052590406187427 L-7.343486411376249,-22.973456231032497 L-7.4518175192643925,-22.888909516236083 L-7.555870797420446,-22.79915075958595 L-7.655395159625677,-22.704395290530243 " />
			<path d="M8.528197135902149,-17.02818575772349 L8.527509809267167,-19.176473510263126 L8.527156524969202,-19.600978586158284 L8.526766697055677,-19.95073035225762 L8.526381094878465,-20.213183378784077 L8.5257166988335,-20.522936069337565 L8.524838056261428,-20.72222376907483 L8.523440419493308,-20.80434955464348 L8.517280766286346,-20.92565334939831 L8.510297859070283,-21.006503199573295 L8.500806852297947,-21.08793199874699 " />
			<path d="M8.497090924339515,-21.11526990022867 L8.486732824324264,-21.18289173051562 L8.458567551203366,-21.32857558003295 L8.422708607990394,-21.47262406004709 L8.379260466823284,-21.614587436243298 L8.328346136395291,-21.754055588913232 L8.272415446215806,-21.88558516735409 L8.209845138313257,-22.014090909574044 L8.140798347294382,-22.139237195703245 L8.065455043839881,-22.26069753463977 L7.990490244637045,-22.36926646480441 L7.910494247928273,-22.47418371366687 L7.825644669236382,-22.57521627424277 L7.736129901474916,-22.67213978948887 L7.670009535574965,-22.738189530430805 L7.601721688751481,-22.801995854219395 L7.5313425015575515,-22.86348774858566 L7.4589508888214935,-22.922597344748773 L7.365697323890396,-22.993073458836612 L7.269574342505791,-23.05959978531968 L7.17075490927648,-23.12205779769699 L7.069414784397767,-23.18033700825207 L6.965732520892314,-23.23433496455173 L6.859889462417364,-23.28395724666357 L6.752069741554793,-23.329117464986094 L6.642460278507141,-23.369737258594085 L6.531250780129442,-23.405746294010022 L6.418633739233389,-23.437082264321106 L6.304804434107011,-23.463690888569744 L6.18996092819974,-23.485525911353943 L6.074304069929461,-23.502549102582424 L5.95803749257474,-23.514730257337906 L5.841367614222202,-23.522047195810302 L5.724503637745663,-23.524485763270242 " />
			<path d="M7.655395159625711,22.704395290530208 L7.70439513512573,22.655395364030092 " />
			<path d="M-5.724503637745647,23.52448576327024 L5.67549066225863,23.524497163253137 " />
			<path d="M-7.70439513512573,-22.655395364030092 L-7.655395159625711,-22.704395290530208 " />
			<path d="M-5.7245036377456495,23.524485763270242 L-5.8399168822307175,23.52210732132482 L-5.9551429490540455,23.51497096353615 L-6.06998046094896,23.503090121682842 L-6.184230657999182,23.486485872457266 L-6.297697397666096,23.46518693750076 L-6.410187154857472,23.439229683492314 L-6.5215090220681695,23.408658122330188 L-6.631474709632101,23.373523911457106 L-6.739898546133456,23.33388635439102 L-6.846597479033878,23.2898124015346 L-6.951391075581073,23.241376651347974 L-7.054101524072998,23.188661351980375 L-7.154553635560532,23.13175640346779 L-7.252574846080267,23.07075936061475 L-7.347995219517742,23.005775436689916 L-7.440647451210224,22.9369175080761 L-7.551308913027882,22.846461003732262 L-7.657211064007671,22.750476394881876 L-7.75807730518707,22.649212938522222 L-7.853644743002181,22.542934408551556 L-7.933568885831722,22.444959202269107 L-8.00898832989784,22.343475827024914 L-8.079749273804387,22.238691280499886 L-8.14570740982023,22.13081932143857 L-8.18476216969851,22.061321896060367 L-8.22182256063338,21.990741046999986 L-8.256858494033679,21.919134084682526 L-8.289841553169625,21.846559166897148 L-8.32074499369648,21.77307529991027 L-8.349543743947,21.69874233908726 L-8.376214405074274,21.623620989196006 L-8.400735251108385,21.547772804527423 L-8.439317849030324,21.409914694077436 L-8.470797494778058,21.27029429411554 L-8.495091322109706,21.129322405932722 L-8.512108411540975,20.987835612052017 L-8.519071745050544,20.899216664909563 L-8.522696920808842,20.826401484850248 L-8.524462802924388,20.756017813137788 L-8.525057911109739,20.691068478645327 L-8.525715365994143,20.523404630147763 L-8.52637989802743,20.21389198540014 L-8.526765601335123,19.951581335236142 L-8.527155561459232,19.601974326633293 L-8.527509005169524,19.177600852415434 L-8.528197135902149,17.02818575772351 " />
			<path d="M-8.52819713590215,17.02818575772349 L-8.52819713590215,-16.97179724230626 " />
			<path d="M-8.528197135902149,-16.97179724230626 L-8.527500932494098,-19.13387198477938 L-8.527145898436794,-19.557630809685378 L-8.526754624663866,-19.90656190815071 L-8.526367927479324,-20.168207806682755 L-8.525702149665795,-20.476598895844436 L-8.524819195185882,-20.674590286978304 L-8.523006521768153,-20.76856048438558 L-8.514542283161163,-20.911680700742604 L-8.505923515312299,-20.99751262499711 L-8.495838827161009,-21.07514186643184 L-8.477589683865675,-21.185914888302026 L-8.454900612544012,-21.29591945950913 L-8.427809248570924,-21.40495953331748 L-8.39636022554446,-21.512845237051295 L-8.360605065713413,-21.61939256271055 L-8.320602070404938,-21.724423057586918 L-8.276416210452144,-21.827763514879617 L-8.228119016621713,-21.92924566431135 L-8.175788470041496,-22.02870586274418 L-8.119508892628122,-22.125984784795435 L-8.059370837514606,-22.220927113453612 L-7.9954709794779575,-22.31338123069426 L-7.9279120053667755,-22.403198908095895 L-7.856802504528865,-22.490234997455886 L-7.78225685923884,-22.57434712140636 L-7.704395135125743,-22.655395364030078 " />
			<path d="M5.675490662258629,23.524497163253137 L5.8128762004986765,23.521125840749516 L5.9499409541379435,23.511014605594657 L6.086346920322783,23.49418964135278 L6.2217612343352116,23.47069253151503 L6.355856169592914,23.440580259499495 L6.488309137649239,23.40392520865118 L6.6188026881932025,23.360815162242044 L6.747024509049486,23.31135330347096 L6.872667426178437,23.255658215463747 L6.995429403676071,23.19386388127315 L7.115013543774065,23.12611968387885 L7.231128086839766,23.052590406187466 L7.343486411376185,22.973456231032543 L7.4518175192643294,22.888909516236133 L7.555870797420384,22.799150759586006 L7.655395159625615,22.704395290530304 " />
			<path d="M8.474857723259856,-19.22228411401592 L8.522300138848797,-19.22228406657355 " />
			<path d="M8.474778322729144,19.22230106363502 L8.47769136115758,19.222301066548056 " />

       </g>
    </g>
    
</svg>
