<svg xmlns="http://www.w3.org/2000/svg" width="830.0" height="626.0" font-family="Helvetica,Arial" font-size="10">
<rect width="830.0" height="626.0" fill="white"/><g transform="translate(60,44)">
<rect x="0" y="0" width="660.0" height="506.0" rx="33" fill="#134E4A" opacity="0.07" stroke="#134E4A" stroke-width="2"/>
<rect x="22.0" y="16.5" width="616.0" height="165.0" fill="#dbe7f6" opacity="0.7" rx="5"/>
<text x="26.4" y="28.5" fill="#889" font-size="9">OPTICAL</text>
<rect x="374.0" y="209.0" width="264.0" height="198.0" fill="#e3f3ef" opacity="0.7" rx="5"/>
<text x="378.4" y="221.0" fill="#889" font-size="9">AIR</text>
<rect x="22.0" y="385.0" width="209.0" height="99.0" fill="#fbeee6" opacity="0.7" rx="5"/>
<text x="26.4" y="397.0" fill="#889" font-size="9">CONTACT</text>
<rect x="253.0" y="209.0" width="99.0" height="88.0" fill="#f3e8fb" opacity="0.7" rx="5"/>
<text x="257.4" y="221.0" fill="#889" font-size="9">RADAR</text>
<rect x="22.0" y="209.0" width="88.0" height="154.0" fill="#f2f2ea" opacity="0.7" rx="5"/>
<text x="26.4" y="221.0" fill="#889" font-size="9">MAGNET</text>
<rect x="30.799999999999997" y="16.50000000000002" width="105.6" height="105.6" fill="#1E3A8A" opacity="0.85" rx="2"/>
<text x="83.6" y="14.500000000000021" text-anchor="middle" fill="#1E293B" font-size="8">MLX90642 thermal 32x24</text>
<rect x="145.2" y="16.5" width="70.4" height="33.0" fill="#1E3A8A" opacity="0.85" rx="2"/>
<text x="180.39999999999998" y="14.5" text-anchor="middle" fill="#1E293B" font-size="8">VL53L8CH ToF 8x8 raw</text>
<rect x="224.39999999999998" y="16.5" width="34.1" height="22.0" fill="#1E3A8A" opacity="0.85" rx="2"/>
<text x="241.45" y="14.5" text-anchor="middle" fill="#1E293B" font-size="8">TCS3448 14ch VIS</text>
<rect x="267.29999999999995" y="16.500000000000014" width="40.15" height="28.6" fill="#1E3A8A" opacity="0.85" rx="2"/>
<text x="287.37499999999994" y="14.500000000000014" text-anchor="middle" fill="#1E293B" font-size="8">AS7331 UV A/B/C</text>
<rect x="316.24999999999994" y="16.5" width="38.5" height="38.5" fill="#0F766E" opacity="0.85" rx="2"/>
<text x="335.49999999999994" y="14.5" text-anchor="middle" fill="#1E293B" font-size="8">AS7421 64ch NIR</text>
<rect x="363.54999999999995" y="16.5" width="33.0" height="33.0" fill="#0F766E" opacity="0.85" rx="2"/>
<text x="380.04999999999995" y="14.5" text-anchor="middle" fill="#1E293B" font-size="8">MLX90632 spot FIR</text>
<rect x="405.3499999999999" y="16.5" width="88.0" height="88.0" fill="#1E3A8A" opacity="0.85" rx="2"/>
<text x="449.3499999999999" y="14.5" text-anchor="middle" fill="#1E293B" font-size="8">VD66GY camera</text>
<rect x="382.79999999999995" y="209.0" width="33.0" height="33.0" fill="#1E3A8A" opacity="0.85" rx="2"/>
<text x="399.29999999999995" y="207.0" text-anchor="middle" fill="#1E293B" font-size="8">BME688 gas/T/RH/P</text>
<rect x="424.5999999999999" y="209.0" width="26.84" height="26.84" fill="#1E3A8A" opacity="0.85" rx="2"/>
<text x="438.0199999999999" y="207.0" text-anchor="middle" fill="#1E293B" font-size="8">SGP41 VOC/NOx</text>
<rect x="460.23999999999995" y="209.0" width="33.0" height="33.0" fill="#0F766E" opacity="0.85" rx="2"/>
<text x="476.73999999999995" y="207.0" text-anchor="middle" fill="#1E293B" font-size="8">ENS161 4-el MOX</text>
<rect x="502.0399999999999" y="209.0" width="111.1" height="111.1" fill="#0F766E" opacity="0.85" rx="2"/>
<text x="557.5899999999999" y="207.0" text-anchor="middle" fill="#1E293B" font-size="8">SCD41 true CO2</text>
<rect x="382.79999999999995" y="328.9" width="16.5" height="16.5" fill="#0F766E" opacity="0.85" rx="2"/>
<text x="391.04999999999995" y="326.9" text-anchor="middle" fill="#1E293B" font-size="8">SHT41 ref T/RH</text>
<rect x="408.0999999999999" y="328.9" width="46.2" height="38.5" fill="#1E3A8A" opacity="0.85" rx="2"/>
<text x="431.19999999999993" y="326.9" text-anchor="middle" fill="#1E293B" font-size="8">BMV080 PM2.5</text>
<rect x="30.799999999999997" y="385.0" width="61.599999999999994" height="36.3" fill="#1E3A8A" opacity="0.85" rx="2"/>
<text x="61.599999999999994" y="383.0" text-anchor="middle" fill="#1E293B" font-size="8">MAX30102 PPG</text>
<rect x="101.19999999999999" y="385.0" width="31.02" height="28.049999999999997" fill="#1E3A8A" opacity="0.85" rx="2"/>
<text x="116.71" y="383.0" text-anchor="middle" fill="#1E293B" font-size="8">AS7058 PPG/ECG/BioZ</text>
<rect x="261.8" y="209.0" width="60.5" height="57.2" fill="#1E3A8A" opacity="0.85" rx="2"/>
<text x="292.05" y="207.0" text-anchor="middle" fill="#1E293B" font-size="8">A121 60GHz radar</text>
<rect x="30.799999999999997" y="209.0" width="33.0" height="33.0" fill="#0F766E" opacity="0.85" rx="2"/>
<text x="47.3" y="207.0" text-anchor="middle" fill="#1E293B" font-size="8">MMC5983MA nT mag</text>
<rect x="72.6" y="209.0" width="31.9" height="30.799999999999997" fill="#1E3A8A" opacity="0.85" rx="2"/>
<text x="88.54999999999998" y="207.0" text-anchor="middle" fill="#1E293B" font-size="8">TMAG5273 mT hall</text>
<line x1="0" y1="526.0" x2="660.0" y2="526.0" stroke="#333"/>
<text x="330.0" y="541.0" text-anchor="middle" font-size="11">60 mm</text>
<line x1="680.0" y1="0" x2="680.0" y2="506.0" stroke="#333"/>
<text x="688.0" y="253.0" font-size="11">46 mm</text>
<text x="0" y="-20" font-size="14" font-weight="bold">interrogator v1 · TOP · sensing face · 6-layer 1.6mm · green=new</text>
</g></svg>