<svg xmlns="http://www.w3.org/2000/svg" width="830.0" height="626.0" font-family="Helvetica,Arial" font-size="10">
<rect width="830.0" height="626.0" fill="white"/><g transform="translate(60,44)">
<rect x="0" y="0" width="660.0" height="506.0" rx="33" fill="#134E4A" opacity="0.07" stroke="#134E4A" stroke-width="2"/>
<rect x="220.0" y="11.0" width="264.0" height="198.0" fill="#dbe7f6" opacity="0.7" rx="5"/>
<text x="224.39999999999998" y="23.0" fill="#889" font-size="9">COMPUTE</text>
<rect x="22.0" y="11.0" width="132.0" height="165.0" fill="#f3e8fb" opacity="0.7" rx="5"/>
<text x="26.4" y="23.0" fill="#889" font-size="9">RADIO_BLE</text>
<rect x="495.0" y="286.0" width="154.0" height="198.0" fill="#efe3fb" opacity="0.7" rx="5"/>
<text x="499.4" y="298.0" fill="#889" font-size="9">RADIO_WIFI</text>
<rect x="198.0" y="231.0" width="286.0" height="121.0" fill="#f2f2ea" opacity="0.7" rx="5"/>
<text x="202.39999999999998" y="243.0" fill="#889" font-size="9">SENSE_B</text>
<rect x="22.0" y="187.0" width="165.0" height="176.0" fill="#e3f3ef" opacity="0.7" rx="5"/>
<text x="26.4" y="199.0" fill="#889" font-size="9">GAS_B</text>
<rect x="22.0" y="374.0" width="286.0" height="110.0" fill="#fdecec" opacity="0.7" rx="5"/>
<text x="26.4" y="386.0" fill="#889" font-size="9">POWER</text>
<rect x="506.0" y="22.0" width="143.0" height="242.0" fill="#e7eefb" opacity="0.7" rx="5"/>
<text x="510.4" y="34.0" fill="#889" font-size="9">IO</text>
<rect x="228.8" y="11.0" width="88.0" height="88.0" fill="#1E3A8A" opacity="0.85" rx="2"/>
<text x="272.8" y="9.0" text-anchor="middle" fill="#1E293B" font-size="8">STM32N657 VFBGA142</text>
<rect x="325.6" y="11.0" width="88.0" height="66.0" fill="#1E3A8A" opacity="0.85" rx="2"/>
<text x="369.6" y="9.0" text-anchor="middle" fill="#1E293B" font-size="8">Octal NOR flash</text>
<rect x="30.799999999999997" y="11.0" width="110.0" height="154.0" fill="#1E3A8A" opacity="0.85" rx="2"/>
<text x="85.8" y="9.0" text-anchor="middle" fill="#1E293B" font-size="8">BL54L15 BLE sentinel</text>
<rect x="503.79999999999995" y="286.0" width="145.2" height="182.60000000000002" fill="#1E3A8A" opacity="0.85" rx="2"/>
<text x="576.4" y="284.0" text-anchor="middle" fill="#1E293B" font-size="8">ESP32-C6-MINI WiFi</text>
<rect x="206.8" y="231.0" width="41.8" height="57.2" fill="#0F766E" opacity="0.85" rx="2"/>
<text x="227.7" y="229.0" text-anchor="middle" fill="#1E293B" font-size="8">BNO086 IMU raw+fused</text>
<rect x="257.4" y="231.0" width="33.0" height="33.0" fill="#1E3A8A" opacity="0.85" rx="2"/>
<text x="273.9" y="229.0" text-anchor="middle" fill="#1E293B" font-size="8">ADS131M04 24b 4ch</text>
<rect x="299.2" y="231.0" width="110.0" height="110.0" fill="#0F766E" opacity="0.85" rx="2"/>
<text x="354.20000000000005" y="229.0" text-anchor="middle" fill="#1E293B" font-size="8">PIN radiation det</text>
<rect x="418.0" y="231.0" width="38.5" height="29.15" fill="#0F766E" opacity="0.85" rx="2"/>
<text x="437.25" y="229.0" text-anchor="middle" fill="#1E293B" font-size="8">MEMS mic</text>
<rect x="30.799999999999997" y="187.0" width="154.0" height="154.0" fill="#0F766E" opacity="0.85" rx="2"/>
<text x="107.80000000000001" y="185.0" text-anchor="middle" fill="#1E293B" font-size="8">SGX-4CO electrochem</text>
<rect x="30.799999999999997" y="374.0" width="44.0" height="44.0" fill="#1E3A8A" opacity="0.85" rx="2"/>
<text x="52.8" y="372.0" text-anchor="middle" fill="#1E293B" font-size="8">CYPD3177 USB-C PD</text>
<rect x="83.6" y="374.0" width="27.5" height="33.0" fill="#1E3A8A" opacity="0.85" rx="2"/>
<text x="97.35" y="372.0" text-anchor="middle" fill="#1E293B" font-size="8">BQ25620 charger 3.5A</text>
<rect x="119.89999999999998" y="374.0" width="17.6" height="17.6" fill="#1E3A8A" opacity="0.85" rx="2"/>
<text x="128.7" y="372.0" text-anchor="middle" fill="#1E293B" font-size="8">BQ27427 gauge</text>
<rect x="146.29999999999998" y="374.0" width="17.6" height="23.1" fill="#1E3A8A" opacity="0.85" rx="2"/>
<text x="155.1" y="372.0" text-anchor="middle" fill="#1E293B" font-size="8">TPS62840 sentinel buck</text>
<rect x="172.7" y="374.0" width="17.6" height="23.1" fill="#1E3A8A" opacity="0.85" rx="2"/>
<text x="181.5" y="372.0" text-anchor="middle" fill="#1E293B" font-size="8">TPS62823 core buck</text>
<rect x="199.10000000000002" y="374.0" width="17.6" height="31.9" fill="#1E3A8A" opacity="0.85" rx="2"/>
<text x="207.90000000000003" y="372.0" text-anchor="middle" fill="#1E293B" font-size="8">TLV62568 1V8 buck</text>
<rect x="225.5" y="374.0" width="44.0" height="33.0" fill="#0F766E" opacity="0.85" rx="2"/>
<text x="247.5" y="372.0" text-anchor="middle" fill="#1E293B" font-size="8">BQ29700+FET protect</text>
<rect x="30.799999999999997" y="426.79999999999995" width="88.0" height="22.0" fill="#1E3A8A" opacity="0.85" rx="2"/>
<text x="74.8" y="424.79999999999995" text-anchor="middle" fill="#1E293B" font-size="8">Load switches x6</text>
<rect x="514.8" y="22.0" width="33.0" height="33.0" fill="#1E3A8A" opacity="0.85" rx="2"/>
<text x="531.3" y="20.0" text-anchor="middle" fill="#1E293B" font-size="8">IQS7222A touch</text>
<rect x="556.5999999999999" y="22.0" width="33.0" height="33.0" fill="#1E3A8A" opacity="0.85" rx="2"/>
<text x="573.0999999999999" y="20.0" text-anchor="middle" fill="#1E293B" font-size="8">DRV2605L haptic</text>
<rect x="598.3999999999999" y="22.0" width="49.5" height="49.5" fill="#1E3A8A" opacity="0.85" rx="2"/>
<text x="623.1499999999999" y="20.0" text-anchor="middle" fill="#1E293B" font-size="8">MIA-M10Q GNSS RAWX</text>
<line x1="0" y1="526.0" x2="660.0" y2="526.0" stroke="#333"/>
<text x="330.0" y="541.0" text-anchor="middle" font-size="11">60 mm</text>
<line x1="680.0" y1="0" x2="680.0" y2="506.0" stroke="#333"/>
<text x="688.0" y="253.0" font-size="11">46 mm</text>
<text x="0" y="-20" font-size="14" font-weight="bold">interrogator v1 · BOTTOM · compute face · 6-layer 1.6mm · green=new</text>
</g></svg>