<svg xmlns="http://www.w3.org/2000/svg" width="808.0" height="600.0" font-family="Helvetica,Arial" font-size="11">
<rect x="0" y="0" width="808.0" height="600.0" fill="white"/>
<g transform="translate(60,40)">
<rect x="0" y="0" width="648.0" height="480.0" rx="36" fill="#134E4A" opacity="0.08" stroke="#134E4A" stroke-width="2"/>
<rect x="24" y="0.0" width="600" height="144" fill="#dbe7f6" opacity="0.8" rx="6"/>
<text x="30.0" y="14.0" fill="#666" font-size="10">OPTICAL</text>
<rect x="444" y="180.0" width="180" height="180" fill="#e3f3ef" opacity="0.8" rx="6"/>
<text x="450.0" y="194.0" fill="#666" font-size="10">AIR</text>
<rect x="36" y="342.0" width="192" height="102.0" fill="#fbeee6" opacity="0.8" rx="6"/>
<text x="42.0" y="356.0" fill="#666" font-size="10">CONTACT</text>
<rect x="264" y="156.0" width="120" height="108" fill="#f3e8fb" opacity="0.8" rx="6"/>
<text x="270.0" y="170.0" fill="#666" font-size="10">RF</text>
<rect x="24" y="210.0" width="84" height="138.0" fill="#f2f2ea" opacity="0.8" rx="6"/>
<text x="30.0" y="224.0" fill="#666" font-size="10">QUIET</text>
<rect x="48.0" y="16.800000000000004" width="115.19999999999999" height="115.19999999999999" fill="#1E3A8A" opacity="0.85" rx="2"/>
<text x="105.60000000000001" y="13.800000000000004" text-anchor="middle" fill="#1E293B" font-size="9">MLX90642</text>
<rect x="186.0" y="60.0" width="76.80000000000001" height="36.0" fill="#1E3A8A" opacity="0.85" rx="2"/>
<text x="224.39999999999998" y="57.0" text-anchor="middle" fill="#1E293B" font-size="9">VL53L8CH</text>
<rect x="282.0" y="66.0" width="37.2" height="24.0" fill="#1E3A8A" opacity="0.85" rx="2"/>
<text x="300.6" y="63.0" text-anchor="middle" fill="#1E293B" font-size="9">TCS3448</text>
<rect x="342.0" y="61.20000000000004" width="43.8" height="31.200000000000003" fill="#1E3A8A" opacity="0.85" rx="2"/>
<text x="363.9" y="58.20000000000004" text-anchor="middle" fill="#1E293B" font-size="9">AS7331</text>
<rect x="408.0" y="24.0" width="96.0" height="96.0" fill="#1E3A8A" opacity="0.85" rx="2"/>
<text x="456.0" y="21.0" text-anchor="middle" fill="#1E293B" font-size="9">VD66GY camera</text>
<rect x="288.0" y="171.60000000000002" width="66.0" height="62.400000000000006" fill="#1E3A8A" opacity="0.85" rx="2"/>
<text x="321.0" y="168.60000000000002" text-anchor="middle" fill="#1E293B" font-size="9">A121</text>
<rect x="480.0" y="204.0" width="36.0" height="36.0" fill="#1E3A8A" opacity="0.85" rx="2"/>
<text x="498.0" y="201.0" text-anchor="middle" fill="#1E293B" font-size="9">BME688</text>
<rect x="546.0" y="207.11999999999998" width="29.28" height="29.28" fill="#1E3A8A" opacity="0.85" rx="2"/>
<text x="560.64" y="204.11999999999998" text-anchor="middle" fill="#1E293B" font-size="9">SGP41</text>
<rect x="528.0" y="288.0" width="50.400000000000006" height="42.0" fill="#1E3A8A" opacity="0.85" rx="2"/>
<text x="553.2" y="285.0" text-anchor="middle" fill="#1E293B" font-size="9">BMV080</text>
<rect x="72.0" y="368.4" width="67.19999999999999" height="39.599999999999994" fill="#1E3A8A" opacity="0.85" rx="2"/>
<text x="105.60000000000001" y="365.4" text-anchor="middle" fill="#1E293B" font-size="9">MAX30102EFD</text>
<rect x="162.0" y="373.8" width="33.839999999999996" height="30.599999999999998" fill="#1E3A8A" opacity="0.85" rx="2"/>
<text x="178.92000000000002" y="370.8" text-anchor="middle" fill="#1E293B" font-size="9">AS7058</text>
<rect x="36.0" y="228.0" width="36.0" height="36.0" fill="#1E3A8A" opacity="0.85" rx="2"/>
<text x="54.0" y="225.0" text-anchor="middle" fill="#1E293B" font-size="9">MMC5983MA</text>
<rect x="36.0" y="296.4" width="34.8" height="33.599999999999994" fill="#1E3A8A" opacity="0.85" rx="2"/>
<text x="53.400000000000006" y="293.4" text-anchor="middle" fill="#1E293B" font-size="9">TMAG5273</text>
<line x1="0" y1="502.0" x2="648.0" y2="502.0" stroke="#333"/>
<text x="324.0" y="518.0" text-anchor="middle">54 mm</text>
<line x1="670.0" y1="0" x2="670.0" y2="480.0" stroke="#333"/>
<text x="678.0" y="240.0" writing-mode="tb">40 mm</text>
<text x="0" y="-16" font-size="15" font-weight="bold">interrogator v1 · TOP — sensing face · 6-layer, 1.6 mm</text>
</g></svg>