<svg xmlns="http://www.w3.org/2000/svg" width="808.0" height="600.0" font-family="Helvetica,Arial" font-size="11">
<rect x="0" y="0" width="808.0" height="600.0" fill="white"/>
<g transform="translate(60,40)">
<rect x="0" y="0" width="648.0" height="480.0" rx="36" fill="#134E4A" opacity="0.08" stroke="#134E4A" stroke-width="2"/>
<rect x="84" y="240.0" width="432" height="144" fill="#dbe7f6" opacity="0.8" rx="6"/>
<text x="90.0" y="254.0" fill="#666" font-size="10">DIGITAL</text>
<rect x="24" y="12.0" width="144" height="204" fill="#f3e8fb" opacity="0.8" rx="6"/>
<text x="30.0" y="26.0" fill="#666" font-size="10">RF</text>
<rect x="36" y="384.0" width="384" height="96" fill="#fdecec" opacity="0.8" rx="6"/>
<text x="42.0" y="398.0" fill="#666" font-size="10">POWER</text>
<rect x="192" y="84.0" width="264" height="96" fill="#f2f2ea" opacity="0.8" rx="6"/>
<text x="198.0" y="98.0" fill="#666" font-size="10">QUIET</text>
<rect x="240.0" y="192.0" width="96.0" height="96.0" fill="#1E3A8A" opacity="0.85" rx="2"/>
<text x="288.0" y="189.0" text-anchor="middle" fill="#1E293B" font-size="9">STM32N657</text>
<rect x="360.0" y="216.0" width="96.0" height="72.0" fill="#1E3A8A" opacity="0.85" rx="2"/>
<text x="408.0" y="213.0" text-anchor="middle" fill="#1E293B" font-size="9">Octal NOR flash</text>
<rect x="36.0" y="24.0" width="120.0" height="168.0" fill="#1E3A8A" opacity="0.85" rx="2"/>
<text x="96.0" y="21.0" text-anchor="middle" fill="#1E293B" font-size="9">BL54L15</text>
<rect x="468.0" y="244.79999999999998" width="158.39999999999998" height="199.20000000000002" fill="#1E3A8A" opacity="0.85" rx="2"/>
<text x="547.2" y="241.79999999999998" text-anchor="middle" fill="#1E293B" font-size="9">ESP32-C6-MINI-1</text>
<rect x="576.0" y="18.0" width="54.0" height="54.0" fill="#1E3A8A" opacity="0.85" rx="2"/>
<text x="603.0" y="15.0" text-anchor="middle" fill="#1E293B" font-size="9">MIA-M10Q</text>
<rect x="396.0" y="135.60000000000002" width="45.599999999999994" height="62.400000000000006" fill="#1E3A8A" opacity="0.85" rx="2"/>
<text x="418.79999999999995" y="132.60000000000002" text-anchor="middle" fill="#1E293B" font-size="9">BNO086</text>
<rect x="186.0" y="138.0" width="36.0" height="36.0" fill="#1E3A8A" opacity="0.85" rx="2"/>
<text x="204.0" y="135.0" text-anchor="middle" fill="#1E293B" font-size="9">ADS131M04</text>
<rect x="498.0" y="132.0" width="36.0" height="36.0" fill="#1E3A8A" opacity="0.85" rx="2"/>
<text x="516.0" y="129.0" text-anchor="middle" fill="#1E293B" font-size="9">IQS7222A</text>
<rect x="558.0" y="132.0" width="36.0" height="36.0" fill="#1E3A8A" opacity="0.85" rx="2"/>
<text x="576.0" y="129.0" text-anchor="middle" fill="#1E293B" font-size="9">DRV2605L + LRA drv</text>
<rect x="48.0" y="384.0" width="48.0" height="48.0" fill="#1E3A8A" opacity="0.85" rx="2"/>
<text x="72.0" y="381.0" text-anchor="middle" fill="#1E293B" font-size="9">CYPD3177</text>
<rect x="114.0" y="396.0" width="30.0" height="36.0" fill="#1E3A8A" opacity="0.85" rx="2"/>
<text x="129.0" y="393.0" text-anchor="middle" fill="#1E293B" font-size="9">BQ25620</text>
<rect x="162.0" y="406.79999999999995" width="19.200000000000003" height="19.200000000000003" fill="#1E3A8A" opacity="0.85" rx="2"/>
<text x="171.60000000000002" y="403.79999999999995" text-anchor="middle" fill="#1E293B" font-size="9">BQ27427</text>
<rect x="198.0" y="403.20000000000005" width="19.200000000000003" height="25.200000000000003" fill="#1E3A8A" opacity="0.85" rx="2"/>
<text x="207.60000000000002" y="400.20000000000005" text-anchor="middle" fill="#1E293B" font-size="9">TPS62840</text>
<rect x="234.0" y="403.20000000000005" width="19.200000000000003" height="25.200000000000003" fill="#1E3A8A" opacity="0.85" rx="2"/>
<text x="243.60000000000002" y="400.20000000000005" text-anchor="middle" fill="#1E293B" font-size="9">TPS62823</text>
<rect x="270.0" y="397.20000000000005" width="19.200000000000003" height="34.8" fill="#1E3A8A" opacity="0.85" rx="2"/>
<text x="279.6" y="394.20000000000005" text-anchor="middle" fill="#1E293B" font-size="9">TLV62568</text>
<rect x="48.0" y="294.0" width="48.0" height="36.0" fill="#1E3A8A" opacity="0.85" rx="2"/>
<text x="72.0" y="291.0" text-anchor="middle" fill="#1E293B" font-size="9">BQ29700+FETs</text>
<rect x="48.0" y="342.0" width="96.0" height="24.0" fill="#1E3A8A" opacity="0.85" rx="2"/>
<text x="96.0" y="339.0" text-anchor="middle" fill="#1E293B" font-size="9">Load switches x6</text>
<rect x="324.0" y="390.0" width="108.0" height="90.0" fill="#1E3A8A" opacity="0.85" rx="2"/>
<text x="378.0" y="387.0" text-anchor="middle" fill="#1E293B" font-size="9">USB-C conn</text>
<rect x="174.0" y="6.0" width="378.0" height="114.0" fill="#1E3A8A" opacity="0.85" rx="2"/>
<text x="363.0" y="3.0" text-anchor="middle" fill="#1E293B" font-size="9">BG51</text>
<line x1="0" y1="502.0" x2="648.0" y2="502.0" stroke="#333"/>
<text x="324.0" y="518.0" text-anchor="middle">54 mm</text>
<line x1="670.0" y1="0" x2="670.0" y2="480.0" stroke="#333"/>
<text x="678.0" y="240.0" writing-mode="tb">40 mm</text>
<text x="0" y="-16" font-size="15" font-weight="bold">interrogator v1 · BOTTOM — compute face · 6-layer, 1.6 mm</text>
</g></svg>